<?xml version="1.0" encoding="UTF-8"?>
<svg id="b" data-name="Layer 1" xmlns="http://www.w3.org/2000/svg" viewBox="0 0 128.64 128.26">
  <defs>
    <style>
      .c {
        fill: #ea2127;
      }
    </style>
  </defs>
  <path class="c" d="M54.49,64.22s-.01,0-.02,0c0,0,0,0,0-.01,0,0,0,0,0,.01Z"/>
  <path class="c" d="M54.38,64.21s-.01,0-.02,0c0-.02-.03-.02-.03-.05,0-.02.02-.03.02-.05,0,.04.03.07.02.1Z"/>
  <path class="c" d="M7.42,64.33s.04,0,.07,0h0s0,0,0,0c-.02,0-.04,0-.07,0-3.93.02-6.62-.36-6.21-6.87.61-4.14.75-6.25,1.21-8.31.36-2.08.72-4.18,2.26-8.13,3.36-7.73,3.02-7.98,7.83-14.98,2.45-3.47,4.02-4.93,5.35-6.6,1.41-1.58,2.92-3.12,6.2-5.83,1.7-1.28,3.04-2.17,4.2-2.81,1.22-.57,2.23-.95,3.23-1.32,1.98-.81,4.04-1.35,7.79-3.13,3.88-1.47,5.75-2.45,7.76-3.06,1.98-.66,3.95-1.5,8.12-2.04,8.31-.91,8.35-1.67,16.81-1.02,2.1.31,3.67.59,4.97.85,1.28.35,2.29.7,3.3,1.02,1.01.34,2.02.67,3.26,1.08,1.24.48,2.71,1.04,4.68,1.8,3.85,1.7,5.69,2.76,7.38,4.02,1.67,1.29,3.46,2.36,6.73,4.93,6.41,5.2,7.6,4.09,13.07,10.64,2.65,3.36,3.49,5.36,4.42,7.27.99,1.88,1.64,3.92,3.43,7.73,1.49,3.95,2.06,5.98,2.36,8.07.19,1.04.39,2.07.63,3.35.18,1.3.4,2.84.69,4.91.77,8.25,2.34,8.29,1.52,16.8-.54,4.25-1.51,6.23-2.42,8.17-.82,1.97-1.96,3.79-3.39,7.7-1.79,3.76-2.28,5.85-3.11,7.81-.75,2-1.49,4.08-4.11,7.45-5.49,6.53-6.28,5.81-12.76,11.07-3.29,2.61-5.3,3.37-7.11,4.4-1.87.92-3.8,1.75-7.62,3.38-1.95.73-3.4,1.31-4.6,1.84-1.21.44-2.21.8-3.2,1.16-1.96.81-3.99,1.41-8.17,2-8.38.62-8.43.91-16.83-.02-4.21-.52-6.22-1.23-8.3-1.68-2.07-.46-4.06-1.24-8.01-2.77-3.85-1.79-5.69-2.85-7.41-4.09-.88-.59-1.75-1.18-2.84-1.92-1.05-.8-2.3-1.76-3.98-3.04-3.21-2.71-4.67-4.26-5.93-5.94-1.24-1.71-2.64-3.25-5.06-6.63-4.69-6.82-5.58-6.39-8.94-14.15-1.56-3.94-2.14-5.97-2.8-7.99-.75-2.01-1.13-4.1-1.78-8.32-.41-6.64,3.45-6.8,7.39-6.81ZM39.45,77.29c1.08,2.11,2.94,4.31,4,6.23.48.9,1.01,1.9,1.57,2.95.27.5.55.99.81,1.46.17.31.34.61.54.91.76,1.15,1.84,2.09,2.68,3.21.82,1.1,1.28,2.52,2.18,3.6,1.32,1.52,2.5,2.27,4.35,3.3.31.15.62.3.98.48.11.14.1.34.05.43l-.03.09s.03.06.07.09c.04.08.09.01.09.27,0,.67.07,1.34.15,2,.08.79.15,1,.15,2.46,0,2.42-.36,5.12-.36,7.68,1.24.06,2.65-.09,3.94-.18l.49-.04c.76-.01,1.52-.03,2.26-.04.17-.02.34-.05.49-.07.33-.04.66-.07.98-.06h.39s.2.02.2.02c.65,0,1.32,0,1.99.01.51.03,1.04.05,1.59.08,1.02.06,2.09.13,3.03.19.02-.61.03-1.14.05-1.67.06-2.46.11-5.03.17-7.33,0-.69.05-1.37.1-2.04.02-.33.04-.67.07-.98,0-.17.02-.21.02-.2l-.05-.03c-.07-.03-.27-.27-.18-.23h0c.06.02.17.08.21.12.91-.3,1.58-.65,2.22-1.06.82-.54,1.48-1.15,2.07-1.78.18-.2.81-.87.98-1.15.22-.29.43-.56.64-.83.88-1.07,1.25-2.53,2.07-3.65.81-1.1,1.6-2.24,2.36-3.4.75-1.14,1.87-2.08,2.57-3.29.69-1.19,1.05-2.58,1.69-3.81l.27-.51,2.57-4.84-5.65-.64-.89-.1c-.11-.02-.11-.04-.16-.06-.08-.04-.14-.07-.22-.07-.17,0-.43.06-.64.06-.13,0,.05-.16.27-.3.15-.09.27-.16.38-.23,0,0-.58.09-.44-.1.05-.07.15-.15.23-.2l.11-.08s.01.02.27-.38c.75-1.15,1.9-2.08,2.61-3.29.7-1.21,1.06-2.6,1.69-3.84.07-.14.13-.28.2-.44l2.83-6.06-6.25-.03c-.31,0-.62.01-.94.04-.06.04-.08.1-.14.14-.1.1-.26.18-.36.18-.24,0-.41-.06-.63-.05-.13,0-.12-.06-.09-.12.1-.08.26-.19.29-.23.12-.15.73-.38.73-.38l.34-.52c.76-1.17,1.36-2.43,2.05-3.64.69-1.2,1.57-2.31,2.2-3.56.05-.11.1-.22.16-.36l2.94-6.74-6.57.29c-1.14.05-3.08.76-3.02.77-.32,0-.49-.16-.73-.15-.29.02.23-.45.54-.63l.04-.04c.04-.06.01-.13.05-.24l.04-.08c-.02.09.21-.6.28-.85.19-.7.41-1.42.54-2.13.16-.68.32-1.38.48-2.1.06-.23.22-1,.31-1.61.09-.66.17-1.29.25-1.92.3-2.64-.17-4.72-.13-6.9.02-1.12.2-2.4.37-3.76.08-.72.17-1.44.24-2.07l.02-.26c0-.08-.21.07-.31.09-.26.11-.51.22-.75.32-.55.25-1.04.46-1.54.69-2.11.97-4.25,2.19-6.09,3.28-.32.18-.32.21-.29.22v.09s-.04.17-.04.17c-.03.11-.09.2-.16.24-.29.16-.43.08-.62.18-.07.06-.02-.07-.03-.12.03-.24.09-.49.05-.6-.01-.04,0-.1.02-.15l.05-.08s-.08-.32-.11-.47c-.18-.75-.42-1.5-.78-2.2-.56-1.11-2.54-2.95-3.94-4.7-1.43-1.82-2.91-3.49-4.47-5.1l-.38-.39c-1.39,1.43-2.94,2.29-4.41,4.06-.79.96-1.45,2.12-2.06,3.22-.29.57-.57,1.14-.83,1.65-.15.34-.3.7-.48,1.02-.36.67-.6,1.41-.83,2.15-.11.38-.22.77-.32,1.13.06-.05.02.12.01.16-.06.24.06.77.08,1.2v.09c.04.27-.4-.35-.55-.58-.21-.32-.3-.57-.38-.61-.09-.04-.19.08-.38.16l-.15.05h-.04s-.31-.11-.31-.11c-.22-.09-.44-.17-.65-.25-.86-.34-1.67-.67-2.49-1.06-.83-.39-1.68-.84-2.59-1.35-.43-.24-.9-.51-1.4-.8-.2-.09-.58-.38-.64-.32l-.07.31c-.19.81-.37,1.7-.33,2.85.07,2.37.66,5.01.9,7.24.23,2.33,1.01,4.93,1.24,5.89.31,1.61.19,3.15.61,4.45.12.37.31.65.47.98-.87-.01-1.76,0-2.66.11-1.85.24-2.74,1.22-4.56,1.56l.04.06c.9,1.54.99,2.97,2.25,5.08,1.39,2.34,3.1,4.28,3.87,5.21,1.08,1.31,2.32,2.04,3.41,3.08.77.73,1.72,1.48,2.79,2.35-.38-.13-.77-.28-1.21-.42-.75-.25-1.55-.46-2.31-.57-2.13-.27-3.64.03-5.21-.07-1.3-.05-2.38.03-3.21.19.35.63.67,1.23.88,1.75.48,1.22-.18,2.3.92,4.52.38.77,1.04,1.61,1.72,2.44.36.44.71.89,1.03,1.28.3.36.47.6.69.95.25.42.53.88.82,1.34-1.32.19-2.58.45-3.9.54-1.55.1-3.37.06-5.23.13.24.54.51,1.12.81,1.72Z"/>
</svg>