<?xml version="1.0" encoding="UTF-8"?>
<svg id="b" data-name="Layer 1" xmlns="http://www.w3.org/2000/svg" viewBox="0 0 225.05 292.57">
  <defs>
    <style>
      .c {
        fill: #1a1a1a;
      }
    </style>
  </defs>
  <path class="c" d="M60.93,3.14c.04.45,0,.81.08,1.44.03-.36.23-.95.36-1.32-.07-.09-.34-.02-.44-.12Z"/>
  <path class="c" d="M60.93,3.14c-.02-.24.15-.49-.32-.56-.2.47.19.44.32.56Z"/>
  <path class="c" d="M70.47,2.92c-.11.62.15.72.2,1-.02-.54.04-.47-.2-1Z"/>
  <path class="c" d="M11.63,39.39l.56-.32c-.12.04-.49-.19-.56.32Z"/>
  <path class="c" d="M63.61,7.2c.03-1.51.1-1.37-.15-2.89.09,1.13-.23,1.22.15,2.89Z"/>
  <path class="c" d="M63.46,4.31c-.1-.58.26-1.65-.4-2.01-.8.98.39,1.89.4,2.01Z"/>
  <path class="c" d="M66.34,4.15c-.05-.69.23-1.4-.4-2.01-.69.99.32,1.66.4,2.01Z"/>
  <path class="c" d="M61.01,4.58c.04.29-.49.85.2,1,.45-.72-.2-.94-.2-1Z"/>
  <path class="c" d="M93.15,27.4c.03-.08.05-.16.06-.22l-.06.22Z"/>
  <path class="c" d="M134.55,85.48l.12-.43c-2.35-.89-2.6,0-.12.43Z"/>
  <path class="c" d="M132.52,77.34c-.17,1.06,1.2,1.04,1.52,1.36-.05-.04.17-.38.12-.44-.13-.15-.48-.39-.76-.68-.27-.12-.6-.15-.88-.24Z"/>
  <path class="c" d="M49.56,31.15c0,.06,0,.12.01.18,0-.06,0-.12-.01-.18Z"/>
  <path class="c" d="M49.53,30.83c.01.11.02.22.03.32-.01-.17-.02-.3-.03-.32Z"/>
  <path class="c" d="M119.96,63.09c-1.57-.72-3.31-.95-4.93-1.47-.42,1.13-.26.71.42,1.05,1.43.7,3.02,1.2,4.46,1.93.75.38,3.28,2.38,3.64,2.2,1.28-.63-3.16-3.52-3.59-3.72Z"/>
  <rect class="c" x="39.38" y="38.45" width="3.2" height=".45" transform="translate(-7.17 67.95) rotate(-74.64)"/>
  <path class="c" d="M115.43,108.42c-.9.35-8.58,4.21-8.03,5.16,1.06.08,2.63-.72,3.6-1.19,1.26-.62,4.02-2.07,5.09-2.82.31-.22,1.64-.76,1.3-1.3-.33-.53-1.46-.04-1.96.15Z"/>
  <path class="c" d="M137.9,103.48c-1.18.4-.89,1.12-.12.43.21-.18.42-.14.12-.43Z"/>
  <path class="c" d="M102.88,116.43c-.54.5-.92,1.06-1.03,1.8.44-.23,3.73-2.6,3.61-2.8-.28-.47-2.43.86-2.58.99Z"/>
  <path class="c" d="M101.42,114.55c-.87,1.34-3.52,2.62-3.96,4.12-.11.39.74.51.82.47.16-.08,1.62-2.27,2.29-2.85,1.28-1.11,3.33-1.86,4.18-3.43l-3.32,1.69Z"/>
  <path class="c" d="M75.17,35.68c.18-.48.84-1.47.02-1.59-1.97,3.74-2.98,8.78-2.96,13.03,0,.49-.26,1.37.4,1.44.35-4.83.81-8.33,2.54-12.88Z"/>
  <path class="c" d="M49.53,30.83c-.03-.32.48-.82.02-.95-.38-.11-.39.53-.46.83.04.09.42.04.44.12Z"/>
  <path class="c" d="M54.27,39.48c.1-.36.27-3.25.27-3.87,0-.42.03-1.67-.69-1.46l-1.46,12.17,1.88-6.83Z"/>
  <path class="c" d="M56.64,44.64c.89-2.36,0-2.6-.43-.12l.43.12Z"/>
  <path class="c" d="M51.06,45.95c.89-2.36,0-2.6-.43-.12l.43.12Z"/>
  <path class="c" d="M50.95,46.4c-.49.6-.28,1.86.07,1.44.49-.6.28-1.86-.07-1.44Z"/>
  <rect class="c" x="55.3" y="46.02" width="2.28" height=".45" transform="translate(-3.1 88.42) rotate(-74.64)"/>
  <path class="c" d="M54.91,47.49c.02-.53-.09-1.3-.08-1.44-.39.51.09,1.2.08,1.44Z"/>
  <path class="c" d="M49.61,32.28s-.02-.54-.04-.94c.02.33.02.63.04.94Z"/>
  <path class="c" d="M54.87,49.37c.03-.46.01-1.25.04-1.88-.01.35-.05,1.79-.04,1.88Z"/>
  <path class="c" d="M161.28,95.19c.33.58,2.01-.39,1.68-.96-.33-.58-2.01.39-1.68.96Z"/>
  <path class="c" d="M52.24,191.86c1.71-.72,2.39-2.85,3.31-4.3-1.63.77-2.64,2.67-3.31,4.3Z"/>
  <path class="c" d="M65.28,208.24c.26-.47.24-1.26.48-1.76-.05.1-1.62,1.64-.48,1.76Z"/>
  <path class="c" d="M48.09,203.53c-.46.7.93.47.7.89-.63,1.13-2.69,3.31-3.59,4.47,1.05.59,1.23-.44,1.78-1.08,2.95-3.44,5.31-7.36,8.14-10.88-1.2-.58-.81.14-1.25.7-1.12,1.4-3.23,4.5-4.33,5.51-.43.39-.87.57-1.44.4Z"/>
  <path class="c" d="M164.8,96.16c1.83.54,1.23-1.02,1.68-1.92.18-.36,1.43-1.11,1.17-1.56-.19-.31-1.59-.46-1.85.33.07.95-2.61,1.04-2.07,1.9.24.39,2.1-1.07,1.08,1.25Z"/>
  <path class="c" d="M64.38,175.27c.35.61,1.47-.02,1.12-.64-.35-.61-1.47.02-1.12.64Z"/>
  <path class="c" d="M165.76,97.84c.53.49,1.25.04,1-.19-.53-.49-1.25-.04-1,.19Z"/>
  <path class="c" d="M63.11,205.75l4.02-6.01c-1.27.64-2.62,2.8-3.45,4.07-.2.31-1.45,1.79-.58,1.94Z"/>
  <path class="c" d="M51.88,187.96c.42-.23,1.43-3.05,1.76-3.77-.73-.14-3.73,4.85-1.76,3.77Z"/>
  <path class="c" d="M48.13,192.79c-.79,1.24-1.55,2.62-1.99,4.03.6.28.81-.6,1.08-1.02.78-1.2,1.4-2.55,2.13-3.78-1.23-.58-.8.11-1.22.77Z"/>
  <path class="c" d="M153.57,87.87l-2.55-.23c.33.65-.1,1.53-.04,1.88.29.06.59.21.88.24.05-.02.11-.05.16-.08.14-.1.31-.26.4-.24.32-.26,1.16-1.13,1.15-1.57Z"/>
  <path class="c" d="M77.37,33.02c-2.86,3.72-4.05,10.49-3.17,15.02.41-3.28.9-6.56,1.28-9.84l2.15-4.39c-.1-.17.69-1.27-.26-.79Z"/>
  <path class="c" d="M73.48,35.99c-1.95,1.89-2.26,6.15-2.44,8.83-.03.5-.36,1.43.31,1.49l2.13-10.32Z"/>
  <path class="c" d="M89.54,50.83c.49-.6.28-1.86-.07-1.44-.49.6-.28,1.86.07,1.44Z"/>
  <path class="c" d="M70.75,48.51l.43.12c.89-2.36,0-2.6-.43-.12Z"/>
  <path class="c" d="M157.62,87.79l1.26.58.24-.88c-.61-.32-.97-.06-1.5.3Z"/>
  <path class="c" d="M157.83,90.45c.66-.32-1.59-2.39-.82-3.74.6-1.05,2.17.4,2.47-.54-.96-.78-1.82-.58-2.64-.73-.25.33-.7.8-1.01,1.14-.03.12-.14.24-.35.39-1.11,2.02.64,2.94,2.36,3.49Z"/>
  <path class="c" d="M67.91,46.79c-.37,1.61-.5,2.05-.53,3.65.47-1.63.42-2.24.53-3.65Z"/>
  <path class="c" d="M169.57,96.05c.22.09.84.27.88.24.71-.49-.4-2.15-.88-.24Z"/>
  <rect class="c" x="69.85" y="50.02" width="2.28" height=".45" transform="translate(3.74 105.38) rotate(-74.64)"/>
  <path class="c" d="M66.42,5.6c-.01-.54-.04-.93-.08-1.44.04.19-.08.72.08,1.44Z"/>
  <path class="c" d="M42.56,135.61l.88.24.15-1.38c-.58.27-.99.45-1.02,1.14Z"/>
  <path class="c" d="M45.94,128.49c-1.16-.56-3.28.68-3.37,1.92l3.37-1.92Z"/>
  <path class="c" d="M40.15,161.8c-.33.91-.65,1.12.55,1.28l2.58-5.93c-1.31.52-2.66,3.36-3.12,4.65Z"/>
  <path class="c" d="M35.04,143.98c-.12-.47-.8-1.66-1.05-1.99-1.88-2.48-.93,1.46,1.05,1.99Z"/>
  <path class="c" d="M30.75,147.55c.43.94,1.1,2.11,1.77,2.89.3.35.92,1.2,1.14.28-1.45-.71-1.1-2.83-2.91-3.17Z"/>
  <path class="c" d="M49.27,147.42c-1.38-.7-1.79,1.96-2.16,2.72l2.16-2.72Z"/>
  <path class="c" d="M40.31,136.89c1.01-1.8,2.4-3.23,3.89-4.61-2.02.57-2.54,2.21-3.57,3.39-.21.24-2.56.39-.31,1.22Z"/>
  <path class="c" d="M44.13,154.07c-.49.6-.28,1.86.07,1.44.49-.6.28-1.86-.07-1.44Z"/>
  <path class="c" d="M45.49,167.25c-2.12,1.48-3.54,4.48-4.92,6.7,2.32-1.51,3.7-4.33,4.92-6.7Z"/>
  <path class="c" d="M46.29,151.34c-.11-.62-1.53,1.29-1.48,1.96,1.07,0,1.32-1.12,1.48-1.96Z"/>
  <path class="c" d="M43.09,166.27c-1.61,2.37-3.46,4.91-4.41,7.63,1-.23,1.85-1.84,2.37-2.69,1.09-1.75,1.79-4.05,3.25-5.72-1.25-.59-.79.16-1.21.78Z"/>
  <path class="c" d="M44.63,160.85l1.41-3.41c-.82.11-3.34,3.44-1.41,3.41Z"/>
  <path class="c" d="M39.31,137.1c-.49.53-.04,1.25.19,1,.49-.53.04-1.25-.19-1Z"/>
  <path class="c" d="M12.95,181.3c.36,1.39,1.3.67.94.02-.02-.04-.89-.42-.94-.02Z"/>
  <path class="c" d="M32.81,140.05s-.89-.42-.94-.02c.36,1.39,1.3.67.94.02Z"/>
  <path class="c" d="M22.52,187.01l-.12.44c.33-.07.37-.22.12-.44Z"/>
  <path class="c" d="M32.07,186.98c-.97-.81-2.73-1.81-3.96-2.22.67,1.73,3.12,2.41,4.46,3.6.6.02-.44-1.33-.5-1.38Z"/>
  <path class="c" d="M20.33,185.46l-1.51-2.1c-.21-1.06-2.29-1.34-1.65-.19.09.17,2.66,2,3.16,2.3Z"/>
  <path class="c" d="M24.61,192.33c-1.99-2.73-5.31-4.58-7.68-6.89-.3-.29-.26-.7-.35-.8-.72-.74-1.38-1.83-1.65-.19,3.41,2.28,5.84,6.38,9.69,7.88Z"/>
  <path class="c" d="M21.52,148.33c.17-1.15-.16-2.48-.7-3.5.02.94,0,2.84.7,3.5Z"/>
  <path class="c" d="M24.85,157.78c.33.43.69,1.3,1.1.31-1.44-.6-1.59-2.21-2.11-3.45l-3.49-5.45c1.28,3.06,2.47,5.95,4.5,8.59Z"/>
  <path class="c" d="M29.48,140.08c.53.49,1.25.04,1-.19-.53-.49-1.25-.04-1,.19Z"/>
  <path class="c" d="M32.2,142.26l-2.01-1.27c.66.45,1.38,3.51,2.01,1.27Z"/>
  <path class="c" d="M24.22,147.17c.26-.11-.45-1.38-1.08-1.24-.26.11.45,1.38,1.08,1.24Z"/>
  <path class="c" d="M32.58,130.5c-1.61-.77-.98,1.2-.38,2.26l.38-2.26Z"/>
  <path class="c" d="M30.77,57.69c-.15.47.68.27.83.46-.06-.06.18-.38.12-.44-.07-.08-.89-.4-.95-.02Z"/>
  <path class="c" d="M31.6,58.15c.04.05.07.12.11.18-.03-.07-.07-.14-.11-.18Z"/>
  <path class="c" d="M52.94,175.46c.15-.09,1.16-2.46,1.29-2.96-.89-.34-3.06,4.03-1.29,2.96Z"/>
  <path class="c" d="M52.56,81.93c.11-.04.43.23.56-.32-.21.06-.4.28-.56.32Z"/>
  <path class="c" d="M56.99,80.46c.08-.02.17-.04.27-.08-.09.03-.18.06-.27.08Z"/>
  <path class="c" d="M15.15,169.35c.89,1.21,1.96,2.46,3.26,3.27,1.07-.9-1.51-2.18-2.1-3.1-.15-.24.14-.7.09-.78-.34-.17-1.26-.25-1.32-.36.03.04-.24.55.07.97Z"/>
  <path class="c" d="M51.56,82.13c.52-.02.55-.04,1-.2-.29.07-.55-.1-1,.2Z"/>
  <path class="c" d="M31.92,58.72c-.08-.12-.14-.25-.21-.38.07.15.12.32.21.38Z"/>
  <path class="c" d="M34.75,22.51c-.53-.49-1.25-.04-1,.19.53.49,1.25.04,1-.19Z"/>
  <path class="c" d="M32.98,27.24c-.28-.97-.35-1.2-1.52-1.37-.12,1.09,1.03,1.02,1.52,1.37Z"/>
  <path class="c" d="M13.74,158.53c-.27,1.37-.3,1.99.94,2.62-.22-.81-.05-1.78-.94-2.62Z"/>
  <path class="c" d="M33.58,30.24c.17-.11-.44-1.16-.52-1.56-.25-.11-.6-.16-.88-.24.22.39.36,1.09.52,1.56.29.03.59.19.88.24Z"/>
  <path class="c" d="M31.94,60.38c.12.7.88.76,1.14,1.03-.1-.07-.05-.78-.2-1-.28-.11-.86-.4-.94-.02Z"/>
  <path class="c" d="M13.85,183.21c.35.61,1.47-.02,1.12-.64-.35-.61-1.47.02-1.12.64Z"/>
  <path class="c" d="M54.2,169.16c-1.35.24-1.95,2.03-2.28,3.17,1.28-.23,1.83-2.13,2.28-3.17Z"/>
  <path class="c" d="M48.27,171.8c-.49.53-.04,1.25.19,1,.49-.53.04-1.25-.19-1Z"/>
  <path class="c" d="M43.08,180.33c.35.61,1.47-.02,1.12-.64-.35-.61-1.47.02-1.12.64Z"/>
  <path class="c" d="M47.08,173.94c-1,1.43-2.21,3.17-2.63,4.87.61.17,1.26-1.04,1.57-1.48.88-1.28,1.53-2.75,2.32-4.08-1.16-.55-.81.05-1.26.69Z"/>
  <path class="c" d="M38.55,174.35c-.37-.65-1.92.53-1.68.96.24.43,2.05-.31,1.68-.96Z"/>
  <path class="c" d="M48.51,184.29c-1.04,1.16-2.13,2.41-2.62,3.92,1.6-1.15,2.99-2.87,3.88-4.61-1.21-.6-.81.19-1.26.7Z"/>
  <path class="c" d="M44.16,189.73c-.64.93-4.74,6.35-4.56,6.71.4.79,1.35-.4,1.62-.75,1.44-1.89,2.84-4.62,4.21-6.66-1.16-.55-.81.05-1.26.69Z"/>
  <path class="c" d="M20.6,159.46l-.12.44c.33-.07.37-.22.12-.44Z"/>
  <path class="c" d="M20.97,160.74l1.43,2.53c.36.16.48-.75.45-.81-.05-.12-1.55-1.42-1.89-1.72Z"/>
  <path class="c" d="M37.05,148.8c.35.61,1.47-.02,1.12-.64-.35-.61-1.47.02-1.12.64Z"/>
  <path class="c" d="M41.89,181.2c-.16.37.78.48.82.46.64-.37.2-1.47-.82-.46Z"/>
  <path class="c" d="M26.04,159.53c.08.07,1,.62,1.25.59-.28-1.32-1.64-.95-1.25-.59Z"/>
  <path class="c" d="M158.89,212.61c1.05.34,2.87.33,3.12-1.03-1.01.3-2.37.12-3.12,1.03Z"/>
  <path class="c" d="M141.67,199.35c-.78.29-.88.15-1.24,1.08.73-.48.55-.1,1.24-1.08Z"/>
  <path class="c" d="M141.67,199.35c.3-.11.7-.09,1-.2,1.47-1.78,5.02-6.52,6.39-7.73-3.19,2.98-4.81,4.26-7.39,7.93Z"/>
  <path class="c" d="M117.43,235.84c2.97,0,6.68,1.77,9.42.22-2.67.04-5.61-.88-8.14-.88-.81,0-1.14-.66-1.28.66Z"/>
  <path class="c" d="M167.71,209.82c-.22-.31-2.48.25-2.96.38-.29.08-1.81-.06-1.17.85.22.31,2.48-.25,2.96-.38.29-.08,1.81.06,1.17-.85Z"/>
  <path class="c" d="M149.06,191.42c.06-.05.22.15,1.12-.64-.06.05-.18-.25-1.12.64Z"/>
  <path class="c" d="M125.8,214.31c-.75.08-1.12-.58-1.24.73,3.29-.28,6.53.5,9.8.55.54,0,1.42.42,1.5-.28-3.12-.87-6.84-1.35-10.06-.99Z"/>
  <path class="c" d="M162.02,187.39c.06-.04.59.06,1-.2-.25.08-.57.04-1,.2Z"/>
  <path class="c" d="M129.03,228.12c1.17.09,3.39.64,4.32-.23-.96-.16-4.03-1.46-4.32.23Z"/>
  <path class="c" d="M39.33,21.39c0-.28.3-.74.24-.88-.04-.09-1.27-1.04-1.57-1.15.37.74.75,1.43,1.33,2.03Z"/>
  <path class="c" d="M113.85,239.06c-.81,0-1.14-.65-1.27.66,2.47-.02,5.02.76,7.48.38.76-.12,1.07.35,1.17-.84-2.47.33-4.94-.19-7.38-.2Z"/>
  <path class="c" d="M138.54,224.57c2.16.32,5.29.79,7.21-.38-1.94-.28-3.93-.17-5.9-.21-.79-.02-1.17-.8-1.32.6Z"/>
  <path class="c" d="M133.8,228.01c.8.29,1.9.66,2.44-.27-.55-.39-2.92-.14-2.44.27Z"/>
  <path class="c" d="M161.46,187.71c.06-.03.11-.07.17-.1-.07.04-.14.07-.17.1Z"/>
  <path class="c" d="M163.59,186.88c.17-.05.61.23.88.24.21-2.74-.78-.32-.88-.24Z"/>
  <path class="c" d="M153.43,194.52c-.62.19-.48.25-.68.76.68-.33.46-.49.68-.76Z"/>
  <path class="c" d="M155.36,192.68c-1.46.76-1.06.8-1.93,1.84,2-.61.82-.29,1.93-1.84Z"/>
  <path class="c" d="M196.18,187.29c-.68-1.19-1.04.6-1.12.64.08-.05,1.79.55,1.12-.64Z"/>
  <path class="c" d="M67.19,273.74l-.88-.24-.36,1.32c.68.03,1.21-.43,1.24-1.08Z"/>
  <path class="c" d="M205.12,189.27c-2.97-1.84-6.78-4.56-10.09-5.61-1.68-.53-3.28-.32-4.55-.72-.79-.25-.35-.99-.69-1.18-2.36-1.3-5.01-.37-6.35-.82-.85-.28-.87-1.32-1.49-1.72-2.48-1.6-4.13-.05-6.02-.33-2.81-.42-2.98-1.82-7.05-1.33-1.96.24-3.31.37-5.27.54-11.81,1.01-27.88,25.1-38.65,32.1-20.05,13.03-33.95,25.5-49.22,44.24-5.24,6.42-9.89,13.14-14.44,20.06-.63-.03-.37-.6-.4-1.06-1.41-21.29,11.28-50.62,20.05-70,3.02-6.67,13.39-30.6,17.64-34.38.87-.77,5.5-4.04,6.44-4.34,2.42-.79,2.49.22,4.48.72.92.23,1.96-.01,2.75.25,1.17.4,1.78,2,3.16,2.27.46.09,5.05.15,5.65.09,5.43-.61,12.5-6.56,18.15-7.97,2.47-.62,5.46-.08,7.97-1.68,1.12-.71,1.93-2.37,2.9-2.75,1.35-.52,4.44.1,6.36-.59,3.98-1.44,9.88-10.45,11.32-14.44,1.95,3.19,4.77,5.56,7.13,8.4,1.72,2.08,1.69,4.39,5.1,4.95,1.88.31,3.83-2.15,4.12-3.83.31-1.76-1.22-4.13-1.18-5.69.07-2.68,1.34-5.98.93-8.89,2.34,3.51,4.91,6.33,4.86,10.8-.02,1.7-1.47,6.22.48,6.77,3.64,1.02,3.58-3.51,4.26-3.97.15-.1,1.14.2,1.91-.22.83-.45,1.32-1.67,2-2.21.59-.48,1.61-.48,2.31-1.34,2.37-2.89,2.02-10.36,1.92-14.18-.04-1.43-.42-3.23-.58-4.69,1.96.32,3.49,1.46,5.38,1.98,2.38.65,4.68.54,7.18,1.47,1.11.42,2.83,1.85,3.67,1.88,1.4.04,2.59-3.46,4.58-3.41l1.21-4.41s1.35-.2,1.87-1.47c.52-1.27-.54-3.38-.54-3.38-1.03-2.2-3.34-3.92-4.53-5.79-.78-1.24-1.25-3.78-2.05-4.78-.54-.68-1.97-1.22-2.14-1.76-.24-.75.5-2.15.46-3.24-.02-.5-.72-3.94-.94-4.3-1.49-2.44-4.93-1.8-5.15-2.09,1.79-1.4,2.9-6.5,1.69-8.39-.14-.22-3.63-3.35-3.99-3.5-1.53-.62-2.19-.57-3.78-.44,2.01-1.09,3.46-6.19,2.48-7.93-.36-.64-1.16-1.05-1.58-1.71-.42-.67-.43-1.68-1.12-2.52-2.01-2.47-6.46-5.37-9.72-4.13-2.33.88,1.29,2.85,1.13,3.44-1.1-.11-8.34,3.99-8.55,3.58-.51-.97.97-.7,1.19-.97,1.76-2.17,4.13-7.47,3.82-10.26-.28-2.57-3.91-8.88-7.13-7.86l.15-1.38c-1.42-.75-.81.82-1.43,1.41-.19.19-1.53.24-2.12.55-.71.37-4.09,2.42-4.37,2.75-.84,1.02,3.22.78,3.7.74.1-.01,2.27-1.6,1.83-.17-.36,1.19-6.52,4.69-7.42,6.25l.24-8.12c-.35-3.38-3.99-6.92-6.98-8.31-2.43-1.13-3.47-1.77-5.8-3.02-5.29-2.84-6.6-1.87-8.72,3.66-1.46-1.17-2.64-2.67-4.19-3.75-2.3-1.61-2.4-1.3-4.51-1.69-1.51-.28-2.6-2.2-5.7-1.91-.68.06-.81.69-1.18.68-.88-.01-1.63-.72-2.71-.29-1.48.59-3.56,4.77-3.12,6.31.22.78,2.35,1.65,2.27,2.98-2.37-1.67-6.88-4.66-9.72-5.02-.93-.12-3.94.85-4.87,1.27-.85.39-1.04,1.24-1.75,1.16.3-2.83.56-5.69.92-8.52.16-1.29.86-2.51.96-3.89.15-2.11-1.53-4.57-.87-6.99.71-2.6,1.73-1.46,3.24-2.22,3.65-1.84,3.15-6.19-.38-7.94-1.36-.67-2.78-.37-3.31-.68-.75-.45-.66-2.63-1.31-3.36-.76-.86-2.62-1.23-3.65-2.02-1.08-.83-2.14-2.74-3.53-3.94-1.78-1.55-3.88-2.56-5.7-4.01l-6.61-1.82c-1.14.68-2.52.06-3.74.29-1.39.27-6.99,1.59-7.83,2.11-.58.36-1.31,1.58-1.41,1.62-.23.09-3.08-2.17-4.25-2.6-1.08-.39-2.57-.22-3.11-.48-.41-.2-1.67-2.35-2.47-3.02-3.46-2.89-12.55-4.9-15.85-.83-1.27,1.57-.68,1.51-.15,2.68.67-1.3.21-1.29,1.61-2.4.33-.26.85-.12,1-.2.09-.04.06-.74.28-.84.29-.14,1.09.8,1.16.77.12-.05,0-1.39,1.12-.64-.4,1.31.68,2.61.92,3.57.02-1.41.16-2.48-.35-3.89l1.2.8.58-1.26c.24,1.3,1.17,3.09,1.46,4.19.08-1.25-.02-2.12-.03-3.33l1.2.8.25-.88c.08-.04,1,1.06,1.08,1.24.24-1.41.69-.69,2-.39-1.61,2.88,0,6.75-1.34,10.06-.69-.07-.32-.98-.3-1.5.07-1.65.55-3.47.45-5.1-.06-.94-.51-1.49-.62-2.06.03.85-.1,3.09-.19,4.02-.04.46-.1,1.72-.81,1.39.05-1.78.11-3.58-.08-5.35-.06-.52.24-1.35-.43-1.42l-.42,8.42-.33-5.2c.14-.38-.41-.66-.42-.7-.17,2.64-.13,5.31-.74,7.86l-.25-6.38c.08-.43-.54-.82-.57-.96.01.69.04,7.12-.72,6.92.01-2.56-.01-4.9-.61-7.28-.04,2.42-.17,5.02-.62,7.41-.97-1.06,0-3.07-.28-4.5-.11-.56-.57-.85-.59-.95-.03,1.24.02,2.84-.14,3.99-.07.46-.16,1.74-.86,1.42.33-3.13.3-7.38-.99-10.23-.09.29-.14.6-.24.88.93,1.28.46,1.42-.16,2.33-1.26,1.8-1.47.99-2.2-.61-1.34,2.59-3.35-.34-5.2-.97-3.44-1.18-5.88,2.22-9.25,2.71l-1.89,4.21-8.77-3.38c-2.69-.67-6.92,1.95-8.55,3.98-2.7,3.38-2.15,7.55-6.97,9.98-1.11.56-2.62.52-3.4.91-.26.13-.23.67-.32.73.41-.24,7.59.84,7.37,2.49l-5.17-1.88,3.6,2.4c-1.41-.16-2.52-.8-3.76-1.4-.81-.39-.54-.11-.77.63,1.53.62,3.13,1.25,4.58,2.05.56.31,2.1.9,1.99,1.65-1.57-.7-3.08-1.25-4.73-1.77.03.03-.14.32-.06.39.6.48,2.26.17,2.02,1.09-2.09-.32-3.94-.21-5.73-1.57-.76,1.7,2.92,1.36,3.72,1.97-.72,1.33-3.15-.57-3.88.35l5.73,2.07,1.27,1.75c-2.68-1.13-5.25-2.6-8.13-3.17l6.51,3.92c-2.32.21-4.1-1.68-6.34-1.98-.83-.11-.68-.34-.9.71l6.17,1.69s-.27.56-.09.78c.47.56,1.88.44,1.81,1.59-1.27-.38-2.32-1.06-3.6-1.48-.51-.17-2.36-.98-2.57-.21l5.05,2.34c-1.3,1.09.18.51.07,1.43-.89-.53-1.72-.92-2.71-1.24-.73-.23-2.92-1.15-3.45-.45l5.76,2.12,4.33,2.55c-3.31.34-7.69-3.78-10.58-2.9l5.67,2.17,3.99,2.38-9.26-2.54,8.64,3.45,6.06,3.43c-.13.85-.96.07-1.4-.13-1.2-.54-2.26-1.29-3.53-1.72-.48-.16-1.59-.75-1.68.02,1.73,1.1,2.49,1.93,4.72,1.78l-1.5.29,1.14,1.02-2.32-.16c2.65,1.08,5.91,1.61,6.76,4.7-2.96-3.17-3.32-1.82-6.39-1.71-2.08.08-8.73-4.06-9.97-5.89-1.53-2.26-1.18-4.43-1.48-6.78-.27-2.08-1.02-3.96-.63-6.16.43-2.45,2.08-4.56,2.38-7.12,1.45.44,2.96.76,4.41,1.21-.02-.02.23-.36-.13-.53-.76-.36-4-.87-4.15-1.13.19-.43,1.04-2.45,1.16-2.52-.75.56-1.25.31-1.85,1.66-2.73,6.15-3.48,11.37-2.2,17.95.26,1.33.97,3.11,1.81,4.18,1.64,2.08,7.82,5.65,10.4,5.94.97.11,1.87-.4,2.92-.16,3.49.79,1.85,4.36,2.65,6.7.38,1.1,5.2,8.07,6.12,8.79,2.18,1.73,4.72,1.67,7.02,2.7,5.24,2.32,10.09,5.71,15.99,6.71-.93.54-2.21,2.55-3.11,2.7-.99.17-1.9-.46-2.86-.44-2.62.04-3.69,1.56-5.75,2.31-1.56.57-5.76,1.87-7.1,1.18-.25-.13.07-1.72-.91-1.21-.08.04-.99,1.52-.93,1.64.07.14,2.28,1.55,2.6,1.69,5.87,2.48,6.88-.75,10.99-1.02,3.52-.23,5.77-.05,9.55-.86,1.77-.38,3.68-1.29,5.73-1.36l-.73,7.86c-.66-.37-5.45-1.67-4.77.11.26.69,4.87,1.8,5.03,2.92l-4.56,62.66c-.83-.08-.03-.83-.23-1.34-.14-.35-.68-.55-.87-1.18-.27-.92-.12-2.8-.76-3.67-.94-1.28-2.63-2.17-3.52-4.31-.43-1.05-.99-4.53-1.28-4.86-1.32-1.48-1.2.79-2.41.07.93-3.27-1.16-7.92-2.46-11.06-.27-.65-1.04-1.1-1.33-1.84-.63-1.57.06-3.53-.34-5.02-.26-.97-1.1-1.28-1.34-1.94-1.2-3.32-.64-7.18-.08-10.35,1.49-8.47-3.6-.19-5,1.36-.39.43-1.63.67-2.65,2.05-.67.92-1.65,3.43-1.85,3.61-.25.21-1.13-.02-1.57.16-1.36.53-4.62,8.41-5.93,10.2-.36-.27-.77-.7-1.24-.62-2.1.39-5.48,9.23-5.98,9.48-.76.38-2.11-1.49-3.37,2.26-1.04,3.12-1.66,4.62-3.05,7.71-.26.58-.59,2.27-.71,2.36-.1.08-1.36-1.59-2.21-.29-.91,1.49-3.61,12.85-4.19,13.24-.33.22-1.51-2.08-2.52.48-1.37,3.45-.77,9.12-1.6,12.85-.21.5-1.17-.43-1.49.09-1.21,1.98-.6,8.67-1.12,11.12-.17.81-.92.29-1.13.66-1.24,2.21.26,8.85.27,11.72,0,1.03-.69,1.62-.68,2.55.01,1.12,2,6.11,2.56,7.52.22.57.93.99.96,1.12.17.69-1.04,1.34-.87,2.5.04.28,2.09,4.95,2.28,5.24.58.87,3.13,2.54,3.02,3.64-.06.58-.95,1.21-.81,1.78.05.2,2.13,3.04,2.38,3.31.93,1.04,4.83,3.11,5.04,3.64.22.55-.7,1.79.27,2.26,4.49,1.72,9.36,5.11,13.8,6.64,3.53,1.22,13.24.4,15.33,3,.24.3.26,1.15.59,1.7,1.96,3.28.95,2.63,1.69,5.75,2.4,10.24,5.46,20.77,7.55,31.04.34,1.66.23,9.68.73,10.19.85.87,1.85.76,1.95-.54.17-2.18-.07-8.39-.55-10.48-1.45-6.24-4.93-13.91-5.8-20.51-.15-1.11-.35-2.14.12-3.23l1.54,3.4-.35,2.62c2.13,1.2.81-1.37,2.56-.72.23,2.03-1.65,1.58-1.98,2.09-.58.89,1.85,5.9,2.19,7.28.16.64-.02,1.93.04,2.02.12.17,1.62.56,1.69.52.85-.46-.87-6.38,2.25-6.49-.84,1.66-1.76,1.82.22,2.67l-1.67,2.62,1.88.04c.12.23-3.4,3.23-.08,3.77l-1.61,2.4c2.19,1.02,4.24-.34,5.88-1.75,1.06-.92,4.19-4.25,4.83-5.31.57-.95.17-1.64.49-2.33,2.9-6.19,8.1-12.38,12.69-17.63.45-.52.05-1.29,1.26-.69-2.47,4.06-5.48,7.92-7.83,12.06-1.97,3.46-5.06,11.92-7.87,14.1-.6.47-1.57.28-2.14.99-.99,1.23.63,1.98,1.13.02,1.03.3-2.4,3.83-3.27,2.42l1.45,1.59c-1.2.27-2.34,1.9-3.2,2.24-.7.27-2.41-.3-1.9.86.04.1.69.1.77.28.23.54-1.86,1.97-2.08,2.68,6.39-.67-.25,1.58.28,2.45.26.43,1.79.09,2.22-.33l-1.14,1.57c1.94-.44,1.08.63,1.48.88,2.72,1.66,1.5-2.26,1.66-3.6.35-3.01,1.46-2.41,2.3-3.73,3.14-4.93,6.12-11.6,9.09-16.72,2.17-3.73,7.5-13.74,10.55-15.79,6.31-4.23,17.53-2.52,24.12.34,2.18.95,4.62,4.06,7.35,4.36,1.22.13,1.81-1.01,2.78-1.04,1.51-.06,3.09.67,5.09.44.79-.09,5.96-1.52,6.41-1.87.75-.58.3-1.36.43-1.49.24-.23,4.84-2.03,6.09-2.65.68-.34,3.2-.96,3.32-1.08.53-.53-.17-2.09.36-2.59.13-.13,1.02-.02,1.47-.35,1.36-1.01,5.01-3.7,5.82-4.84.38-.54.26-1.67.89-2.01.43-.23,1.19.03,1.73-.23.27-.14,4.31-3.45,4.7-3.83,2.39-2.31.55-2.71.58-2.93.15-1.31,5-5.2,5.9-6.61.78-1.22.45-2.44.87-3.12.73-1.19,4.8-3.72,6.19-5.37,1.23-1.47,1.52-3.2,1.95-3.73,1.23-1.5,5.24-3.57,6.87-5.61,1.84-2.32.53-3.57.68-3.71.04-.03.46.23.96-.1,3.52-2.29,4.56-5.42,6.78-8.21.81-1.02,4.68-1.79,6.23-2.78,1-.64,1.48-1.88,2.54-2.07,2.8-.51,7.28,2.05,10.13,2.44l4.79-.2c-.15-2-3.57-4.21-3.57-4.21ZM41.29,85l4.13-1.23c-.99.93-2.78,1.65-4.13,1.23ZM73.09,210.86c-.23-1.37,1.77-2.72,2.36-1.72.37.63-1.52,2.37-2.36,1.72ZM74.93,193.63c.13-1.43-2.08-13.83-2.75-14.82-.34-.5-1.12-.57-1.38-1.15-.6-1.33-1.52-6.92-2.26-7.92-.51-.7-1.6-.74-2.2-1.72-.6-.97-.56-3.63-1.27-4.86,3.37-18.54,3.41-37.28,4.84-55.95.24-3.22.55-11.75,1.38-14.22.45-1.35,2.68-2.16,3.55-4.28.86-2.09.33-3.2.54-5.26,1.66.87,4.06.7,5.61,1.16,1.26.38,2.48,1.55,3.73,1.84,1.65.38,3.22-.71,4.11-.64.75.05,1.3.81,1.98.89,1.54.18,4.11-.39,5.29.77.68.67-.1.74-.53,1.05-2.35,1.71-8.13,4.65-8.01,7.9.02.63.7,1.15.73,1.82.03.8-.74,2.13-.21,2.72.59.67,10.83,4.29,12.31,4.55,2.11.38,4.25.01,6.35.06-2.6,1.45-4.04,3.97-5.95,5.89-2.26,2.27-5.04,3.53-6.49,6.95-.63,1.5.27,4.66,1.96,4.29.12-.03.22-.67.47-.6,2.99.92,3.78-.79,6.43-1.25.52-.09,4.48-.23,4.62-.05-1.2,1.95-3.16,5.12-3.48,7.36-.11.75.47.69.59,1.23.08.35-.24.91-.07,1.46.11.35.64.55.77.88.16.42-.35,1.1.04,1.3,1.17.59,3.47.16,4.71-.24,2.66-.87,4.27-3.67,6.89-3.24-18.16,21.03-31.35,45.87-42.13,71.41-1.73-2.82-.41-4.72-.16-7.35ZM71.39,217.04c-.1,1.06-.89,1.73-1.92,1.84.37-1.03.83-2.52,1.92-1.84ZM67.94,222.73c2.22.31.22,3.3-.54,3.64-1.83.82.55-3,.54-3.64ZM68.9,215.29c-.08.1-.72-.06-1.07.41-.9,1.21-1.72,2.7-2.64,3.84-.31.38-.87,1.3-1.42,1.09.81-1.8,2.56-3.2,3.25-5.08.33-.91.64-1.13-.55-1.29-.71,1.55-1.75,3.23-2.8,4.57-.48.61-3.17,4.02-3.41,4.15-.35.19-1.08-.11-.7-.91.4-.84,1.72-1.48,2.41-2.31.73-.89,5.76-7.18,5.54-7.59-.27-.5-1.38.15-1.76.49-1.28,1.15-4.68,6.99-5.64,7.43-1.02.47-.79-.74-.59-1.37.86-2.78,4.27-4.95,5.75-6.9,1.26-1.64,2.51-4.54,3.62-6.39.77.08.19,1.22.01,1.66-.29.7-1.89,2.92-1.79,3.06.04.06,1.26.4,1.32.37.35-.19,2.95-6.26,3.61-7.08.29.08-.19,5.15-.38,5.83-.15.53-2.56,5.75-2.76,6.01ZM60.67,224.99c-.84-.12-.13-1.04.13-1.4.56-.78,1.92-2.18,2.84-2.52l-2.97,3.92ZM60.97,226.51c-.06.3-1.07,1.52-1.15,1.57-.87.48.18-1.65,1.15-1.57ZM62.06,199.68c-.45.6-.07,1.26-1.26.69,1-2.45.37-6.29,2.66-8.06.86-.66,3.4-.56,3.6-.88,1.22-1.97-1.51-.57-2.42-1.62.98-1.04.97-2.61,1.61-3.7.75-1.29,6.8-4.77.15-2.68,1.74-2.26.36-1.87.18-2.91-.24-1.39.65-5.68.13-6.02-.92-.6-.9.8-1.08,1.36-.33,1-.51,2.02-.89,3.02-.18.48-.87,2.37-1.5,2.25l.87-11.84c1.25-.63.79,1.07,1.36,1.82,3.52,4.66,1.93,5.18,3.71,8.96.27.56,1.04.63,1.35,1.17.6,1.04,1.11,5.46,1.11,6.83,0,.55-.45,1.81-.4,1.89.13.22,1.45.17,1.7.52.28.38-.75,8.11-1.08,9.28l1,1.56c-2.11-1.26-1.4,2.21-3.25,1.48.4-1.57.75-3.5.8-5.11.03-.95-.47-1.81-.44-2.73.06-1.77.69-3.62.6-5.57-.04-.8.52-1.11-.74-1.23-.51,1.47-.69,3.14-1.31,4.57-.6,1.39-4.72,7.63-4.53,8.05.44.99,1.1-.29,1.32-.58,1.12-1.48,1.62-4.07,3.45-4.74-.03,2.02.12,5.34-.51,7.22-.31.93-1.66,1.88-2.51,3.81.12-.25.83-.61.81-1.2l.43.12c-.03.79-.92,2.93-1.72,2.84-.32.58-.44,1.35-.96,1.88l-4.74,5.09,1.36-13.57c1.74-.57,2.83-3.28,3.72-4.95-1.33.3-1.85,2.01-2.59,2.99ZM62.47,187.35c.03-1.48.34-4.09,1.02-5.34.13-.23,1.47-.22,1.32-1.4,1.66,2.45-1.64,5.42-1.75,8.05-1.39-.15-.61-.53-.6-1.31ZM62.72,189.05c.78.95.48,2.04-.82,2.14l.82-2.14ZM47.05,224.58c.26-1.67,1.32-2.91,2.23-4.25,1.35-1.99,3.37-4.71,5.32-6.01l-.33,2.45-7.22,7.8ZM46.55,226.34c-.35.42-.56-.84-.07-1.44.35-.42.56.84.07,1.44ZM45.62,223.71c-.68-.81-.29-1.14,0-1.9,1.36-3.53,5.23-8.93,7.97-11.57.49-.47.22-1.14,1.33-.57-1.84,5.26-6.88,8.87-9.3,14.04ZM48.73,214.14c-1.43,1.9-2.65,3.99-3.81,6.06-.79-.1-.18-1.17,0-1.65,1.75-4.85,3.98-6.18,7.05-9.84,1.03-1.23,1.66-3.25,3.29-3.69-.8,3.56-4.27,6.13-6.52,9.12ZM48.93,209.91c1.08-2.28,2.94-5.01,5.24-6.14-1.45,2.24-3.13,4.47-5.24,6.14ZM44.25,211.53c-.39.34-.54,1.18-.6,1.21-.25.13-.86-.33-1-.74-.64-1.97,8.88-13.23,8.44-14.29-1.08-.54-.84.03-1.34.56-2.05,2.14-3.65,5.13-5.4,7.55-.2.28-.57,1.3-.84.48,2.44-4.94,5.77-9.29,8.59-13.99-.63-.15-1.24.91-1.64,1.35-3.21,3.56-6.26,8.17-8.33,12.5-3.57-1.29,3.3-7.28,3.06-7.69-1.75-.36-3,1.42-3.62,2.79-.73-.07-.31-.75-.13-1.21,1.64-4.34,8.75-13.83,11.98-17.55,1.14-1.32,3.08-1.29,3.22-1.52,1.4-2.26-2.21-.42-2.59-.95,2.31-2.35.85-8.46,4.74-8.65l-3.59,28.12c-4.04,3.71-6.91,8.5-10.96,12.04ZM42.18,209.48l-.43-.12c-.14-.82,1.49-3.09,1.6-2.4l-1.17,2.52ZM39.93,215.98c-.26-.24.46-.68,1-.19.26.24-.46.68-1,.19ZM38.73,209.96c-.26-.24.46-.68,1-.19.26.24-.46.68-1,.19ZM63.91,147.65l.88.24-.48,1.76-.88-.24.48-1.76ZM64,143.88l1.32.36c-1,2.86-1.92,2.61-1.32-.36ZM64.46,152.54c-.6.92-.32,4.52-1.97,3.72.6-.92.32-4.52,1.97-3.72ZM62.57,157.71c.12-.06.95.31,1.32.36-1.44,6.81-2.21.13-1.32-.36ZM62.99,163.04l-.6,2.2-.88-.24.6-2.2.88.24ZM61.55,168.33c-.14-.63,1.13-1.34,1.24-1.08.14.63-1.13,1.34-1.24,1.08ZM66.07,125.95l-.43-.12c.44-2.48,1.32-2.24.43.12ZM72.16,88.26c-1.7-.12-.11-2.15-.15-2.88.57.29.23,2.32.15,2.88.83.06.8-.85.83-1.39.07-1.58-.87-2.98-.13-4.58l.63,1.12,1.25-1.08c-.56,3.29.37,6.5-3.08,8.63-.31-.8.39-1.87.51-2.7ZM76.13,46.2l.43.12-.73,2.64-.43-.12.73-2.64ZM75.81,45.64l.6-2.2.43.12-.6,2.2-.43-.12ZM75.72,49.41c.35-.42.56.84.07,1.44-.35.42-.56-.84-.07-1.44ZM78.96,34.17l-2.42,8.82.36-4.87c-.13-1.25,1.5-3,1.57-3.79.05-.49-.79-.46-.84-.53-2.06,4.93-1.88,10.12-2.74,15.15-.3,1.75-.62-.53-.69-.92-.41,3.24-.38,6.47-1.22,9.62-1.06-.02-.93-.68-.87-1.53.16-2.2,1.02-4.64.84-7.01-.75-.32-.71.88-.79,1.38-.26,1.59.06,3.34-.46,4.91l-.48-3.45-1.04,2.08-1.32-.36c.96-4.92,1.21-9.89,2.26-14.8.19-.88,1.96-2.41.14-2.57-.43,1.84-1.12,3.65-1.51,5.51-.38,1.85-.75,9.93-1.09,10.57-.26.49-.94.63-1.44.36.63-.86.15-1.73.16-2.32-.45,1.56-.15,2.72-1.93,1.84l2.42-8.82.44.12c-.73,1.13-.34,2.37-.4,3.21.6-2.59,1.52-5.13,2.12-7.72.13-.55.78-1.55-.02-1.66-2.73,3.39-3.09,11.49-4.99,14.43-.32.49-1.23.76-1.45.39-.18-.31,2-2.45.85-3.08-.86.62-.72,3.46-2.17,2.72.77-1.68,1.92-3.02,2.67-4.78,1.35-3.18,1.71-6.8,4.14-9.59.36-.42.92-.06.95-.1.96-1,.79-.7,1.24-1.08,1.39-1.17,2.2-2.82,4.45-3.62,1.24-.44,9.66-1.8,11.2-1.89.78-.05,4.35.28,4.65.67-1.16,1.32-1.39,3.11-1.58,4.8-.09.8-.1,7.25.08,7.59.99,1.87.92-2.02,1.04-2.08,2.41-1.23.76,5.62.7,6.48-.58,8.31-.99,11.92-5.55,19.32-.57.92-1.5,2.65-2.58,2.98,3.9-6.76,7.71-13.52,7.81-21.56-1.35-.02-.68,2.5-.78,2.87l-2.18,7.94-3.64,6.35c1.76-4.16,3.3-7.87,4.33-12.33.13-.54.78-1.55-.01-1.66l-1.28,4.62-2.27,4.83,1.94-7.06-3.21,7.76-2.26,3.53c2.38-5.21,4.03-10.24,4.79-15.93.09-.7.52-2.72-.02-3.14-1.22,6.94-3.1,13.43-6.01,19.85-.31.69-.89,2.61-1.61,2.71,1.9-6.03,4.79-11.77,5.9-18.05,1.04-5.94-.46-12.94,1.38-18.83-1.13-.51-.93-.03-1.2.86-1.29,4.28.45,12.24-.57,15.96l-3.75,13.67-1.78,3.06c.65-3.57,2.4-6.76,3.3-10.26.36-1.39,1.07-4.93,1.21-6.27.06-.54.02-1.12-.55-1.36-.61.72-.12,2.15-.23,2.54l-3.39,12.35-1.66,2.62c4.24-10.66,3.12-21.67,5.62-32.59-.74-.31-.68.88-.86,1.42-1.94,5.99-1.06,12.32-2.21,18.38-.74,3.86-2.36,7.81-3.2,11.68-.8-.11-.14-1.11-.01-1.66.51-2.2,1.39-4.42,1.81-6.61.85-4.39.37-9.2,1.37-13.62l-1.84,3.28c.67-4.09.96-8.2,2.38-12.15-1.45.4-1.86,3.1-2.14,4.39-1.29,5.9-.69,12.31-2.15,18.14l.32-9.29,1.97-12.84ZM70.83,64.65c-.14-.32-.73-.8-.21-.99.17.35.73.82.21.99ZM67.01,66.46l.12-.44c.25.23.21.37-.12.44ZM65.78,66.59l-1.64-2.59,1.27-.36c.74,1.21,1.38,1.66.37,2.95ZM66.74,58.8l.12-.44c.25.23.21.37-.12.44ZM67.5,59.48l.12-.44c.25.23.21.37-.12.44ZM63.52,54.11c.65-1.03,1.92-.44,2.88-.15l-.12.43-2.76-.28ZM59.79,72.05c-.14-.32-.73-.8-.21-.99.17.35.73.82.21.99ZM60.94,74.75c.25.23.21.37-.12.44l.12-.44ZM39.33,54.31c-1.16-1.06-4.55-7.82-4.59-9.29-.02-.89.31-.55.84-.48.87.12,8.18,4.28,8.38,4.72.2.45-.74,1.62-.21,1.8,1.44-1.8,4.06-.73,5.99-.25l-1.39,2.45c2.1-2.29,5.38-3.27,2.04.33,1.16,1.61,1.74-2.82,3.43-2.13-.14.98-2.6,2.35-1.41,3.4.56-2.78,2.94-3.82,5.5-2.75.12.15-2.79,2.48-1.41,3.4.9-2.55,1.19-1.45,2.11-1.79.24-.09.38-.67,1.1-.8.4-.07,3.09-.06,3.17.08.36.64-2.69,2.55-3.08,2.73-2.74,1.23-6.89,1.79-9.85,1.67-2.94-.12-8.34-1-10.62-3.08ZM41.33,64.14c-1.13.28-.94-1.67-.75-1.61l.75,1.61ZM37.6,57.9c-.27-.46-.71-1.5-.41-1.99.27.46.71,1.5.41,1.99ZM42.96,20.78c.85,1.29,4.01,1.7,3.13,3.65-.09.2-.92-.21-1.19.61-.44,1.37.42,2.28.1,3.3-.33,1.05-1.77,2.01-1.87,3.33l1.18-.85c-2.3,4.97-2.77,9.82-3.68,15.11l.33-4.65-.92,1.64c-.66-.09-.34-1.38-.29-1.87.72-7.16,4.67-13.55,2.73-20.54l.48.27ZM43.63,17.83c.35-.42.56.84.07,1.44-.35.42-.56-.84-.07-1.44ZM45.63,17.43c.24-.26.68.46.19,1-.24.26-.68-.46-.19-1ZM45.81,19.38l.12-.44c.25.23.21.37-.12.44ZM49.59,18.52c-.46.54-.61-2.31-.15-2.88,1.02.65.44,1.92.15,2.88ZM49.67,19.96c-.24.26-.68-.46-.19-1,.24-.26.68.46.19,1ZM53.25,30.95l-2.45,12.56c.74.31.69-.89.86-1.42,1.08-3.38,1.58-6.43,1.78-9.94.1-.38.98-.05,1.17.07.33.22,2.56,6.98,2.57,7.51.02,1.1-.43,1.53-.81,2.47l.8-1.2c1.79,2.77.9,6.56,1.59,9.69-2.49.22-2.32-.66-2.1-2.71-1.21-.14-.43,2.46-.72,2.64-.62.39-1.03-.79-1.08-1.24-.02.29-.19,1.31-.58,1.26-1.1-2.15.03-5.16.4-7.47l.15,2.88c.13-1.23,1.72-6.41,1.49-7.18l-1,.21.04-1.89-2.47,10.7-.63-1.12-.41,3.2-.74-1.63-1.46,1.03c.13-.71.83-1.72.04-1.89l-.61,2.2c-.77.63-.44-5.09.14-5.65l.47,3.45,2.07-12.71-1.94,7.06,1.34-8.76-.56-.98c-.46.84.38,3.36-.97,3.53.93-1.34.02-2.52-.04-3.33-.07.69-.49,1.48-.61,2.2l-.43-.12c.31-1.22.2-2.42.52-3.65-.51-1.06-.42-1.3-1.96-1.48-.26.09.29.68.26.78l-2,7.28,2.21-4.61-2.39,12.14c-.61-.23-.23-2.19-.14-2.7.24-1.41.74-2.76,1.08-4.15l-1.46,3.62-.39,4.88.8-1.2.29,1.51,1.02-1.14c-3.06,6.46-3.2-.3-2.7-3.48.76-4.81,2.86-9.53,2.46-14.6l7.07,3.41ZM51.84,17.24c-.37.44-.64-1.49-.39-2,.37-.44.64,1.49.39,2ZM51.92,18.68c-.24.26-.68-.46-.19-1,.24-.26.68.46.19,1ZM52.73,12.27c-.24.26-.68-.46-.19-1,.24-.26.68.46.19,1ZM52.65,10.82c-.35.42-.56-.84-.07-1.44.35-.42.56.84.07,1.44ZM56.53,15.68c-.35.42-.56-.84-.07-1.44.35-.42.56.84.07,1.44ZM57.75,11.28c.35-.42.56.84.07,1.44-.35.42-.56-.84-.07-1.44ZM53.82,27.27l-.23,2.55c-.26,0-1.22-.53-1.25-.59-.08-.14.73-2.25,1.48-1.96ZM58.5,36.14l-.43-.12c.44-2.48,1.32-2.24.43.12ZM58.36,37.53l.12-.44c.25.23.21.37-.12.44ZM59.74,35.06l-.43-.12.6-2.2.43.12-.6,2.2ZM59.7,36.94c-.35.42-.56-.84-.07-1.44.35-.42.56.84.07,1.44ZM53.22,48.45l-.04,1.88-.88-.24c.29-.75.17-2.01.92-1.64ZM47.45,45.25c.11-.87-.34-1.68-.22-2.51.36-2.46,1.19-5.33,1.65-7.82.66.14.34,1.78.27,2.26-.18,1.18-.71,2.29-.84,3.45-.14,1.28-.09,8.43-.55,8.68-.06.03-1.28-.3-1.32-.36-.28-.48.91-3.04,1-3.71ZM46.03,47.89l.12-.44c.25.23.21.37-.12.44ZM46.63,41.42c.35-.42.56.84.07,1.44-.35.42-.56-.84-.07-1.44ZM46.92,38.65l.6-2.2.43.12-.6,2.2-.43-.12ZM65.19,39.4c-.35.42-.56-.84-.07-1.44.35-.42.56.84.07,1.44ZM65.15,41.28c-.35.42-.56-.84-.07-1.44.35-.42.56.84.07,1.44ZM64.27,42.71c-.25.06-1.18-.55-1.21-.61-.07-.12.37-2.78,1.12-2.5l.09,3.11ZM63.87,39.04l-.43-.12c.44-2.48,1.32-2.24.43.12ZM64.03,36.71l-.43-.12c.44-2.48,1.32-2.24.43.12ZM61.08,58.67c.17.35.73.82.21.99-.14-.32-.73-.8-.21-.99ZM72.23,32.8l.85-3.08.43.12-.85,3.08-.43-.12ZM78.13,26.83c.8.11.14,1.11.01,1.66-.22.96-.55,1.91-.79,2.87-.8-.11-.14-1.11-.01-1.66.22-.96.55-1.91.79-2.87ZM81.23,22.46l2.62-7.81.76,2.36-.81-.47c-.31,1.08-.53,2.19-.95,3.24-.25.61-.96,2.62-1.62,2.69ZM84.57,28.01c.03.23,2.09,2-.31,2.4-.96-3.87-2.11-6.56.46-10.3l.6,4.3c.05,1.2-.89,2.45-.74,3.6ZM89.1,22.26l.12-.44c.25.23.21.37-.12.44ZM89.59,24.76c-.24.26-.68-.46-.19-1,.24-.26.68.46.19,1ZM89.67,26.21c-.24.26-.68-.46-.19-1,.24-.26.68.46.19,1ZM92.72,23.72c.63-1.31,1.96-4.18,2.8-1.77.42,1.21,1.29,7.11-.18,7.69-.08.03-.68-.7-.73-.66-.34,1.28-.9,1.93-2.25,1.28l.79-2.86c-.37,1.09-2.24,4.18-3.12,2.7-.44-.75,2.76-5.91,2.06-7.49l.63,1.12ZM92.99,21.9l.12-.44c.25.23.21.37-.12.44ZM96.54,16.72l-.6,2.2-.43-.12.6-2.2.43.12ZM97.13,14.8c.16-.45.88-2.38,1.51-2.25l-1.53,3.84c-.82-.12-.15-1.1.02-1.59ZM96.47,15.27l-.43-.12.6-2.2.43.12-.6,2.2ZM97.23,21.17l.73-2.64.43.12-.73,2.64-.43-.12ZM98.52,18.2l.6-2.2.43.12-.6,2.2-.43-.12ZM92.21,41.13c-1.32-.11-.64-.5-.73-1.24-.18-1.53-.17-3.08.42-4.53l.31,5.77ZM92.43,31.71l-.85,3.08-.43-.12.85-3.08.43.12ZM93.05,19.07c-.24.26-.68-.46-.19-1,.24-.26.68.46.19,1ZM101.64,17.16c-.24.26-.68-.46-.19-1,.24-.26.68.46.19,1ZM102.25,14.97c.24-.26.68.46.19,1-.24.26-.68-.46-.19-1ZM99.43,21.78c.35-.42.56.84.07,1.44-.35.42-.56-.84-.07-1.44ZM98.82,23.98l-.73,2.64-.43-.12.73-2.64.43.12ZM98.97,26.86c-.35.42-.56-.84-.07-1.44.35-.42.56.84.07,1.44ZM98.25,29.51c-.35.42-.56-.84-.07-1.44.35-.42.56.84.07,1.44ZM100.48,19.69c.35-.42.56.84.07,1.44-.35.42-.56-.84-.07-1.44ZM101.07,17.49l-1.41,3.4c-.83-.37.74-3.38,1.41-3.4ZM100.88,16.48c-.35.42-.56-.84-.07-1.44.35-.42.56.84.07,1.44ZM101.16,13.71c-.24.26-.68-.46-.19-1,.24-.26.68.46.19,1ZM99.95,18.12c-.35.42-.56-.84-.07-1.44.35-.42.56.84.07,1.44ZM98.62,22.97l-.43-.12c.44-2.48,1.32-2.24.43.12ZM92.78,83.96c-2.55.1-4.32-1.41-6.84-1.87-3.5-.64-4.41.69-7.67-2.35-.44-.41-1.06-.29-.62-1.11,2.29-1.48,4.37-.17,6.67-.04,3.76.22,6.36-1.68,9.42-3.37-2.1,2.93-.87,5.5-.97,8.74ZM125.34,75.85c-.19-.41-5.68-5.46-6.52-6.15-2.56-2.12-5.34-3.99-8.29-5.52.53-1.33,1-2.03,2.4-1.2l9.02,6.23-2.28-2.6c-2.41-1.75-4.56-3.97-7.53-4.83.39-2.75,4.84-.7,6.72.08,4.92,2.06,9.49,6.27,13.23,9.95,1.47,1.45,3.21,3.16,4.78,4.72.64.64,3.54,3.92,1.26,3.75-3.37-3.79-6.68-6.67-11.34-8.8-.89.32-.18.98.21,1.37,1.41,1.46,3.68,2.08,5.29,3.32.85.65.8,1.06,1.12,1.4.45.2.56.54.76.68.27.19.96.02.83.46-.05.36-.82.08-.95-.02.33.32.53.97,1.06,1.43,1.39,1.22,2.7.75,2.38,3.3-2.94.11-4.94-2.16-7.13-3.71.45.09,1.07-.38.8-.86-.36-.63-1.46.04-1.12.64-.77-.51-1.6-.97-2.52-1.16-.62,1.16,1.18,1.76,1.66,2.59l8.15,4.84c-2.15-1.16-2.34.56-4.54.18-8.63-1.5-14.38-8.06-19.94-13.95-.62-.66-1.6-.84-2.13-1.39-.92-.98-1.39-2.78-2.9-3.38.25-1.32,1.28-1.12,2.32-.79.81.25,6.05,3.01,6.9,3.55,2.05,1.31,4.64,5.02,7.08,6.39.76.43,1.63.34,1.24-.52ZM142.69,79.17c-4.19-2.75-7.07-6.88-11.21-9.61l-5.63-5.91c2.35,1.06,4.75,2.56,6.77,4.14,2.06,1.61,3.95,3.84,5.36,5.69,1.02,1.34,4.74,3.14,4.7,5.69ZM141.4,71.72c.17.35.73.82.21.99-.14-.32-.73-.8-.21-.99ZM142.03,102.25c1.02,2.49-.21,3.71-2.16,5.19-5.1,3.89-13.89,6.46-19.26,10.43l-3.09,3.72,20.33-11.01.47.83-10.24,8.81c6.7-3.33,12.21-8.63,18.04-13.06.1.25-.86,1.94-1.11,2.28-2.79,3.72-18.41,14.43-22.99,16.47-4.09,1.82-6.53,2.04-10.92,4.34-.82.43-4.86,1.82-3.93-.34.8-1.86,2.99-2.73,4.04-4.36-2.11-1.19-2.92,1.11-4.69,1.56,3.29-9.45,10.54-15.3,19.3-19.36.38,1.53-1.81,1.98-2.86,2.84-3.68,3.02-5.22,5.89-8.21,8.93-.45.46-1.31.32-1.59.64-.3.35-.54,1.39.35,1.28,1.52-.2,6.02-6.07,7.62-7.53,3.43-3.15,9.76-6.58,13.96-8.84.13-.07,2.73-.51,1.23-1.08-1.82-.68-8.76,4.79-9.73,3.49,1.43-.99,2.78-2.58,4.1-3.58.89-.68,6.75-3.59,3.4-3.84-2.47-.18-2.68,1.64-3.51,2.31-5.18,4.19-12.32,6.83-16.94,10.79-2.14,1.84-4.43,6.36-7.45,6.52-1.01.05-1.98-.37-3.14-.28-1.7.12-3.68,1.55-5.63,1.92-.6.11-.36.47-.89-.25-2.22-3,3.95-6.79,5.61-8.49,2.11-2.15,3.23-5,6.62-6.18l8.04-3.03c-.04.88-.76.92-1.3,1.3-1.31.93-6.28,3.55-6.86,4.28-.38.48-.13.86.47.83l14.89-8.48c.38-1.92-1.64.27-2.32-.15,1.51-1.56,2.22-.49,3.42-.52,1.69-.04,1.69-1.42,2.69-1.8.39-.15,4.63-.67,5.21-.65,1.75.04,3.2.52,4.85,1.01l-2.24,1.27c1.65,1.58,3.09-.04,4.97.9-2.82,1.94-.32,2.25,1.42.87ZM146.54,84.98c.24-.26.68.46.19,1-.24.26-.68-.46-.19-1ZM139.51,110.55c-.36.4-.73-.97.59-1.25.03.25-.52,1.17-.59,1.25ZM152.73,87.05c.44.02,2.63-.01,2.75-.09.02-.03.16-.18.35-.39.16-.55-1.4-.8-1.44-.86-.24-.43,2.71-4.81,3.73-3.24.17.27-1.2,1.37-1.43,1.56-.53.43-.88.15-.92.18-.93.74.36,1.1,1.07,1.23.29-.38-.13-1.03,1.12-.85,4.14.6,1.62,2.35.92,3.78-.24.49-.27,1.22-.48,1.76l1.75-1.17c.02,1.32-3.73,2.94-3.36,3.97.09.26,1.15.07.4,1.27-1.8,2.91-2.49.62-2.67.56-.52-.16-2.29,2.67-2.02,3.2.06.12,1.98,1.03,1.84,1.81-.39,2.15-2.44,2.04-1.68.88.31-.47,1,.44,1.06-.42-.64-.59-2.81.28-2.88.15-.57-.96,1.14-.76,1.19-.85.94-1.63-.82-1.16-1.03-1.47-.68-1.03,2.11-.51,1.37-1.52-.16-.22-1.3-.05-1.26-.58,1.47-.67,2.5-1.6,2.8-3.26l.43.12c-.37,1.19.86,1.68,1.85,1.92-.56-1.26-.54-1.62.28-2.76-.65-.53-2.6,1-2.7-.51-.11-1.67,3.02,1.22,3.06-.81-1.88.54-1.12-.78-1.45-.91-.4-.15-2.18-.2-2.95-.3-.13.1-.26.18-.4.24-.06.05-.12.08-.16.08-.13.06-.19.32-.4.3-.22-.03-.45-.34-.48-.54-.59-.13-1.18-.34-1.76-.49,1.48-3.43.94-2.08,3.51-1.99ZM151.75,84.99l.36-1.32.88.24c-.03.65-.56,1.11-1.24,1.08ZM159.17,80.39c.35.61-.77,1.25-1.12.64-.35-.61.77-1.25,1.12-.64ZM163.1,83.37c2.05.56.36,1.69.32,2.59-.02.6.79,1.12.35,1.86-.29-.02-.65-.26-.88-.24-.1.44-.88,1.08-.81,1.2l1.08,1.25c-2.41-.55-2.78-2.26-.27-2.44.54-2.33-3.61-2.2-.45-4.38l-.7,1.69c1.95.77,1.23.07,1.36-1.52ZM165.08,93.39c.79-.35-1.48-2.22-.59-3,1.28-.16.53,1.11.86,1.22.89.3,1.59-.48,1.78-.49-.84.06-1.4-1.55-1.77-2.15l2.45,1.39s-.63.75-.68.76c4.05-.37.76,2.69,1.04,3.13l1.76.48.04-1.88,1.76.48c-.95.81-.05,1.97-.26,2.47-.19.44-.88.37-1.03.49-.19.16.05.85-.47.82-.91-.05-.59-.37-.41-1.07-.69-.27-1.58-1.4-2.25-.34-.84,1.33.32,2.06.32,2.18.26-1.07.14-1.61,1.24-1.08-.25,1.08-.14,1.6-1.24,1.08.01.37-.92,1.06-.8,1.2.9.33,3.42.68,2.72,2.17-1.47.35-.83-1.89-2.03-1.28-.6.31-1.26,1.54-1.54,2.2,1.15.76.97-.57,1.12-.63.4-.17,1.11.13.68.86-1.26,2.16-2.33.5-2.47.55-.23.08-.97,2.01-1.07,2.07-.35.21-1.02-.01-.68-.86.62-1.55,1.9-2.79,2.57-4.31l-3.89.36.7.89-2.9,2.76c-.48.12-1.76-2.26-.83-2.12.66.1,1.32.43,1.98.54-.33-1.02-.74-1.79-.15-2.86.61-.08,3.05.45,3.2.38,1.18-.58-1.43-1.26-.4-2,.29-.21,1.3,1.75,1.43-.07-1.08-1.2-2.12-2.35-3.89-1.31l.68,1.84c-.3-.71-1.18-.64-1.65-.92-.12-.07,1.17-2.37-1.32-.36l-.79-1.4,4.54-2.78c-1.28-.76-2.16.86-3.35.97-1.91.17,1.74-2.62,2.18-2.71.26-.06-.1.7.55,1.18.46.34,2.52,1.3,2.83,1.17ZM166.46,86.66c.45,1.01-1.2,1.17-1.37-.15-.15-1.16,1.33.06,1.37.15ZM169.15,85.51l-1.12.64c.13-.96.23-1.02,1.12-.64ZM172.83,89.36l-1.12.64c.13-.96.23-1.02,1.12-.64ZM176.65,97.05c.39.15-.02,1.14-.19,1.3-.11.1-2.39.36-2.84.23.36-1.66,2.11.36,3.03-1.54ZM176.59,94.66c.24-.26.68.46.19,1-.24.26-.68-.46-.19-1ZM177.61,103l-2.34-1.82c1.14-1.38,3.1,1.38,2.34,1.82ZM174.31,92.61c-.35-.61.77-1.25,1.12-.64.35.61-.77,1.25-1.12.64ZM171.07,107.85c.42.35-.84.56-1.44.07-.42-.35.84-.56,1.44-.07ZM172.13,100.54c-.69-.04-.86-.45-1.14-1.02l1.38.15-.24.88ZM170.76,102.06c-.96-.13-1.02-.23-.64-1.12l.64,1.12ZM168.67,106.23c-.65.36-1.37-.58.03-.94.4.05.02.91-.03.94ZM166.11,106.95c.13-.96.23-1.02,1.12-.64l-1.12.64ZM164.48,114.57l-.72,2.64-.88-.24,1.17-2.52.43.12ZM164.73,108.47l-.24.88c-2.05-.21-1.63-1.74.24-.88ZM162.07,118.17c-1.53-.25-.36-2.94-1.29-3.91.23-.38,1.73.21,1.78.29.1.16-.39,3.05-.49,3.62ZM160.35,108.93c.52-.37.89-.62,1.49-.3.37.32-1.11.61-1.49.3ZM158.75,111.33c.25-.03,1.17.52,1.25.59.39.36-.97.73-1.25-.59ZM158.49,100.12l-1.19-.8c-.09.58,1.43,1.08.38,1.96-.07.06-1.66.15-1.8-.02-.14-.17-.12-1.67-.39-2.14-.29-.49-2.27-.89-.74-2.34.85-.81,1.95.66,2.38.88,1.11.56,2.4-.37,1.37,2.45ZM155.4,104.49c0-.42,2-3.19,2.48-2.16.22.47-1.31,2.81-2.48,2.16ZM154.72,105.25l-1.12.64c.13-.96.23-1.02,1.12-.64ZM129.85,134.08c-.59.3-1.84,2.44-3.18,2.59.81.43,3.25-2.23,2.88-.17-3.47,2.39-4.51,7.6-9.73,6.11,1.73-2.83-.78-12.36,1.33-14.33.54-.51,5.45-2.46,6.61-3.09,1.9-1.05,2.99-2.86,5.29-3.12.86-1.14,1.29-2.01,2.83-2.54.4,2.87,2.19-.45,2.91-1.1-.27.15-2.18,1.06-1.88-.04l4.03-2.57,1.33-1.42-1.79,3.07c2.83-2.26,6.03-4.51,7.84-7.8.85.13.1.99-.13,1.41-.49.92-1.45,1.66-1.52,2.88l2.05-2.28c.8.18-.05,2.11-.25,2.51-1.11,2.21-2.64,4.41-3.9,6.88-3.22,6.31-6.16,8.97-11.89,12.76-.42.28-.97,2.01-2.24,1.28.08-.29.15-.59.24-.88-.12.03-.51-.27-.8-.12ZM144.73,105.35c-.21,2.05-1.74,1.63-.88-.24l.88.24ZM148.37,92.12c.35.61-.77,1.25-1.12.64-.35-.61.77-1.25,1.12-.64ZM145.63,100.38c-.42-.35.84-.56,1.44-.07.42.35-.84.56-1.44.07ZM148.11,98.22l-.24.88c-2.05-.21-1.63-1.74.24-.88ZM146.72,96.41c.71-.71,1.83-1.34,2.8-1.6-.27,1.91-1,2.35-2.8,1.6ZM150.04,94.72c1.07-.91.46-1.89,2.18-1.06.18.23-1.57,1.69-2.18,1.06ZM150.35,90.05c-.65.23-1.01.89-1.54,1.24-.53.35-1.45-.31-1.51-.42-.57-1.07,2.68-1.21,3.06-.82ZM147.64,85.27l-.15-.26,1.4-.8.15.26-1.4.8ZM114.85,136.5l.24-.88,1.76.49c.47.39-1.82.7-2,.39ZM112.87,138.57c.45-.6,1.49-1.48,2.06-.62.61.93-1.37.92-2.06.62ZM116.34,134.54l.36-1.32,1.32.36c0,1.15-.71.73-1.68.96ZM130.8,89.66c-2.63-.29-5.52-1.33-8.02-1.67-3.33-.44-8.38.29-11.77.88-7.22,1.25-13.56,3.89-19.96,7.42-.78-1.51-.96-1.64.57-2.93,12.57-10.58,26.67-10.18,41.57-5.5.81.26,2.23-.33,2.64.8.15.41-.02,1.3-.16,1.39-.32.2-1.62-1.23-1.69.96l2.52,1.16c-8.63-.83-17.48-.21-25.89,1.9-3.71.93-7.6,2.57-11.34,3.61-.89.25-4.12.51-4.29.64-.5.4.17,1.88,1.02,1.5,5.54-.97,10.98-3.35,16.39-4.57,7.85-1.78,16.51-1.7,24.49-1.07-3.66,1.58-8.21.58-12.24,1.03-6.34.71-12.9,3.25-19.54,4.22-.95.14-5.04.1-5.27.22-.55.28-.35.89.41,1.06,5.31,1.18,13.59-1.75,18.76-2.99,1.37-.33,6.7-1.63,7.65-1.62.26,0,0,.73.08.86.53.75,7.19-1.59,8.55-.38l-14.81,2.39c-3.79.84-6.87,3.11-10.67,4.13-7.77,2.09-13.91.75-21.07-2.71l4.55-3.44c11.72-5.81,24.84-10.64,37.93-6.23l-.41-1.06ZM116.19,83.28c.24-.65,3.34-.61,3.44-.47.85,1.22-3.08.92-3.44.47ZM138.05,96.88l-.12.43c-2.48-.44-2.24-1.32.12-.43ZM126.12,99.76l.12-.44c.25.23.21.37-.12.44ZM118.62,102.92l.12-.44c.25.23.21.37-.12.44ZM117.62,103.12l.12-.44c.25.23.21.37-.12.44ZM108.74,105.18c-.52.37-.89.62-1.49.3-.37-.32,1.11-.61,1.49-.3ZM142.75,76.35c-.39-.36.97-.73,1.25.59-.25.03-1.17-.52-1.25-.59ZM109.36,71.92c-3.35-1.5-6.37,1.43-9.54.22,1.4-.25,5.7-3.92,6.48-3.78.48.09,3.13,2.66,3.06,3.55ZM100.21,74.52c5.07.81,8.1-3.44,13.61,1.2.1.08-.01.56.11.66.61.5,1.8.22,1.5,1.01-2.53.12-5.56-1.79-7.66.27,2.94.47,9.32.12,11.07,2.82,1.21,1.87-4.48,1.68-5.49,1.46-1.26-.28-1.8-1.27-2.79-1.58-2.27-.73-4.8-.91-7.33-2.15-1.27-.62-6.31-4.73-6.68-4.57-.1.05-.18.09-.23.14.13-.23.23-.39.28-.41.51-.19,2.43.97,3.6,1.15ZM96.2,74.02c0,.38.78.78.93.94,1.69,1.74,3.65,3.38,5.95,4.25l-2.12.83,11.7,2.27c-.13,1.39-.55.59-1.29.64-2,.13-3.9.07-5.8-.69-.98,1.73,2.32.74,2.28,2.04-2.08-.48-7.59,2.37-8.98,2.21-.54-.06-1.18-1.3-1.9-1.78-.61-.41-1.74-.35-2.19-.79-.21-.21-.87-4.05-.76-4.62.11-.57,1.46-3.87,2.19-5.3ZM94.29,85.34c-.09.66-1.38.34-1.87.29-.96-.1-1.87-.32-2.77-.63l4.64.34ZM83.92,83.43c.41-.86,4.06.02,4.2.21-.16,1.82-3.11-.26-4.2-.21ZM87.76,84.96c-.75,1.11-2.4.13-3.2-.42l3.2.42ZM81.47,83.7c-.35-.61.77-1.25,1.12-.64.35.61-.77,1.25-1.12.64ZM76.5,82.81c-.26-.24.46-.68,1-.19.26.24-.46.68-1,.19ZM81.49,68.06c-.35.42-.56-.84-.07-1.44.35-.42.56.84.07,1.44ZM81.21,70.83c-.35.42-.56-.84-.07-1.44.35-.42.56.84.07,1.44ZM80.16,72.91l-.43-.12c.44-2.48,1.32-2.24.43.12ZM82.2,67.67l2.15-3.08-2.21,4.6.07-1.52ZM84.91,64.26l-.43-.12c.44-2.48,1.32-2.24.43.12ZM84.38,67.91c-.35.42-.56-.84-.07-1.44.35-.42.56.84.07,1.44ZM83.39,68.11c.35-.42.56.84.07,1.44-.35.42-.56-.84-.07-1.44ZM83.1,70.88c.24-.26.68.46.19,1-.24.26-.68-.46-.19-1ZM78.21,71.43c.44-2.48,1.32-2.24.43.12l-.43-.12ZM77.46,75.02l.12-.44c.25.23.21.37-.12.44ZM76.3,81.82c.26.24-.46.68-1,.19-.26-.24.46-.68,1-.19ZM76.12,70.38c-.25.21.3,1.17-.14,1.38l-.8-1.4c.08-.47.83.11.94.02.25-.21.1-1.63.7-1.7,1.28,2.42-.59,1.61-.7,1.7ZM75.61,73.09l.12-.44c.25.23.21.37-.12.44ZM75.65,61.71c-.8-.11-.14-1.11-.01-1.66.22-.96.55-1.91.79-2.87.8.11.14,1.11.01,1.66-.22.96-.55,1.91-.79,2.87ZM78.25,51.13c.11-1.54.25-3.14.65-4.64l.02,4.63-.53,2.34c-.68-.18-.19-1.72-.15-2.33ZM76.87,60.39c.47-2.06.51-4.42,1.41-6.49l-.76,6.19-.9,3.3c-1.87-.16.06-2.1.26-3.01ZM74.45,70.41l.8,1.4-.26.15-.8-1.4.26-.15ZM76.51,68.12l.12-.44c.25.23.21.37-.12.44ZM76.49,73.34c.17.35.73.82.21.99-.14-.32-.73-.8-.21-.99ZM77.93,68.98l.73-2.64.43.12-.73,2.64-.43-.12ZM75.43,57.39l.43.12-.85,3.08-.43-.12.85-3.08ZM74.02,73.45c.18.34,1.25.78.67,1.27-1.02-1.32-3.3-2.75-3.22-4.67,1.58.53,1.94,2.22,2.55,3.39ZM82.87,190.79l-1.12.64c.13-.96.23-1.02,1.12-.64ZM74.5,207.46c.16-.85,2.24-4.59,3.17-2.92.48.86-1.74,3.62-3.17,2.92ZM76.59,203.29l.48-1.76,1.76.48c.08.9-1.98,1.79-2.24,1.28ZM77.88,200.32l.48-1.76,1.76.48c.08.9-1.98,1.79-2.24,1.28ZM78.73,197.23c.77-.98.82-1.47,2.12-.83-.29.54-1.76,1.31-2.12.83ZM80.46,194.39c.18-.41.34-1.68.48-1.76.14-.08,1.32.43,1.76.49l-2.24,1.28ZM91.88,175.25c-.64.85-1.97.87-2.45,1.93-.38.83,1.46,1.09.48,1.78-.46.33-2.45-.88-2.37,1.73l1.44-.08c.1,1.76-1.86,1.32-2.42,1.95-.87.97,1.72.63.96,1.67-1.04.67-2.4.91-2.54,2.39l1.26.58-3.31,1.7c1.04-1.34,1.12-3.01,1.75-4.44,1.05-2.39,2.38-4.69,3.56-6.82.45-.82,2.91-5.65,3.21-5.79.32-.14,1.23.37,1.73.42l-2.42,1.95,1.14,1.02ZM92.69,168.83l2.2.61c.55.83-3.95,2.92-2.2-.61ZM93.5,167.62c.51-1.57,1.17-1.88,2.68-1.15l-2.68,1.15ZM103.64,153.11c0,.23,1.17.4.65,1.12-.34.47-1.85.71-2.16,1.36-.35.74.42,2.1-.83,2.57-.72.27-1.7-.74-1.68.96,0,.17.82.48.79.69-.21,1.52-2.04,1.43-2.47,2.25-.56,1.06.36,3.49-2.83,3.16,3.96-6.41,7.73-13.44,12.12-19.56.71-.99,5.05-6.53,5.67-6.37.39.1.53,1.08.2,1.63-.49.84-1.83.62-1.99.78-.4.4.03,1.53-.32,2.32-.45,1-2.77,2.7-3.01,3.15-.22.43.02,1.25-.38,2-.49.93-1.66.6-1.93,1.14-.2.4.19,1.14-.26,1.56-.38.36-1.61-.24-1.56,1.23ZM109.57,150.44c2.61-3.85,5.81-8.31,9.1-11.47l-.65,4.84c7.99,3.27,10.78-7.24,17.39-9.73-1.42,2.51,2.97,13.48.64,14.86-.11.07-1.79-.36-2.56-.25-2.66.39-3.69.17-6.12.36-2.71.21-8.91,2.43-11.32,3.65-4.68,2.37-8.61,6.45-13.33,8.93,2.2-3.74,4.4-7.59,6.84-11.18ZM128.8,156.45c-.14-.19,3.01-2.97,3.54-3.26.94-.51,2.07-.32,2.2-.39,1.32-.74-1.54-1.51-2.09-1.52-1.3-.04-6.87,7.36-8.42,5.28l1.98-2.06c-.68-1.04-2.37,1.3-3.42,1.84-3.71,1.92-.26-1.93,1.34-2.88,1.14-.67,2.55-.7,3.69-1.37l-1.05-.53c-.45-1.86,3.11-.41,4.57-.47,1.27-.05,3.23-1.56,4.36-.32.11.12.64,2.94.57,3.08-.28.61-2.9,3.39-3.88,2.34l1.44-2.69c-1.19.12-3.68,4.51-4.84,2.93ZM118.26,156.88c-.1-2.42,1.88-5.36,4.65-4.88.32.62-3.66,4.59-4.65,4.88ZM115.86,155.63c-.92.72-2.15,1.28-3.06,2.12-.07-1,3.84-4.39,4.29-3.56.23.42-.92,1.19-1.23,1.44ZM109.52,159.51c-.53.35-.64,1.05-1.21.8.01-.44,1.86-2.6,2.36-1.72.54.94-.93.77-1.15.92ZM103.88,162.66c.71-.34,1.97-1.49,2.62-.94.27.23-2.1,1.06-2.62.94ZM130.34,161.77c-1.16.8-1.52,2.13-3.33,2.98-.39.18-5.38,1.76-5.68,1.78-1.65.09-3.25-1.03-4.64-1.07-.36,0-.54.81-.79.75-.84-.18-2.47-2.04-3.62-2.43-1.53-.52-3.43-.04-5.01-1.4,2.2-2.59,3.51.16,5.97.69l-1.15-2.68c1.7-.16,4.28,5.15,5.88,4.46.98-.42-.35-1.15-.52-1.36-.44-.56-2.84-3.17-2.91-3.38-.29-.84,1.06-1.18,1.86-.91,1.59.54,1.76,2.97,3.74,2.93.82-.88-2.21-2.55-1.03-3.12.36-.17,1.86.77,2.33,1.09,1.74,1.17,4.64,6.34,6.43,3.22l-2.61-1.3-3.47-4.16c2.75-.27,1.9.7,2.39,1.13.3.27,1.98,1.58,2.1,1.52,1.37-.69-2.59-2.07-1.16-2.69.14-.06,2.72.24,3.02.33,1.56.46,2.17,2.83,3.42,2.84.47,0,1.24-.77,1.06-1.11-.05-.1-1.7-.53-1.75-1.43-.3-1.83,3.62.99,4.31.71l-.08-1.44,2.08,1.05c.71,1.31-6.4,2.7-6.84,3.01ZM137.62,158.88c-.35-.61.77-1.25,1.12-.64.35.61-.77,1.25-1.12.64ZM136.02,156.06c1-1.29,2.63-2.47,4.37-2.11-1.24,1.53-2.22,2.5-4.37,2.11ZM141.68,148.84c-.62,1.82-1.4,4.37-3.72,2.98-1-.6.78-6.15.67-7.84-.12-1.91-1.24-4.18-1.9-5.98l1.15.09c1.23-.56-.71-1.54-.84-2.29-.59-3.41,3.13-5.18,4.96-7.49,1.6-2.02,2.54-4.47,3.96-6.58l1.31-.5c.67.01-.53,8.79-.53,9.6,0,.65-.32,1.38.48,1.77.3-1.48.2-3.04.43-4.52.08-.5-.1-1.65.7-1.33,1.31,5.58,3.14,10.06,2.18,16.06-.49,3.06-1.48,4.85-3.74,6.89-.42.38-1.24.15-1.41-.06-.16-.2,2.55-4.04,2.21-4.6-1.05-1.75-1.95,1.7-2.49,2.46-.44.62-1.05.41-1.42.87-.51.64-.34,2.38-1.43,2.32l1.63-7.81.17-12.56c-1.91,6.02-.34,12.53-2.37,18.54ZM140.69,155.44c-.26-.9,2.96-5.11,3.64-3.73.2.4-2.12,4.55-3.64,3.73ZM139.63,158.48c-.05-.07-.12-1.28.37-1.57.51-.31,3.85-.78,4-.54,1.22,1.94-4.21,2.35-4.37,2.12ZM150.83,153.63c-.13.21-3.6,3.02-3.82,3.12-2.25.93-2.6-1.99.45-1.83l2.96-2.95c-.08-.13-3-.37-3.14-.3-.55.27-1.65,3.81-2.62,2.26.68-1.44,6.93-8.22,8.29-6.01.5.81-1.88,2.19-2.06,2.6-.26.59.86,1.64-.06,3.12ZM152.37,139.69c1.05,1.08,1.39,5.73.43,6.66-.12.11-2.21.67-2.37.39,1.51-2.18,1.58-4.54,1.94-7.05ZM156.96,152.33c-.04.08-.24.14-.4.22-.07.05-.13.09-.16.1-.32.27-.62.77-1.12.64.1-.27.15-.83.24-.88-.03.03-.5-.21-.76-.04-.34.23-.63.67-.87.78-.18.09-1.22-.53-1.25-.59-.23-.44,1.51-1.42,1.97-2.1.63-.93,1.26-3.16,1.16-4.26-.04-.47-.65-.62-.73-1.16-1.2-8.07-6.03-16.69-6.05-23.7,0-.92.57-1.77.59-2.51,0-.38-1.47-.65-.55-1.39.1-.08,1.35.56,1.34-1.55-1.34.45-.8-.03-1.08-1.24l1.2.8.85-3.08-.86,1.42c-.78.57-.37-.78-.21-1.02.8-1.2,2.07-.38,1.88-1.61-.01-.08-1.53.75-.76-.68l2.21.6c-.33.86-.36,1.99-.78,2.78-.15.29-3.03.81-1.13,2.39l1.25-1.08c-.9,2.98-.63,6.3.57,9.16.86.38.82.07.67-.75-.57-3.14-1.13-6.4,0-9.49l.87,4.52c.47,1.79-1.32,4.3.84,4.73l-.19-7.88c.4,1.23.94,1.32,1.4,1.81-.18-1.39-.28-2.92-.23-4.33,1.43-.74,2.06,4.09,2,4.81l.4-3.2c1.03,1.38.57,3.61,1.36,5.36,1.91,4.27,4.77,6.38,5.52,11.74.85,6.1-3.43,18.19-9.19,20.67ZM193.69,146.3c.79-1.1.91-3.05.88-4.42-.02-.82.48-1.11-.74-1.23-.39,1.39-.48,2.85-.66,4.28-.07.59.36,1.27.29,1.54-.07.28-.8.67-1.04,1.18-.26.55-1.25,3.04-1.39,3.14-1.75,1.25-.25-3.26-.24-3.45.03-.95-.83-3.05-.39-4.56l.84,3.79c1.04-1.77.45-3.35.52-4.94.04-.96.67-2.05.47-2.89-.11-.45-.99-.22-1.04-.33-.22-.46.54-1.95-.93-2.06-.16,1.87,1.27,3.89.09,5.71-.97-3.63-5.09-6.65-6.34-9.78-1.6-4.01-.35-4.54-3.55-8.58.28,2.66,1.14,4.6,1.49,7.15.73,5.33-.58,10.32-.61,15.6,0,1.71,1.23,3.39-.1,5.45-3.28-.29-3.59-2.79-5.2-4.67-1.62-1.89-3.77-3.64-5.22-5.59-2.7-3.64-2.79-10.67-4.55-15.64-.53-1.51-2.16-2.51-1.19-4.15-.74-1.44-.23,1.33-1.01.2-.62-.91-1.19-3.43-.24-4.33.4.7-.88,3.42.88,2.85.05-2.97-1.55-6.77,2.74-6.59l1.73,7.76,1,1.3c-.01-1.77-2.3-8.04-1.08-9.1.38-.33,1.14-.04,1.25-.1.45-.28,1.33-1.52,1.64-1.48.96.12,1.31,1.06,1.75,1.69.08.06.16.16.26.32.79.77,2.18,1.66,2.72,2.17-.09-.51.44-1.55.04-2.26-.52-.91-2.18-.45-1.1-2.53,1.4-2.68,3.75,3.28,5.81,3.01l-3.6-5.01c1.06,1.59,3.03,2.27,4.35,3.47.82.75,3.9,4.98,4.56,4.66.8-2.07-2.49-3.34-2.7-3.69-.14-.22.32-.86,0-1.36-.69-1.07-3.76-2.59-5.1-2.79.98-.97,3,.72,3.96,1.09.78-1.28-.73-.85-.95-1.29-.08-.16-.06-1.46.13-1.77,3.84,2.65,7.77,5.78,10.1,9.87,4.94,8.67,3.68,17.59,4.08,27.09-.43,1.73-1.02,2.04-2.64,1.29ZM177.36,107.43l2.58.95c-.15,1.78-2.15.37-2.58-.95ZM182.14,103.77c.26.24-.46.68-1,.19-.26-.24.46-.68,1-.19ZM183.25,106.68l1.38.15-.24.88c-.69-.04-.86-.45-1.14-1.02ZM199.97,138.82c-.23,1.63-.79,3.11-1.67,4.48-.89.35-.79-4.85-.69-5.4.23-1.34.93-2,1.06-3.53.26-3.13-1.56-7.62-1.56-10.84.79,1.11,2,2.76,2.43,4.01.69,2.01.74,9.07.43,11.28ZM215.43,108.82c.85.86,1.39,1.94,1.95,2.98l-2.38.05c4.38,1.44,5.61,6.59,8.76,9.52,0,0-2.66.19-2.81,1.6l-.29,2.76-1.4-1.8.97,3.34c-.42.76-3.48-.41-2.55,2.38-5.88-2.79-12.16-2.78-17.64-6.51-5.25-3.57-6.14-7.36-10.01-11.41-1.33-1.39-3.04-3.02-4.79-3.8l1.88.04c0-1.33-2.42-1.12-1.07-2.18l1.23-.14c-.93-.21-1.83-.47-2.71-.88-.44-.21-1.72-.6-1.46-1.21,8.5.65,17.38,3.31,24.71,7.69l3.81.62c-4.2-2.7-8.36-4.95-13.13-6.47-4-1.28-10.14-2.95-14.29-2.95-.5,0-.36.92-1.1.58-.23-.1-2.88-2.09-2.96-2.26-1.21-2.71,4.08-.66,4.84-2.39-1.14-.62-2.79-.11-3.85-.57-.96-.42-3.47-3.86-.72-3.53-.12.33-.24.68.1.94.83.66,5.21,2.99,5.29,3.61l-1.29.35-2.36,1.72c6.76-1.8,14.44-1.67,21.16.61,3.41,1.16,9.56,4.73,12.06,7.27ZM186.37,98.76c.51-.67,6.28-1.35,6.45-1.07.89,1.4-5.92,1.22-6.45,1.07ZM205.61,101.2l-2.2-.6c-.05-1.56,2.1-.68,2.2.6ZM214.76,103.25c.91,1.23.14,2.98-1.38,2.46l1.38-2.46ZM208.46,97.72c.84.21,3.34.92,4.04,1.2,2.8,1.12,1.84,4.34-.43,5.48l.38-2.26c-2.24,2.14-3.92-.28-6.41-.82l4.83-.33.98-1.86c-1.52-.81-.96,1.3-1.37,1.51-.63.32-6.61-1.92-8.04-2.09-1.55-.19-3.55.33-4.92,0-.44-.1-1.81-3.47-1.62-.02l-2.77-.29,2.44-.28-.7-.9c3.67-1.29,7.06-3.28,10.29-5.48,2.15,1.71,2.8,5.11-.1,6.38.49.3,1.17.04,1.82.26-.03-1.39.96-.54,1.12-.64.19-.12,1.32-2.84,1.4-3.41-.51-.41-.96,1.71-1.55.52-.07-.13.35-2.19-.66-2.79,4.92.36,3.19,3.04,1.25,5.8ZM210.89,90.57c.15,1.25-2.77-.16-3.47-.22-3.33-.31-6.34,2.98-9.07,4.33-2.99,1.47-11.33,3.21-14.25,1.76-.41-.2-3.1-1.85-3.19-2.02-.07-.13.94-.95.81-1.19-.6-.05-2.24-1.35-2.52-1.17-.14.09-.56,2.54-2.05,2.29.87-3.39,2.12-2.31,4.49-2.56,5.5-.59,12.3-1.82,17.61-3.38,1.07-.31,1.05-.93,1.12-.95,1.08-.34.68.93.75,1.03.4.56,3.04-.65,4.1-.68,1.98-.07,5.38.42,5.66,2.78ZM200.61,84.9l3.65-2.07c-.29,1.04-1.65,1.44-2.47,1.88-.29.16-.63,1.34-1.18.19ZM206.83,86.37l-4.94.78c1.42-.78,3.37-1.33,4.94-.78ZM195.8,69.59l1.76.49-1.25,1.07c-.36.1-.89-1.13-.51-1.55ZM189.68,75.49c1.68-.76,4.7-1.27,6.27-2.06,1.03-.52,3.08-3.32,4.11-2.17,1.3,1.44-2.32,4.35-2.17,4.59.11.17,1.35.56,1.6-.14.88-.21,1.88-3.07,2.66-2.48.32.24,1.44,2.33.94,2.62-1.77-1.44-.93-.59-1.59.67-.15.28-1.83-.04-1.21.93.63.98,1.52-1.15,2.12-.84-3.43,3.26,1.08,2.37,1.67-.02,1.51,1.55-1.1,2.48,1.38,2.75.1.17-2.18,2.79-2.53,3.08-1.35,1.12-7.85,5.27-9.39,5.72-1.68.49-3.83.32-5.47.67-.68.14-.93,1.01-2.07,1.1-1.09.08-3.79-.79-4-.75-.17.03-2.94,1.22-3.12,1.35-.67.45-1.69,2.75-2.83,1.12-.38-.55.77-2.51.68-2.62-.89-1.14-1.93,1.85-3.03-1.07.48-1.56,2.46-.84,2.64-.94,1.41-.79-1.33-.97-.96-1.67.35.17.64.14.94-.12,3.39-3.03,9.32-7.88,13.37-9.71ZM175.26,67.8c3.13-3.3,8.35-5.46,9.55-10,.35-.9,2.69,1.36,1.98,2.85l.81-.9c3.04,1.98.4,2.14.32,2.29-.47.87-.48,2.27-.89,3.24l1.73-2.84-.29,2.76,2.12-.84c-.85,8.6-7.56,13.57-13.83,18.51l-4.04,1.71c-.34-.75,2.36-4.01.63-3.14-1.73.6-1.33,4.65-1.55,4.78-.97.57-.99-2.03-1.22-2.44-.18-.31-.93.24-1.33-2.06-.16-.93.08-1.79.04-1.89-.47-1.24-1.11.94-1.56.52-.08-1.89.74-3.25,1.48-4.92.89-2.01,4.22-5.7,6.07-7.64ZM156.44,47.46c.19-.17,1.68-.13,2.05.01,1.62.63,3.81,9.3,4.53,11.2,1.49-3.53-1.07-6.29-1.12-9.77.23.67,2.08,1.32,2.18,1.57.09.22-1.08,1.1-.25,1.79,1.74-2.4,2.3,3.44,3.22,4.68.11-1.84.42-3.32.01-5.21,7.53,2.43,4.91,10.35,3.62,16.17,2.92-1.69,1.48-6.43,2.54-9.26,1.01,1.16.63,4.08.36,5.56-.56,3.08-1.6,6.5-4.55,7.99,1.32-4.42,1.37-9.63,1.11-14.23-.04-.75.73-1.15-.64-1.29-.97,4.02-.37,8.74-1.11,12.72-.33,1.76-1.72,7.38-2.43,8.74-.07.13-2.22,1.09-2.55,1.53l1.64-5.01c-.52-2.76,4.08-14.12,2.83-15.96-.17-.25-.68-.2-.75-.29-.81,7.03-2.75,13-5.45,19.51-1.38,1.79-3.12-.44-5.09-.12-.18-1.25,1.03-.58,1.19-.85.93-1.53-1.1-1.38-1.44-2.54-.38-1.29.65-4.44.72-5.99.1-2.26-.12-6.06-.47-8.29-.34-2.2-2.18-5.48-2.14-6.99.01-.38,1.78-5.45,2-5.65ZM139.65,47.79c1.13,1.16,1.57,3.42,3.22,3.93.73-.39-2.33-5.57-2.51-6.37l5.37,2.9c-1.32,1.1,0,.57.72,1.62.47.67,1.32,5.26,2.19,3.23-.61-.71-1-4.56-1.15-4.76-.32-.42-1.45-.08-1.08-.86,6.62,3,9.25,12.85,9.11,19.55-.01.68-.63,1.27-.65,1.86-.13,2.85.6,5.89-.62,8.72-2.35-.36-.7-.77-.38-2.19.43-1.88-.52-2.09-.63-2.7-.81-4.31-1.33-8.98-4.12-12.64-.22,2.2,1.24,4.41,1.75,6.63.51,2.19,1.31,6.42.74,8.5-.11.4-1.3,3.67-2.08,2.31-.45-3.75-.62-7.75-1.52-11.41-.32-1.32-3.44-10.8-3.89-11.18-.21-.17-.73-.29-.71.03.49,1.95,1.37,4.11,1.85,6.01.63,2.5,2.94,10.62,2.79,12.58-.15,1.88-1.3,3.63-2.53,1.41-1.2-2.16-4.52-10.36-5.08-12.74-1.2-5.11.32-13.05-5.66-15.57,1.27-2.36,3.49-.27,4.87,1.14ZM134.69,50.43c-.02-.11-.62-.41-.61-.95.03-2.51,2.51-.45,3.04.88.23.57-.34,1.06-.21,1.58.61,2.36,2.63,4.67,1.89,7.67-1.33-.35-1.01-2.15-1.7-3.31-.46-.78-1.64-1.52-1.9-2.08-.33-.71-.3-2.82-.51-3.81ZM124.44,50.03c.44-.19,7.79,3.32,8.73,4.06,4.34,3.4,4.72,9.5,6.36,14.24.55,1.58,3.08,4.28-.42,2.29.11.46.69,1.19.31,1.5-1.57-.65-1.11-1.6-1.19-1.74-.04-.03-.08-.11-.12-.2-.07-.12-.14-.24-.2-.36-.03-.02-.06-.08-.08-.14-.09-.14-.18-.28-.23-.42-.25-.19-.84-.26-1.26-.57-2.04-1.51-3.72-3.9-6.39-4.38l2.12-.83c-.74-.15-1.19-.52-1.61-1.13-1.32-1.93-2.85-7.7-3.86-8.78-.5-.54-4.44-2.52-2.16-3.52ZM122.78,52.38c-.89,1.16-3.04.45-3.58-.75l3.58.75ZM118.69,55.31c.93-.04,1.71-.9,2.45-.92.37,0,3.3.49,3.55.6,1.14.5,3.07,6.61,4.21,7.84l-8.69-3.53-5.47-.13c.32-.7,1-4.3,1.21-4.41.12-.07,1.87.58,2.73.54ZM116.88,48.86c.25.23.21.37-.12.44l.12-.44ZM123.2,24.98c.09.19,1.88.05-.15,2.03-1.51,1.47-4.01.88-4.85,2.64-.79,1.65.43,4.23-.21,5.42-.54,1-4.09,2.59-4.81,4,1.25.23,1.95-1.37,2.95-2,3.56-2.26,3.43.47.75,2.3l1.79-.45c.4,1.21-1.39,1.78-2.27,2.22-.03.31-.44.84-.02.94l1.9-.9c-.89,2.52-.15,4.31-2.57,5.93.07-.02,1.23-.07,1.37.13-.8,1.17-1.41,1.64-2.86,1.83-.08-.19.72-1.46.92-1.64-.06.04-.57-.26-.79-.1-1.25.92-2.5,2.45-3.88,3.33.65.76,2.09-2.08,2.62-.94.35.75-1.9,1.14-1.27,2.02l3.5-2.35-.49,1.75c5.14-2.49.19,1.69-.57,2.95-.13.22.82.41.79.72-.21,1.96-6.79,5.46-8.17,7.21,1.99.08,3.65-2.78,5.67-3.43-.47,1.44-1.62,3.14-2.54,4.33-4.95,6.41-9.44,6.29-15.43,9.84-.53.32-.84,1.18-1.52,1.58-3.96,2.33-7.78,4.41-12.48,2.26,4.36-2.86,7.45-7.18,11.5-10.52,3.79-3.12,4.76-2.27,7.18-7.65,4.74-10.55,8.22-21.35,17.32-29.05,1.93-1.63,4.07-2.61,6.05-4.07-.28-.02-.59-.18-.88-.25,2.26-1.94,1.17-.62,1.44-.07ZM105.89,30.19l.12-.44c.25.23.21.37-.12.44ZM104.85,36.54c-.24.26-.68-.46-.19-1,.24-.26.68.46.19,1ZM104.04,37.74c-.24.26-.68-.46-.19-1,.24-.26.68.46.19,1ZM105.3,31.45c-.24.26-.68-.46-.19-1,.24-.26.68.46.19,1ZM104.74,31.77l-2.65,4.48c-.9-.28.45-1.98.69-2.39.36-.6,1.18-2.11,1.96-2.1ZM101.28,37.46c-.24.26-.68-.46-.19-1,.24-.26.68.46.19,1ZM104.59,23.66c-.35.42-.56-.84-.07-1.44.35-.42.56.84.07,1.44ZM103.67,25.31c-.35.42-.56-.84-.07-1.44.35-.42.56.84.07,1.44ZM102.74,26.95c-.35.42-.56-.84-.07-1.44.35-.42.56.84.07,1.44ZM101.82,28.59c-.35.42-.56-.84-.07-1.44.35-.42.56.84.07,1.44ZM101.01,29.79c-.24.26-.68-.46-.19-1,.24-.26.68.46.19,1ZM100.09,31.44c-.35.42-.56-.84-.07-1.44.35-.42.56.84.07,1.44ZM99.16,33.08c-.35.42-.56-.84-.07-1.44.35-.42.56.84.07,1.44ZM106.01,39.23c-.24.26-.68-.46-.19-1,.24-.26.68.46.19,1ZM106.38,37.91c.19-.94.87-1.66,1.46-2.35.46-.54.06-1.28,1.26-.69l-2.72,3.04ZM107.26,32.93c-.24.26-.68-.46-.19-1,.24-.26.68.46.19,1ZM109.45,34.48l.12-.44c.25.23.21.37-.12.44ZM112.01,29.5c.36-.4.73.97-.59,1.25-.03-.25.52-1.17.59-1.25ZM109.31,11.69c2.03.5,1.89,2.31,2.36,3.49.17.43,1.6-.43-.16,2.33.04-.04.52.24.78.08.4-.24.6-.86,1.16-.9,1.05-.08,2.43.64,3.05,1.51,1.94,2.69-.41,2.42-1.89,3.8-1.23,1.15-2.57,3.02-3.64,4.37l5.17-4.33c.85-2.2,1.71-.46,3.31-.01,1.01.29,3.01-.49,3.22,1.4-1.01.01-3.02-.81-3.81-.82-1.39-.01-7.23,5.79-8.78,7.16-.81.72-.7,1.88-2.25,1.92-.03-1.51,1.93-2.96,3.13-3.65.36-1.84-2.2,1.52-2.62.95l3.21-4.81-3.42,3.8c-1.04-.74,1.42-2.09,1.29-2.96-1.44.28-2.5,1.69-3.17,2.92-.82-.21.05-1.73.17-2.32-.6.4-.67.88-1.12.64.05-.5,1.19-2.07,1.36-1.52-.06.3-.18.58-.24.88,1.04-.69,2-1.07,2.54-2.41.3-1.98-1.38,1.76-2.17,1.09.25-.77.73-1.3,1.04-2.08-.41.31-.71.82-1.12.64l1.05-2.08c.73.05.23,1.04.07,1.44,1.89-1.41,1.41-2.01,2.29-3.16-1.85,1.7-1.18-.59-.4-2.01-.28.16-.76.15-.98.54l-3.68,4.34c1.72-2.86,2.38-5.81,5.44-7.76l-2.05.63c.65-1.08.95-1.8.84-3.08ZM106.16,23.15c.24-.26.68.46.19,1-.24.26-.68-.46-.19-1ZM107.78,10.32l-2.6,2.6c.62-.64,1.38-3.21,2.6-2.6ZM106.58,9.52c-.16.51-.72,1.84-1.05,2.08-.96.7.88-3.06,1.05-2.08ZM108.87,11.57c-1.39,1.22-2.81,2.54-3.78,4.15-.24.39-.96,1.3-.13,1.41.54-1.1,1.55-2.45,2.4-3.3.39-.39,1.29-1.09.83.15l-6.25,8.96-.51-1.56-.41,3.2c-1-.25.51-1.52-.51-1.56l-1.05,2.08c1.02-3.33,2.47-6.04,4.44-8.86.32-.46,4.27-5.88,4.96-4.67ZM104.29,12.68l-1.05,2.08-.43-.12c-.04-.66,1.38-2.6,1.48-1.96ZM101.8,14.84l.12-1.42,2.53-3.07-2.65,4.48ZM104.5,8.47l-1.61,2.4c-.97-.27,1.14-2.59,1.61-2.4ZM101.97,12.51c-.35.42-.56-.84-.07-1.44.35-.42.56.84.07,1.44ZM103.18,8.1l-1.73,2.84c-.95-.55.94-2.94,1.73-2.84ZM100.12,15.8c-.35.42-.56-.84-.07-1.44.35-.42.56.84.07,1.44ZM96.34,20.92c-.83-.23.07-1.97.27-2.47.69-1.72,2.03-4.23,3.01-5.84.28-.46.63-1.59,1.27-1.34l-4.55,9.65ZM100.74,8.39c.24-.26.68.46.19,1-.24.26-.68-.46-.19-1ZM100.37,9.71l-1.17,2.52-.43-.12c.06-.6,1.48-3.13,1.6-2.4ZM99.42,8.02c.35-.42.56.84.07,1.44-.35.42-.56-.84-.07-1.44ZM98.49,9.66c.35-.42.56.84.07,1.44-.35.42-.56-.84-.07-1.44ZM97.57,11.31c.35-.42.56.84.07,1.44-.35.42-.56-.84-.07-1.44ZM92.76,8.09c.24-.26.68.46.19,1-.24.26-.68-.46-.19-1ZM92.15,10.29c-.24.26-.68-.46-.19-1,.24-.26.68.46.19,1ZM88.99,8l-1.85,3.29,1-.21-.04,1.89,1.05-2.08-.28,2.76.9-4.96c1,.25-.51,1.52.51,1.56.48-.93,1.15-2.92,2.29-3.16l-3.62,8.01c-.78.16-1.28-1.54-1.51-1.36-.95.73,1,3.41,1.23,4.13.13-1.59,1.7-3.56,2.34-5.04l-.1,3.76c.44-1.86,1.41-3.29,1.9-5.17l-1.24,1.08,1.17-2.52c.76.08.2.96.07,1.44.02-.02.3.12.52-.17.56-.73,2.69-4.64,3.26-4.95,2.25-1.23-.48,1.86-.54,2-.18.37-.17.8-.31,1.09.21-.08.97-.28,1-.2-.13.59-.34,1.17-.48,1.76.25-.36.76-.62.81-1.2l.43.12c-.19,1.54-.84,2.25-1.85,3.28-.27,1.03-.58,2.05-.85,3.09.11-.12.87-.85,1.12-.64l-1.53,3.84c-.76-.48.22-2.45.41-3.2-.19.21-1.03.38-.93,1.64l-.43-.12c.28-.86.41-1.8.72-2.64-.65,1.07-1.81,1.97-1.91,3.5-.79.56-.33-.66-.22-1.02.86-2.61,2.5-5.65,3.7-8.22-1.66.67-4.3,8.36-5.23,10.42l-.28-2.45c-.84-.38-.4,1.2-1.24,1.08.17.68-.3,1.91.2,2.67-2.51-.81-1.42-1.82-1.65-2.69-.15-.59-.69-.66-.76-1.16-.08-.67.34-1.87.17-2.15-.19-.32-1.47.02-1.22-2.07.07-.54,1.2.44,1.44-.07-2.47-2.7-1.94-4.5,1.83-4.95ZM73.45,3.27c1.56.63,2.69,3.27,3.81,3.81.95.46,2.04.11,3.07.42,1.81.55,4.17,2.18,4.36,4.06.29.09.59.14.88.24.08.82-.7,1.2-1.11.62-.1-.14.25-.64.23-.87-2.22-.7-1.42-1.2-1.84-1.44-.9-.52-1.93.08-1.86-1.48-.52-.09-.16,1.14-.9.7.66-1.8-2.69-.79-3.34-.9-.61-.11-1.27-.93-1.39-.86-.15.08-.17,1.03-.37,1.32,3.68,1.55,10.69,1.94,7.92,7.39l-.15-2.88-1.29,2.96.53-3.64c-.34,1.09-.57,2.22-.91,3.31-.17.53-.12,1.73-.86,1.42.07-1.42,1.65-3.68.89-4.97l-1.82,6.61,1.05-7.3c-.7-.32-.78.94-.88,1.43-.29,1.39.07,3.1-.91,4.25l.47-6.04-1.82,6.61.93-6.86c-.91.29-1.14.32-.76-.68l-1.04,2.08-.39-2-.86,3.08-.27-2.44-.73,2.64-.29-1.51c-.66,1.29-.9.19-1.18.28-.24.08-.12,1.21-1.17.5,1.22-1.21,2.58-2.83,3.53-4.24-1.69-.71-.78-.51-1.52-1.37-.09.68-.56,3.29-1.4,3.41l.65-4.09c.08-.06.59.5.76.68.21-1.51-.19-2.79-.02-4.26ZM67.11,23.8c.4-3.07,1.57-1.43,2.2.6-1.42.27-1.12-1.29-1.3-1.31-.54-.04-.12,1.09-.9.7ZM69.8,22.65l2.08,1.05-.12.43c-.66.04-2.6-1.38-1.96-1.48ZM70.04,21.76c1.54-1.42,6.08-1.47,6.08,1.19l-1.3-1.3-1.18,2.52-.4-2c-.69-.41-.44.82-.93.72-.53-.11-1.41-1.16-2.27-1.13ZM73.83,18.31c.26-1.11.64-2.21.91-3.31.8.11.14,1.11.01,1.66-.26,1.11-.64,2.21-.91,3.31-.8-.11-.14-1.11-.01-1.66ZM74.41,19.65l1.82-6.61.44.12-1.82,6.61-.44-.12ZM70.77,13.91c.62,1.11-2.48.86-2.56.72-.62-1.11,2.48-.86,2.56-.72ZM69.98,9.9l.43.12-.28,2.76-.88-.24.73-2.64ZM68.62,11.42c.35-.42.56.84.07,1.44-.35.42-.56-.84-.07-1.44ZM63.97,24.85c.37.32-1.11.61-1.49.3.52-.37.89-.62,1.49-.3ZM63.6,21.9c.3.3.09.25-.12.43-.78.69-1.06-.04.12-.43ZM61.95,26.18l.12-.44c.25.23.21.37-.12.44ZM64.86,19.88c-.49.91-2.4-.44-3.2-.42.96-1.3,2.18-.19,3.2.42ZM62.01,23.35c-.24.26-.68-.46-.19-1,.24-.26.68.46.19,1ZM68.24,30.03c.53-.25.55-.8.74-.96-2.27-.61-4.41-1.52-6.79-1.15,2.41-1.33,4.01-1.07,6.36.1.67.34.84-.09.43,1.05,1.2-1.07,1.16-1.63,1.49-1.96-.04.06-1.1.26-1.35.57.17-3.86,2.03-1.5,1.35-.57,2.52-2.54,3.93-1.51,6.56-1.88,1.13-.16,2.56-2.01,2.91.21-2.11-1.64-2.1.94-2.61,2.6l-.39-2-1.78,4.72.53-3.64-1.17,2.52.41-3.21c-1.51.34-2.39.36-2.49,2.16l-.51-1.56-.86,3.08-.63-1.12-.61,2.2-.75-.69-.86,3.09-.51-1.56-.86,3.08c-1.17-.83,1.73-3.77-.35-3.88l-1.26,6.29c-.65-.15-.23-1.77-.17-2.31.15-1.34,1.14-3.05,0-3.9l-1.29,2.96-.04-3.32-1.23,9.62c-.62-.23-.54-1.94-.52-2.49.09-2.21.75-4.65.74-6.93-.73-.32-.75.92-.85,1.41-.38,1.95-.27,4.24-.77,6.2-1.17-2.44.24-5.86-.03-8.54l-1.04,2.08-.39-2-.98,3.52-.27-2.44-.85,3.08c-2.24-.62-.25-4.85,1.21-5.39,1.83-.68,5.34,2.95,9.49.96ZM58.65,25.28c.35-.42.56.84.07,1.44-.35.42-.56-.84-.07-1.44ZM61.96,11.49c.35-.42.56.84.07,1.44-.35.42-.56-.84-.07-1.44ZM61,19.29l-.71,1.04-2.68,1.81c.64-1.71,1.64-2.5,3.39-2.85ZM57.24,23.46c-.24.26-.68-.46-.19-1,.24-.26.68.46.19,1ZM59.39,12.2c.24-.26.68.46.19,1-.24.26-.68-.46-.19-1ZM58.59,13.41c.35-.42.56.84.07,1.44-.35.42-.56-.84-.07-1.44ZM57.44,24.47l-.61,2.2c.67-1.03.41-3.74,2.29-3.16.13.25-1.86,3.25-2.03,3.91-.02.1,1.45,1.12.46,1.81-.22.15-1.03-.92-1.19-.8l-1.05,2.08.96-3.53-1.72,2.84,1.2-4.41-1.8,1.4.84-3.09,2.65.73ZM57.78,14.6c-.35.42-.56-.84-.07-1.44.35-.42.56.84.07,1.44ZM58.91,8.75l-.43-.12c.44-2.48,1.32-2.24.43.12ZM57.72,7.95c.48-.56.4,2.32.15,2.88-.48.56-.4-2.32-.15-2.88ZM56.7,13.36c-.35.42-.56-.84-.07-1.44.35-.42.56.84.07,1.44ZM56.74,11.47l-.22-4.33c1.05,1,.45,3.09.22,4.33ZM54.77,15.2c.05.08.06,1.76-.04,1.88-.7-.08-.28-1.27-.89-1.9.05-.4.9-.02.93.02ZM51.71,22.89c-.35.42-.56-.84-.07-1.44.35-.42.56.84.07,1.44ZM55.41,6.84c.25.23.21.37-.12.44l.12-.44ZM53.33,15.28c.12.22-.31,3.1-.53,3.65l-.45-3.28c-.19-.88.87-.55.97-.37ZM53.35,4.85c.16-.08,1.31.43,1.76.48l-1.8,1.4c.16-.43-.3-1.71.04-1.88ZM52.78,5.17c.15.26-.14,3.09-.08,3.77l-.85-3.79c.05-.4.91-.02.93.02ZM50.66,6.01c.13-.22.12-.61.25-.88.76-.37,1.05,4.84.86,5.45-1.08-1.28.19-3.16-1.11-4.57-.13.22-.12.61-.25.88-.76-.03-.03-.72-.57-1.34.26-.28.6.23.81.46ZM48.71,8.79c.25.23.21.37-.12.44l.12-.44ZM47.96,12.38c-.88-.77-.24-2.81-.35-3.88.88.77.24,2.81.35,3.88ZM44.99,7.66c.37-.4,1.82-.58,1.97-.29.11.2-.53,1.36-.48,1.76,0,.06.54.36.56.96.08,2.15-.27,3.83-1.05.8-.13.5-.43,2.25-.83,2.15l-.49-2.51-.66,4.08c-1.02-.04.49-1.31-.51-1.56l-1.26,6.29c-.62-.3-.59-2.33-.52-2.86.23-1.78,2.13-7.64,3.26-8.83ZM40.63,17.49c.37.52.62.89.3,1.49-.32.37-.61-1.11-.3-1.49ZM18.56,22.79c4.41-2.3,4.61-5.85,6.71-9.45,2.15-3.7,8.23-6.27,11.98-3.42l-.45.79c2.47.38,1.44-1.03,3.32.92.12-.27.06-.96.46-.82.71,1.18.65,1.98-.46.82-.17.39-.16.91-.37,1.31l-2.88-1.5v1.67s-.93-.03-.93-.03l.45,1.79-2.28-3.71c.1,1.06,1.58,2.66.75,3.29l-1.3-1.3.06,2.38c-.17-.46-.88-2.44-1.45-2.18-.17.08-.2,1.11-.95.58l-2.05-2.92,1.27,3.18-2.02-1.26,1.06,1.35,1.19,4.25c-1.13-.7-.38-2.5-1.93-2.44-.46.02.05,1.52-2.42-.65-.19.43-.84,1.95-1.05,2.08.43.14.89.22,1.32.36-.06-.72.27-1.04.9-.7.46.25-.12.79-.02.95.14.21,1.06.42,1.14,1.03-.06.37-.75.1-.94-.02l1.26,3.18c-.31-.58-1.51-2.21-2.07-1.98l.52,1.56-2.33-1.83,1.44,2.52-2.51-2.1c-.33.65.66.61.85,1.18.19.58-.21,1.3-.02,1.88.18.57,1.17.53.85,1.18l-4.26-2.59c-1.43,1.09,1.33,1.19,1.05,2.19l-3.84-1.53ZM31.86,18.38c-.42-1-1.64-2-1.26-3.18.62.74,1.24,2.21,1.26,3.18ZM20.8,26.73c-.42-.35.84-.56,1.44-.07.42.35-.84.56-1.44.07ZM22.44,27.65c-.26-.24.46-.68,1-.19.26.24-.46.68-1,.19ZM22.18,33.76c.26.24-.46.68-1,.19-.26-.24.46-.68,1-.19ZM19.5,34.91c-.42-.35.84-.56,1.44-.07.42.35-.84.56-1.44.07ZM20.22,37.48c-.42-.35.84-.56,1.44-.07.42.35-.84.56-1.44.07ZM21.86,38.4c-.26-.24.46-.68,1-.19.26.24-.46.68-1,.19ZM26,25.08c.25-.03,1.17.52,1.25.59.39.36-.97.73-1.25-.59ZM21.21,42.49c-.42-.35.84-.56,1.44-.07.42.35-.84.56-1.44.07ZM22.17,44.18c-.42-.35.84-.56,1.44-.07.42.35-.84.56-1.44.07ZM23.81,45.1c-.26-.24.46-.68,1-.19.26.24-.46.68-1,.19ZM22.97,42.98l2.52,1.17-.12.43c-.6-.06-3.13-1.48-2.4-1.6ZM25.01,45.91c-.26-.24.46-.68,1-.19.26.24-.46.68-1,.19ZM26.06,43.82c-.42-.35.84-.56,1.44-.07.42.35-.84.56-1.44.07ZM25.61,48.92c-.42-.35.84-.56,1.44-.07.42.35-.84.56-1.44.07ZM30.15,42.14c-.42-.46-.22-1.74-.76-2.63-.71-1.15-2.16-1.48-2.66-2.95-.98-2.9-.36-9.08,4.08-6.61l-1.52-1.37c.64-1.03,1.93-.42,2.88-.15-.57-1.02-3.26-3.02-.72-2.57-.92-3.2,2.05-3.56,3.2-4.67,1.32-1.27,1.64-3.5,4.53-3.62.89.6.29,2.75.38,2.93.1.2,1.45-.21.51,1.56-.08.07-.6-.52-.76-.68-.02.79.15,1.88-.82,2.14l-1.48-3.24v2.61s-2.02-1.26-2.02-1.26c.55,1.4,2.48,2.41,1.67,4.25l-1.18-1.74-.35,1.31-2.63-1.66c.54,1.26,1.89,2.36,2.32,3.71.17.54.05.93.11,1.22.67.64,1.83.96,1.28,2.25-.28-.1-.66-.11-.88-.24.06.11.39,2.06.5,2.5-.86-1.63-1.4-1.88-1.44.08-.32-1.06-.95-1.28-1.63-1.86.2.8.71,1.36.84,2.12-1.18-.19-1.21-1.74-2.16-2.24-.69-.36-3.02-.63-3.82-.11,1.28.51,2.15.92,3.34,1.63.59.35,1.61.31,1.52,1.36l-.88-.24c.59,2.3-.68,1.07-1.97,1.36-1.69.38.83,1.31,1.28,1.82,1.02,1.16.23,2.37,2.76,3.08-.24-.44-1.48-1.81-.84-2.12.66-.32,1.49,1.71,1.78,2.15-.09.39-.64.06-.94-.02.59,1.07,1.01,2.15,2.03,2.93l.06-2.82.89,2.84c-2.23.76-4.8.87-6.52-1.03ZM36.03,34.24l.12-.44c.25.23.21.37-.12.44ZM34.33,37.81l-2.33-1.84c.72-1.1,2.09,1.35,2.33,1.84ZM40.55,69.62c-2.29-.53-4.09-.97-5.85-2.63-.7-.66-5.2-7.36-5.41-8.08-.34-1.2-.12-2.52.27-3.68,1.11.56,1.53,1.71,2.16,2.49.19.24,1.04.36,1.14,1.03-.06.37-.76.1-.94-.02.31.47.6,1.13.96,1.69.51.21,2.17,1.25,1.52,1.36-.37-.17-1.08-.17-1.32-.36,1.27,1.35,2.2,2.94,3.68,3.86l-1.12.63,6.56,3.71c-.11.8-1.11.14-1.65.01ZM42.75,65.02c.29.68.94,1.81.73,2.55-.38-.67-1.07-1.77-.73-2.55ZM46.04,69.47c.25-.03,1.17.52,1.25.59.39.36-.97.73-1.25-.59ZM47.59,66.35c.61,1.4,2.04,2.8,2.13,4.36-.61-1.4-2.04-2.8-2.13-4.36ZM50.48,71.4l.12-.44c.25.23.21.37-.12.44ZM53.4,69.37l1.24,1.52c-.48.02-1.79-1.14-1.24-1.52ZM52.81,74.17c.25-.03,1.17.52,1.25.59.39.36-.97.73-1.25-.59ZM56.45,66.89l2.52,3.77c-.89-.9-2.42-2.49-2.52-3.77ZM58.06,72.29c.25-.03,1.17.52,1.25.59.39.36-.97.73-1.25-.59ZM47.95,83.95c-.63.22-1.64.86-2.26.61,1.25-.52,2.78-1.58,4.18-1.46-.23.55-1.31.63-1.93.85ZM52.08,83.69c-.42-.35.84-.56,1.44-.07.42.35-.84.56-1.44.07ZM59.05,82.53c.71-.39,1.27-1.03,2.06-.62.2.27-1.67,1.02-2.06.62ZM57.52,81.16l3.38-.25c-.14.72-1.07.26-1.65.7-.52.39-.75,1.37-.85,1.42-.41.2-1.38-.68-1.91-.75-.67-.09-5.08,1.28-5.61.61.13-.23.49-.63.68-.76-.77.03-1.58.07-2.32-.17.31-1.05,4.2-1.62,3.89-.35,1.11-.33,2.52-.74,3.86-1.15-.99.19-.48-1.59,1.42-1.66-.12.3-1.06,1.53-1.15,1.57,1.91-.6,3.99-1.69,6.02-1.19-1.64,1.43-4.13.42-5.75,1.97ZM61.58,75.87l.12-.44c.25.23.21.37-.12.44ZM62.76,70.74l3.29,3.52c-.41.99-.77.12-1.1-.31-.74-.97-1.45-2.21-2.19-3.22ZM63.42,80.41c.8-.57,1.52-.96,2.5-.5.3.38-2.06.9-2.5.5ZM68.52,67.83l1.56,2.08c-.65-.05-1.96-1.44-1.56-2.08ZM74.6,50.05c.48-.56.4,2.32.15,2.88-.48.56-.4-2.32-.15-2.88ZM65.09,91.53c-2.48-.44-2.24-1.32.12-.43l-.12.43ZM74.63,53.38c.35-.42.56.84.07,1.44-.35.42-.56-.84-.07-1.44ZM70.81,69.87l.12-.44c.25.23.21.37-.12.44ZM74.59,55.26l-.34,4.65c-1.33-1.18.15-3.23.34-4.65ZM68.57,80.64l.88.24-.48,1.76-.88-.24.48-1.76ZM67.8,85.16l.48-1.76,1.32.36c-.37.93-.85,2.01-1.8,1.4ZM67.5,93.15c-.21-.16.75-8.68,2.13-6.05.1.18-1,1.64-1.16,2.3-.22.89.88.68.6,1.5-.13.38-.99,2.38-1.56,2.25ZM69.14,94.07l-1.84,3.28c.47-1.22-.42-3.82,1.84-3.28ZM68.49,98.16c.14.23-.96,2.85-1,3.67-.01.38.77.34.65,1.18-.15,1.05-.78,2.23-.96,3.32l-.09-8.31,1.39.14ZM67.95,107.03l-1.28,2.96c.36-.89-.46-3.79,1.28-2.96ZM66.99,110.55l.88.24-.6,2.2-.88-.24.6-2.2ZM67.44,114.95l-.39,2.26c-1.53,0-.71-1.73.39-2.26ZM67.33,119.66l-1.6,2.4c.34-1.62-.55-3.43,1.6-2.4ZM64.98,129.92c-.06-.15.27-3.1.4-3.2.08-.06,1.82-.1,1.89.03.22.42-1.71,4.61-2.29,3.16ZM64.13,138.22c1.05-2.2-.81-6.2,2.57-5.93l-1.65,4.29h.93c-.96.47-.47,2.4-1.86,1.64ZM64.04,141.99l.6-2.2c.27.1.83.16.88.24.11.19-1.02,1.53-1.05,2.08l-.43-.12ZM6.84,165.39c.19-1.43,1.59-1.02,2.34-1.82,2.04-2.16,2.49-8.95,3.99-11.98.8-1.62,1.51-.59,2.31-1.12,1.43-.94,3.08-8.06,4-9.99.58-.84,1.7-.15,1.91-.25,1.41-.64-2.27-1.49-.84-2.12.12-.05.9.33,1.37.14.89-.35,4.9-9.32,5.51-9.64.24-.13,1.48,1.09,2.08,1.05l5.31-9.96c.6-.51,1.87.24,2.1.11.29-.16,1.9-5.24,3.18-5.85l4.83-4.25c-.55,1.3-1.11,2.04-1.33,3.53-.09.63.7,7.84.88,8.35.26.75,1.24.81,1.47,1.3.32.69-.11,4.08.37,5.56,1.05,3.24,3.05,6.15,3.85,10.08.14.69.05,3.31.17,3.44.4.48,1.87.03,2.25.4.38.38.43,2.45.76,3.28,1.09,2.7,2.75,4.33,3.91,6.33.61,1.06.96,4.4,1.58,5.43.44.74,1.42.97,1.52,1.17.26.54-1.02,7.19-.8,8.51l-2.36,3.34,1.17-7.74c-1.87.49-1.19,4.06-1.61,5.94-.81,3.68-2.22,8.31-3.77,11.73-3.06,6.72-10.49,11.66-12.77,19.08-3.59-4.7,2.57-9.12,5.12-12.91.92-1.37,2.1-3.31,2.61-4.88l-5.64,7.41-2.86,2.83-.19-.99c2.84-4.88,6.82-9.15,9.14-14.34-.61-.28-.78.59-1.09,1-2.78,3.69-4.15,6.84-7.57,10.25-.41.41-.97,1.68-1.07,1.72-.45.21-1-.06-.67-.85.51-1.24,1.18-3.02,1.77-4.1.53-.97,1.54-1.29,1.85-2.3-1.52-.88-.77,2.03-2.06.63,1.04-.81.87-2.25,1.48-3.29.94-1.61,3.45-3.39,4.2-4.39,1.65-2.18,2.35-5.72,4.72-7.73.62-.11,0,2.01,1.07,1.24.09-.06.4-1.4.91-1.99,1.92-2.2,4.96-3.6,5.8-6.82.35-1.34-.24-3.55-.98-1.71-.38.93-.41,1.99-.92,2.97-.3.58-1.75,2.31-2.47,2.5.29-1.31,3.79-6.59,3.83-7.2.03-.5-.53-1.04-1.09-1.06-1.73,3.1-3.51,9.36-6.32,11.41-1.97,1.44-.52-.39-.29-1.12.79-2.51.6-7.9.97-8.75.12-.29.98-.73,1.17.07.15.63-1.4,4.71.12,3.83.28-.16,3.35-5.12,3.37-5.44.07-1-1.82-1.09-1.99-1.3-.07-.09,1.44-1.52.83-2.14-.37.79-2.34,1.21-2.44,1.31-.47.48.74,2.36-.95,1.55-.23-.55,2.15-6.98,1.98-8.75-.05-.54.18-1.17-.76-.86-.25.08-.84,4.47-1.07,5.09-.54,1.47-2.99,3.45-2.84,5.69,2.45-.73,1.43,1.98.47,3.45l1.44-.08c-1.55,4.5-2,10.19-4.8,14.12-.84,1.19-2.48,2.38-3.49,3.67-.74.94-3.61,5.71-3.91,5.89-1.14.71-.69-2.48-.59-2.79.42-1.31,3.06-3.14,3.21-5.02-1.21-.6-.81.19-1.26.7-.73.82-1.52,1.68-2.04,2.66-1.35-.67.12-2.87-.03-3.33-.02-.06-.7-.05-.79-.28-.83-2.17,1.88-3.5,3.11-5.12,1.89-2.52,2.7-5.46,4.64-7.86-1.18-.57-.81.1-1.26.69-1.14,1.51-1.82,3.33-2.87,4.8-1,1.39-2.58,2.25-3.19,3.88-1.72-1.46,1.02-2.95,1.87-4.23.3-.45,1.71-3.15,1.63-3.34-1.08-.54-.84.03-1.34.56-1.1,1.15-1.68,3.04-3.07,3.45-.11-.29,1.67-4.58,2.03-5.25,1-1.89,3.58-4.39,4.36-6.06,1.21-2.59,1.3-6.62,2.63-9.11.83-1.55,4.11-2.4,4.53-4.78-.88-.17-.97,1.3-1.58,1.79-.4.32-2.36.77-3.03,1.21,1.4-2.96.15-7.4,3.15-9.81-4.74.81-6.55,7.7-9.24,11.21,2.75.84-.62,2.61-1.21,4.41-.12.42.53.35.83.47.71-1.11,2.26-3.26,2.62-4.33.26-.79-.67-.73-.65-1.14.05-1.16,3-5.61,3.89-6.79.31-.42.49-1.28,1.09-1-1.57,7.4-1.98,14.13-6.3,20.63-.68,1.02-1.96,2.88-3.12,3.33.52-2.15-.16-4.04.73-6.22.62-1.5,2.49-2.37,2.61-4.24-.28-.11-.6-.13-.88-.24-.47.74-.62,2.56-1.93,1.84.96-1.87.09-3.92.59-5.76.39-1.43,1.72-5.06,2.32-6.44.84-1.93,2.59-3.54,3.37-5.52-2.22.95-3.17,3.97-4.46,5.88l.23-3.99c1.78-4.74,5.01-8.8,5.55-13.98.06-.61-.19-4.2-1.28-3.54.33,1.93-.71,2.38-1.53,3.84l1.37-1.52c1.7,2.08-1.51,3.66-2.02,5.61l1.8-1.4c.14,1.71-1.29,2.66-1.76,3.64-.42.86-.54,3.12-2.05,3.37.98-4.94,2.78-9.98,3.16-15.01.05-.68.38-1.37-.45-1.79l-1.02,5.41c-1.4.25-1.5-3.69-2.48-3.05-.17.11.13,2.11-.32,2.92-.17.31-.99.05-1.06.27-.24.78.82,3.18-.24,4.42l-1.71-2.37c-.35,3.3.74,6.48-.79,9.74l-1.13-1.03c.31.63.14,1.34.38,2.01.61,1.74,3.7,6.83,3.79,8.26.23,3.51-2.04,8.59-1.88,12.41l-5.23-6.88c-.63,2.5,6.92,8.44,4.82,10.09-1.18-1.2-2.46-2.43-3.44-3.8-.52-.72-3.92-6.27-4-6.65-.18-.86.55-5.71.84-6.72,1.03-3.59,4.3-6.17,2.59-10.48-1.09-.48-.51.36-.55,1.06-.16,3.01-.97,3.83-1.73,6.38l-1.67-4.25c-.39,2.41.83,4.74.6,7.21-.13,1.39-1.22,3.98-1.26,5.63l-1.48.09c2.64,4.33,3.37,10.03,5.51,14.73,1.29,2.84,3.31,5.3,4.82,8.03-2.84-.54-4.38-3.62-6.63-5.15.65,1.41,1.55,2.59,2.62,3.71.76.8,3.78,2.95,3.9,3.17.24.43-.26,1.95.34,2.59-1.64-.54-3.64-2.11-5.06-3.45-1.89-1.78-3.1-4.28-5.21-5.77-1.02.57,3.56,6.21,4.16,6.74,1.01.91,5.71,3.65,5.99,4.21.07.15.08,1.46-.12,1.74-2.53-1.61-4.93-3.33-7.34-5.12-.62-.46-.93-.75-1.04.22,2.67,3.9,9.98,4.84,9.01,10.3-.76-.23-1.61-.3-2.31-.73-1.96-1.23-8.5-8.56-9.95-10.7-.84-1.23-4.21-6.57-4.65-7.58-.9-2.01-1.17-5.95.12-7.88l1.5,2.31c1.34-2.36-2.58-2.89-.53-5.83,1.75,2.04,2.75,4.6,4.89,6.33-1.06-2.32-3.24-4.36-4.33-6.55-.34-.68-.35-2.02-.41-2.11-1-1.5-1.4,2.25-1.6,2.4l-1.19-.8c-.86.5,2.72,3.96-.21,4.21.39-1.69-.4-2.55-2.05-2.93,1,2.01,1.82,4.68,1.86,6.94.02.96-.92.55-1.47.28.58,2.13.86,1.47,1.28,2.25-.03-.06,0-1.16.14-1.38l.8,1.4c-.05.4-.92.02-.94-.02.08.15-.16.89.27,1.5.9,1.27,2.23,2.16,3.09,3.46-3.86-.8-4.38-4.29-7-6.42-.39,2.11.79,3.98,1.76,5.7.25.44.89.6.98.73-.04-.08.19-.6.25-.88.16-.11.92.96,1.08,1.24,2.29,1.13,4.31,2.28,5.32,4.78-3.26-.19-4.9.88-7.94-1.24-2.14-1.49-2.69-4.58-4.75-6.03-.7,3.96.29,7.78-.88,11.84-.32.23-1.46-.75-1.62-.94-1.62-1.99.62-8.93.31-11.76ZM10.33,170.15c1.89,1.95,3.22,4.39,4.98,6.46,3.79,4.47,8.38,9.74,13.47,12.6l-13.14-14.28,6.73.18c.51-.02.51-.76.55-.78.24-.09,2.46,3.47,2.99,4.05,1.95,2.15,8.42,7.06,9.38,8.8.43.79.19,1.54.52,2.31l-2.19-.61c.9,2.16,3.17.52,2.41,3.27-1.55-.65-3.21-1.83-4.81-2.29-.71-.2-1.28.12-.91.71.16.25,4.37,2.11,5.21,2.81.76.63.6,1.6,1.55,1.9-.12.87-.86.01-1.27-.2-2.47-1.3-5.22-2.53-7.56-3.88-1.38-.8-2.61-2.06-4.03-2.91-.39-.23-1.12-1.09-1.26-.21,1.98,1.71,3.93,3.45,6.14,4.87,3.04,1.96,7.29,2.86,8.71,6.57-3.57-1.6-7.26-5.44-10.77-6.9-.46-.19-1.9-.48-2.09.27,3.67,2.18,8.93,4.97,12.07,7.82.6.54,1.34.95.89,1.91-2.7-2.31-5.66-4.52-8.66-6.41-4.71-2.98-14.05-6.96-16.98-11.54-.91-1.43-3.71-9.08-2.21-10.09l4.9,5.94,2.07,1.44c-2.79-3.62-6.33-6.98-6.69-11.81ZM38.53,184.78l-.48,1.76-.88-.24c-.17-.31,1.26-2.12,1.36-1.52ZM49.78,154.19c-.35.42-.56-.84-.07-1.44.35-.42.56.84.07,1.44ZM30.76,161.31c1.39.16,4.96,4.15,3.32,5.17-.96.6-3.67-5.01-3.32-5.17ZM27.48,152.57c.72-.25.54.91.75,1.23.81,1.26,1.92,3.09,2.81,4.18.43.54,4.47,3.61,3.25,4.29-1.29.71-7.5-7.42-6.81-9.7ZM36.93,126.83c.38-.4.91-.06.95-.09.18-.15-.96-3.46.34-4.64.62.02.27.4.47.82,1.28,2.61-.36,6.12-.75,8.82-.45,3.12-.77,6.28-1.17,9.4-.67.43-1.88-3.08-1.99-3.51-.56-2.24-1.03-6,1.98-3.36-1.76-2.03-1.68-5.49.18-7.43ZM42.6,239l-1.76-.48.24-.88c-.98.16-1.26.59-1.35.58-1.14-.11-.28-1.26-.99-1.65-.12-.06-2.38-.25-2.68-.22-1.09.1-.42,1-.87,1.11-3.35.84-11.97-3.09-15.16-4.77-2.52-1.33-2.32-2.3-3.68-3.86-1.32-1.51-5.45-3.24-6.18-4.67-.42-.83-.15-2.67-.95-4.3-.75-1.54-2.51-2.9-3.07-4.21-.63-1.5-.29-3.8-.74-5.53-.48-1.81-3.16-6.28-3.34-7.4-.19-1.23.62-2.68.68-4.1.09-2.51-1.55-6.76-1.23-8.65.14-.83.93-.29,1.15-.67,1.07-1.93.15-10.7,1.46-11.19,1.49-.56,4.11,1.85,4.91,2.98,1.24,1.75,1.42,5.39,4.02,6.64-.51.74-2.84.24-3.54,0-1.94-.67-3.57-4.19-4.19-1.18,5.19,3.17,9.28,3.34,14.45,6.1,4.14,2.21,11.32,6.51,14.97,9.33.65.5,4.35,4.15,4.44,4.54.05.23-.12.77-.39.59-3.06-3.43-8.37-3.97-12.28-6.21-.56,1.17.06.81.69,1.26,2.67,1.89,9.91,3.63,11.23,6.27.3.6.15,1.17-.66.75-1.43-.75-2.85-2.2-4.54-3-2.27-1.07-5.13-1.74-7.42-2.84-3.33-1.61-6.4-4.47-9.54-6.11-.88-.46-1.08-.59-1.22.51,6.66,6.92,18.75,8.23,24.96,15,.37.4,1.11,1.28-.15.83l-22.07-11.99c3.02,4.34,9.04,5.67,13.48,7.95,2.97,1.52,5.66,3.61,8.43,5.43-.93,1.15-2.6-.91-3.33-1.27-3.03-1.49-6.26-2.57-9.06-4.52-1.3.82,1.78,2.39,2.73,2.91,3.5,1.9,7.71,2.95,10.59,5.87.33.33,1.29,1.24.85,1.74-2.4-1.5-4.69-3.46-7.13-4.86-6.33-3.63-11.57-5.79-17.85-9.93-3.02-1.99-5.12-1.64-6.73-5.29-.2-.13-.62-.1-.88-.24.04-.46.29-1.02.68-.76-3.01-2.69-2.13-4.97-2.86-8.23-.29-1.31-1.6-2.91-1.41-3.85-.43-.26-1.35-1.29-1.37-.15.7,2.4,2.46,4.23,1.88,6.93-.92-.09-.95-1.05-1.73-1.43-.76-.37-1.11.28-.91.7.21.46,2.42,1.53,2.92,2.25.67.96.89,3.97,2.17,5.09-.98.26-4.96-4.09-3.97-.9.2.66,10.34,6.28,11.83,7.22,1.9,1.19,3.65,2.92,5.76,4.16,5.72,3.39,15.67,7.17,20.18,11.95.59.62,1.19,1.58.85,2.49-1.38-.98-1.87-3.13-3.24-3.73-1.1-.48-.49.41-.46.82-.99.23-3.04-2.44-3.21-.41,1.79.91,6.5,3.36,7.68,4.75.38.44.42.67.17,1.2-1.03-.15-1.81-.88-2.75-1.22-.47-.17-1.56-.77-1.65.01,2.28,1.13,4.48,2.8,5.7,5.13-.45.48-1.29-.24-1.7-.52-4.96-3.28-10.52-6.17-16.06-8.34-4.45-1.74-10.32-2.12-13.47-5.73-.85-.97-2.67-4.79-3.13-6.03-.33-.9-.17-2.87-.6-3.46-1.6-2.2-1.44.15-1.06,1.62.06.23,1.55,1.4.08,1.44,1.44,3.51,2.7,8.77,6.75,9.92.93,1.47-6.69.81-3.75,2.71,2.41,1.56,4.71-1.07,6.22-1.31,1.89-.3,17.7,6.38,20.24,7.81l5.37,4.19c-1.88-.69-4.86-2.83-6.73-1.37,3.32.58,5.85,2.88,8.77,4.31l-.45.81-3.07-1.78c-.89,1.52,1.84,1.23,1.72,2.36-1.33-.51-1.91-.61-3.12-.41.46.03,2,1.28,1.44,1.37ZM45.13,240.17c-.84-.12-1.29-.34-1.58-1.14l1.82.27-.24.88ZM44.61,238.6c-.26-.24.46-.68,1-.19.26.24-.46.68-1,.19ZM47.59,229.47c-1.87-.16.14-2.54.49-3.4l5.74-7.22c1.04,3.83-1.31,3.37-3.31,5.62-1.14,1.28-2.33,3.36-2.93,5ZM54.21,226.07l-.32,1.06-4.13,4.83c.74-1.92,2.02-3.51,2.89-5.37-1.77.96-1.9,2.64-3.73,3.24.37-1.17,3.06-5.17,3.9-5.56,1.6-.74.03,1.88-.17,2.32.22-.12,1.52-.62,1.56-.52ZM53.59,229.22c.73.92.38.96-.13,1.71-.69,1.02-1.75,2.5-2.49,3.48-.27.35-1.22,1.53-1.62.75-.16-.33,3.62-5.15,4.24-5.95ZM47.53,241.78c-1.78-1.06-2.21-1.41-1.03-3.13,1.24-.12,1.31,2.96,1.03,3.13ZM49.23,235.61c.24-.26.68.46.19,1-.24.26-.68-.46-.19-1ZM48.35,244.84l-.8-1.4.26-.15.8,1.4-.26.15ZM49.24,249.36c-.32.37-.61-1.11-.3-1.49.37.52.62.89.3,1.49ZM51.24,244.69c-.57-.8-.96-1.52-.5-2.5.38-.3.9,2.06.5,2.5ZM51.51,237.66c-.31.25-1.74,2.42-1.94.17-.14-1.62,1.02-.79,1.18-.86.22-.83,2.66-4.59,2.87-4.43,1.72,1.31-1.19,4.35-2.11,5.11ZM53.91,239.26l-.65,4.09c-.66-.46-1.11-5.02.65-4.09ZM56.23,221.39c.53-12.96.72-30.88,3.6-43.35.4-1.75,1.33-2.9,1.7-4.28.15-.59-2.12-2.8.93-1.86-.71,1.32-.25,3.09-.67,4.33-.31.93-1.51,1.61-1.47,1.71.03.06.76.22.95.75.51,1.41-1.21,12.85-1.46,15.35-1.19,11.99-2.06,23.92-2.55,35.31-.09,1.99-.65,4.37-.74,5.99-.04.77.61,3.54.48,4.08-.14.6-1.27.91-1.26,1.77,1.96-.19,1.29,2.16.05,2.38-.92.16-.53-1.05-.51-1.55.29-6.9.65-13.77.94-20.63ZM52.68,254.11c.64.01.31.88.52,1.56-1.22-.1-.85-.51-.52-1.56ZM55.35,244.4c.41.18,1.67.34,1.76.48.41.68-2.56,4.37-1.76-.48ZM54.73,251.82l.48-1.76c.34.15,1.24.24,1.32.36.28.45-1.19,1.47-1.8,1.4ZM56.81,252.87l-1.8,1.4.04-1.88,1.76.49ZM55.38,247.73l.88.24c-.11.85-.42,1.53-1.36,1.52l.48-1.76ZM52.55,259.75c-.35-.61.77-1.25,1.12-.64.35.61-.77,1.25-1.12.64ZM55.21,255.27l.88.24c-.21,2.05-1.74,1.63-.88-.24ZM55.43,259.6c-.35.42-.56-.84-.07-1.44.35-.42.56.84.07,1.44ZM59.27,242.16c-.8-.38-.48-1.12-.48-1.77-.02-5.21.66-11.75,5.84-14.3-2.07,5.27-4.07,10.54-5.36,16.07ZM61.65,225.73l4.81-6.25c.84.13.05,1.61-.19,1.96-.86,1.27-3.29,3.34-4.62,4.29ZM61.94,239.32c.99-3.25,2.58-8.26,4.06-11.18.37-.73.76-1.13,1.61-.76-.47,1.41-1.4,2.66-1.88,4.07-.51,1.51-.82,4.34-1.3,5.68-.38,1.05-1.72,2.39-1.83,3.27-.04.31.76.47.75.82-.04,1.53-1.7,2.55-2.46,3.75,1.58.04,1.52,1.05.8,2.29-.08.14-2.98.58.17,1.06-2.04.81-.61,2.37-.89,2.99-.19.42-1.18.62-1.34,1.61-.04.23.79.43.77.78-.05,1.09-1.01,1.78-1.16,2.42-.07.3.93.32.69,1.14-.21.72-1,1.39-1.11,2.05-.03.21,2.14,2.31-1.43,2.75.84-7.72,2.29-15.27,4.56-22.72ZM57.5,265.86c-1.13.6-.74-2.93-.59-3,.1-.05,1.69.51,2.32.16.12.29-1.58,2.76-1.73,2.84ZM68.06,222.28c.34-.99,1.65-3.6,2.48-2.16.36.63-1.32,2.88-2.48,2.16ZM71.32,215.59l.85-3.09,1.32.37c.16.26-1.39,2.85-2.16,2.72ZM62.97,283.95s-.98-.09-.82-.46l1.41-.79c.01.26-.53,1.21-.59,1.25ZM98.77,232.14c.25.23.21.37-.12.44l.12-.44ZM82.28,249.9c.34-1.22,1.44-2.72,2.72-3.05-.34,1.22-1.44,2.72-2.72,3.05ZM191.19,190.29c-.3.25-.39,1.18-1.03,1.77-.99.93-3.53,1.32-4.8,2.03-2.77,1.54-2.45,3.31-4.25,5.6-1.12,1.43-5.38,4.25-5.49,5.38-.03.35,1.15.38.65,1.13-.36.53-4.7,4.66-5.51,5.37-.71.63-2.43,1.16-2.8,1.64-.7.92-.93,2.96-2.79,4.86-.92.94-5.38,3.74-5.52,4.05-.22.5.4,1.13.38,1.59-.03.73-5.38,6.5-6.39,7.46-1.25,1.18-3.17.78-.18,2.94-2.05.64-3.3,2.86-4.85,3.9-.84.56-2.62.86-3,1.3-.45.52.05,1.41-.56,2.19-.29.37-4.41,3.46-5.12,3.94-.71.48-3.79,1.19-3.37,2.22.08.2,1.24.13.54,1.15-2.34.4-4.38,2.02-6.77,2.82-.7.23-2.01-.02-2.44.33-.64.54-.13,1.69-.25,1.8-.23.21-5.35,1.34-6.11,1.36-1.82.04-3.96-.71-5.54-.7-.4,0-.51.7-.86.69-2.23-.08-6.51-3.8-9.08-4.8-4.93-1.93-9.92-2.6-15.14-1.93-2.3.3-5.46.94-7.21,2.36,2.06-3.8,3.35-5.05,7.74-5.35,5.55-.37,11.77,2.38,17.51,2.33.18-.77.55-.85-.34-.93-1.5-.14-3.28-.2-4.73-.46-4.3-.79-8.57-2.37-12.98-1.89-1.86.2-3.31,1.01-5.08,1.21l3.15-1.98c7.08-3.38,16.93-.6,24.13,1.89.76.26,4.76,1.83,4.93,2.03.82.97-1.18,2.87.27,3.18,1.69-.47.96-2.63,1.24-3.23.4-.85,2.12,0,2.86-.02,2.6-.07,8.15-.81,10.4-1.99.45-.24,4.66-3.13,2.56-3.35-.94-.1-4.08,2.29-5.87,2.76-13.25,3.42-22.16-5.18-34.49-5.05-1.39.01-3.93.34-4.86,1.26.56-3.36,7.85-3.79,10.59-3.61,2.82.18,5.42,1.24,7.98,1.6.83.12.67.35.9-.7-2.25-.45-4.6-1.5-6.83-1.88-2.24-.38-5.88-.41-8.1.14,4.53-5.66,13.26-1.82,19.07-1.8.81,0,1.14.65,1.28-.66-5.08-1.02-10.14-2.35-15.37-1.84l1.19-1.46c3.6.33,7.19-.69,10.79-.36,8.25.76,16.57,5.07,24.96,3.98,1.63.01.75,3.83,2.14,3.12,1.87-.96-.76-2.94.02-3.55,3.44-.25,7.87-1.86,10.58-3.97.41-.32,3.93-3.62,4.12-3.88.49-.66.7-1.32.84-2.12l-3.98,2.48c-3.57,4.45-9.39,6.18-14.95,6.41-10.84.46-21.44-6.02-32.42-4.04.78-2.12,2.75-2.41,4.71-2.83,5.38-1.13,11.63-.34,16.96.73.35-1.01.36-.74-.41-1.06-4.75-1.98-11.46-1.7-16.5-1.21.04-1.02.8-.83,1.39-1.14,3.83-2,10.53-2,14.78-1.48,1.51.18,8.36,2.07,9.25,1.54.3-.18.57-.86-.34-.93-7.18-.6-13.99-4.16-21.13-1.17-.15-.4.61-1.02.93-1.16,1.01-.42,4.94-1.22,6.18-1.38,7.28-.94,15.5,1.36,22.81,2.18,1.54.17,3.62-.27,4.86-.03,1.5.29,1.41,1.18,2.56,1.65.31-2.09,1.75-1.21,2.99-1.62,3.22-1.08,10.48-4.45,12.18-7.36.31-.54.95-1.51-.16-1.59-1.14.57-1.68,1.8-2.64,2.56-11.7,9.22-23.79,3.15-36.98,2.35-2.28-.14-4.39.4-6.53-.04-.36-.46,7.81-5.3,8.94-5.53,1.3-.27,5.33-.76,6.63-.77,5.14-.04,10.55,2.86,15.67,3.03.32-.74-.89-.69-1.42-.86-5.94-1.87-12.14-3.63-18.34-3.15,2.92-2.98,9.8-2.92,13.72-2.21.79.14,1.57.85,2.48,1.02.88.16,6.36,1.01,6.65.83.11-.07.21-.98.36-1.32-4.81.01-9.32-1.81-14.02-2.44-.1-.12.39-.51.62-.55.96-.17,8.1.41,9.63.58,1.91.21,7.32.86,8.59,1.71,1.17.79,1.45,2.24,2.69,2.75l-.59-3c3.28-.06,6.84-.05,9.99-1.07.78-.25,5.87-2.17,3.86-3.66-.6-.45-2.67,2.07-3.67,2.04-7.52,2.7-15.03.05-22.65-.59-1.97-.17-4.04.21-5.95,0-.49-.05-1.66.05-1.34-.72,4.06-1.18,7.44-2.94,11.84-2.39,2.29.28,9.78,2.64,11.35,1.65.37-.23.65-.76.23-.9-4.69.2-9.02-2.08-13.71-1.87.62-.9,3.11-1.86,4.09-1.96,5.14-.52,7.58,1.15,12,2.14,1.88.42,3.87.1,5.74.61.85-.38.16-.83-.42-1.07-1.73-.71-3.25-.16-4.67-.49-1.64-.38-4.23-1.4-6.03-1.97-.53-.17-1.73-.12-1.42-.86,1.91-.06,15.1,1.3,15.55,1.95.21.31-.99,1.51.56,1.52-.31-2.86,1.84-1.92,3.83-2.74.56-.23,4.76-2.47,4.39-3.06-2.26-.85-3.9,1.3-5.78,1.94-2.26.77-7.66.28-10.13-.15-.69-.12-3.12-.46-3.18-1.33,2.67.03,5.07-1.43,7.67-1.91,1.97.13,6.29,1.29,7.92.87,4.24-1.11-2.47-1.1-2.89-1.15-.44-.05-1.76-.19-1.43-.87,1.76.45,3.44-.54,5.19-.36,2.34.24,6.5,2.27,8.24-.22l-4.52-.77c2.67.1,5.67-.7,8.32-.11,2.09.46-1.21.65-1.28.71ZM169.33,190.11c.77-.54,5.26-3.36,5.88-2.41.25.38-3.31,2.77-3.7,2.97-.51.25-3.22,1.19-3.48.75.04-.88.75-.92,1.3-1.3ZM204.15,192.8c-2.46-1.47-5.59-1.77-8.25-2.75l4.21-.13,1.23-.74c-2.03-.71-4.24-1.16-6.31-.32-.39-.04-.02-.91.03-.94-.1.04-1.78.4-1.88.4-.88.03-2.23-.63-3.32-.42.65-1.01,2.68.17,3.5-.7.63-.67-.4-.88-.92-.97-2.96-.51-6.96,2.5-10.15,2.43-.46-1.61,1.44-1.83,2.59-1.66.42-2.41-.9-.43-1.19-.32-.97.35-2.3.27-2.88,1.35-.23.42,1.13.18.7.89-1.52-1.4-1.17,0-2.58.36-1.14.29-2.57.36-3.75.27l3.99-2.45-3.15-.63c2.02.11,3.84-1.06,5.79-1.27,1.39-.15,6.66.73,6.81.22.27-.89-3.44-1.02-3.92-1.69-1.97.08-3.87.01-5.75.69.17-1.4.66-2.62-1.16-2.69-.21.07,1.16,1.74-.05,2.84-.25.23-5.29,1.87-6.41,2.47-2.68,1.44-4.96,4.15-7.09,5.51-.94.6-3.16.72-4.25,1.36-.45-.63.76-1.48,1.16-1.89,1.18-1.19,3.9-3.76,5.2-4.59.82-.52,3-.98,3.09-1.12,1.71-2.59-4.13.1-4.96.77-2.19,1.75-5.04,6.16-7.07,7.51-.22.15-4.01,1.68-4.24,1.71-.86.12-.6-.6-.41-1.06-.09.04-.53-.24-.78-.1-1.17.66-2.46,3.06-4.62,3.35-.48-.3.12-.99.36-1.33,2.16-3.11,9.02-9,12.28-11.11.61-.4,6.18-3.45,6.54-3.54,1.5-.38,4.38.24,6.1.23.8,0,1.14.67,1.28-.66-4.87-1.92-9.02-.81-13.13,2.07.1-.9,1.9-2.65.07-2.82-.52,2.55-1.99,4.19-4.12,5.51l-.07-1.44c-2.21,1.11-3.85,2.14-5.66,3.81-.47.44-.65,1.4-.79,1.53,1.27-1.12,2.74-2.03,4.23-2.78.4-.2,1.08-1.33.76.12-2.3,1.71-4.34,3.77-6.4,5.76-2.38,2.29-2.8,4.07-6.11,5.28-.68.83-1.07,2.09-2.49,2.16.08-.29.13-.61.24-.88-1.61,1.05-1.73,1.72-2.7,2.45-.4.3-2.83,1.14-3.53,1.3,7.66-6.76,13.22-15.22,21.87-20.89,4.37-2.86,4.82-2.36,9.53-3.02,2.1-.29,3.77-2.21,6.01-1.15.64.3.96,1.16,1.56,1.35.91.29,4.1-.84,6.24-.21,1.73.51,1.96,1.83,2.79,2.14.48.18,3.78-.14,5.18.25,1.58.44.88,1.47,1.76,1.79,1.63.6,3.4.06,5.05.44l10.46,6.14s1.58,1.07,1.74,1.46c0,0-1.25.89-2.22.31Z"/>
  <path class="c" d="M163.19,187.11c.14-.07.27-.14.4-.23-.15.04-.28.15-.4.23Z"/>
  <path class="c" d="M158.29,190.64c-1.86.76-1.37-.16-2.93,2.04,1.48-.78,1.33-.35,2.93-2.04Z"/>
  <path class="c" d="M163.19,187.11c-.05.03-.11.06-.16.09.05-.02.11-.05.16-.09Z"/>
  <path class="c" d="M162.02,187.39c-.14.05-.27.14-.4.22.12-.06.28-.14.4-.22Z"/>
  <path class="c" d="M159.65,189.12c-.66.65-.9,1.02-1.37,1.52,1.41-.58,1.11-1.33,1.37-1.52Z"/>
  <path class="c" d="M161.46,187.71c-1.26.66-.9.51-1.81,1.4.74-.57.58-.21,1.81-1.4Z"/>
  <path class="c" d="M19.8,230.6c2.65,2.77,8.97,5.39,12.73,6.05.46.08,2.12.39,2.26-.26-5.26-1.07-10.2-3.44-14.99-5.79Z"/>
  <path class="c" d="M16.31,215.66c1.11,2.06,4.21,3.2,6.28,4.06.84.35.66.08.85-.68l-7.13-3.38Z"/>
  <path class="c" d="M22.63,213.36c.7.38,1.34.72,2.15.82-.49-1.47-2.74-2.07-3.92-2.97-.64.86,1.31,1.89,1.78,2.15Z"/>
  <path class="c" d="M30.32,221.63c2.2,1.27,5.42,2.82,7.78,3.77.85.34.65.09.85-.67l-9.78-4.11c-.29.65.68.74,1.15,1.01Z"/>
  <path class="c" d="M13.9,214.06c0,1.09,1.14,1.32,1.96,1.48.02-.15.16-.36.12-.43-.15-.24-1.62-.95-2.08-1.05Z"/>
  <path class="c" d="M16.56,209.56l.24-.88-1.82-.27c.29.81.74,1.03,1.58,1.14Z"/>
  <path class="c" d="M17.88,209.93c-.53-.49-1.25-.04-1,.19.53.49,1.25.04,1-.19Z"/>
  <path class="c" d="M34.17,220.56c.91.3,1.19.6,1.34-.58l-5.61-2.01c.3,1.17,3.16,2.22,4.27,2.59Z"/>
  <path class="c" d="M15.93,203.23c-1.6-1.84-4.7-3.15-6.32-4.59.04.03.04.64.2,1,1.67,1.06,3.18,2.36,4.87,3.37.39.23,1.12,1.09,1.26.21Z"/>
  <path class="c" d="M17.55,195.06c.82.42.97-.39.81-.65-.13-.2-3.44-2.22-4.05-2.53.33,1.2,2.18,2.64,3.24,3.18Z"/>
  <path class="c" d="M7.01,208.12c.1.77,1.3,2.3,2.22,2.27-.19-.47,0-1.3-.08-1.44-.08-.15-2.33-2.34-2.14-.83Z"/>
  <path class="c" d="M13.87,191.75c0-.94-.67-1.25-1.52-1.36,0,.94.67,1.25,1.52,1.36Z"/>
  <path class="c" d="M175.18,193.85l-.12.44c.33-.07.37-.22.12-.44Z"/>
  <path class="c" d="M14.19,211.29c.89,1.65,3.37,3.11,5.13,3.77l-5.13-3.77Z"/>
  <path class="c" d="M41.08,237.64s.05,0,.08-.01c-.03,0-.06,0-.08.01Z"/>
  <path class="c" d="M40.93,234.75c-5-1.16-9.33-1.51-14.02-3.75-.81-.39-.54-.12-.77.63,4.37,1.98,9.15,3.1,13.89,3.82.68.1,1.44.02.89-.7Z"/>
  <path class="c" d="M36.93,129.34c-.31.39-.02,1.86.3,1.49.32-.61.07-.97-.3-1.49Z"/>
  <path class="c" d="M174.39,194.12c-1.83.14-4.36-.44-5.89.75,2-.14,4.36.79,5.89-.75Z"/>
  <path class="c" d="M17.96,226.51c-.3-.23-.2-.76-.27-.82-.8-.84-1.81-.25-1.4.4.09.14,2.3,1.81,2.65,2.03.92.61,1.96,1.15,3.04,1.43-.55-1.51-2.77-2.08-4.02-3.03Z"/>
  <path class="c" d="M12.59,213.68c.53.49,1.25.04,1-.19-.53-.49-1.25-.04-1,.19Z"/>
  <path class="c" d="M50.75,236.97c-.27,1.01.03,1.46.76.68.27-.29.64-1.61,1.04-2.08-.73-.22-.7.91-1.8,1.4Z"/>
  <path class="c" d="M8.99,206.06c.29-1.11-2.16-4.6-3.12-4.17-.97.43.34,1.14.52,1.36.38.48,2.21,3.01,2.6,2.81Z"/>
  <path class="c" d="M14.6,208.07c.02-.15.16-.36.12-.43-.15-.25-2.16-1.23-2.52-1.17-.38.62,1.89,1.69,2.4,1.6Z"/>
  <path class="c" d="M30.18,229.9c.64.09,1.36.11.89-.7-4.5-.73-8.35-3.44-12.18-5.71,1.88,2.77,8.05,5.96,11.28,6.41Z"/>
  <path class="c" d="M36.88,232.21c.49-.53.04-1.25-.19-1-.49.53-.04,1.25.19,1Z"/>
  <path class="c" d="M34.55,229.65c.84.35.67.07.86-.68-2.86-1.79-4.14-.68-.86.68Z"/>
  <path class="c" d="M189.83,126.74c.92.72.63-1.17.57-1.26-.64-.9-1.62.44-.57,1.26Z"/>
  <path class="c" d="M178.92,137.97l.88.24c.3-.57.08-1.24-.51-1.56l-.36,1.32Z"/>
  <path class="c" d="M186.88,124.52c-.49.53-.04,1.25.19,1,.49-.53.04-1.25-.19-1Z"/>
  <path class="c" d="M180.33,123.46c.04.09.08.17.14.24,0-.07-.07-.16-.14-.24Z"/>
  <path class="c" d="M172.9,114.98c-.1.05-2.27-.06-2.33-.16.3.9,1.3,4.91,1.44,5.13.36.56,1.4.08,1.1-.64-.04-.09-.6-.01-.69-.43-.02-.1-.16-2.09.2-2.07.86,2.36,2.37,4.79,3.23,7.09,1.51,4.04,2.01,8.3,3.53,12.31.06-5.32-1.98-12.47-4.42-17.2-.24-.47-1.04-.6-1.42-1.34-.33-.63-.21-1.5-.34-2.12-.05-.07-.53-.08-.32-.56Z"/>
  <path class="c" d="M181.54,115.46l-.12.44c.33-.07.37-.22.12-.44Z"/>
  <path class="c" d="M181.72,117.4c.6.49,1.86.28,1.44-.07-.6-.49-1.85-.28-1.44.07Z"/>
  <path class="c" d="M179.06,146.08c-.48-2.15-5.2-7.61-6.56-10.59-1.31-2.87-2.98-7.77-3.86-10.82-.55-1.92-.18-5.38-1.98-5.94.37,4.11,1.38,7.97,2.7,11.85,2.55,7.48,5.48,10.59,9.34,16.82-.03-.36.42-1.05.36-1.32Z"/>
  <path class="c" d="M170.58,114.82c-.03-.05.3-1.36-.2-1-.6.43.18.93.2,1Z"/>
  <path class="c" d="M172.9,114.98c.5.07.28.38.32.56.22.3.75,1.2,1.13,1.03-.73-.52-.27-2.13-.33-2.23-.09-.09-.17-.2-.26-.32-.53-.42-.8.92-.87.96Z"/>
  <path class="c" d="M173.07,131.63c.72-.75-.48-3.1-1.15-2.68-.54.33.59,2.31,1.15,2.68Z"/>
  <path class="c" d="M171.82,128.43l-.07-2.38c-2.25-.6.02,1.59.07,2.38Z"/>
  <path class="c" d="M167.28,118.18c.33-.21-.22-3.27-.91-3.57-.5.55-.1,4.21.91,3.57Z"/>
  <path class="c" d="M177.75,140.5c.6,1.86.98,3.64,1.31,5.57.08.47.83,1.1.46,1.78-.05.5-.82-.41-.83-.46.18.29-.38,1.68.96,1.68,1.42-1.09-.61-9.27-1.91-8.58Z"/>
  <path class="c" d="M211.67,109.08c.95.69,2.01,1.25,2.8,2.14.36.16.48-.76.45-.81-.16-.3-3.33-2.4-4.04-2.54-.61,1.27.21.79.79,1.21Z"/>
  <path class="c" d="M195.96,115.63c-.26.62.94,1.11,1.35,1.27,3.76,1.47,7.81,2.78,11.35,4.77,1.15.64,7.47,5.51,7.89,5.29.69-.36-.36-1.37-.63-1.68-2.7-3.14-11.68-7.62-15.66-8.96-1.47-.5-2.83-.36-4.29-.69Z"/>
  <path class="c" d="M196.65,109.65l.12-.43c-2.35-.89-2.6,0-.12.43Z"/>
  <path class="c" d="M201.81,111.55c-.6-.49-1.86-.28-1.44.07.6.49,1.85.28,1.44-.07Z"/>
  <path class="c" d="M199.35,98.06l.24-.88-1.88-.04c-.37.74.89.62,1.64.92Z"/>
  <path class="c" d="M208.02,97.6c-.21.03-.63.85-1.12.64.07.02.7,1.06,1.2.8.16-.08.17-1.04.37-1.32-.15-.04-.35-.14-.44-.12Z"/>
  <path class="c" d="M182.07,97.12c-.08-.07-1-.62-1.25-.59.28,1.32,1.64.95,1.25.59Z"/>
  <path class="c" d="M204.54,113.71c-.03-1.21-1.43-1.36-2.4-1.6-.7.12,1.67,1.71,2.4,1.6Z"/>
  <path class="c" d="M190.5,135.47c-.53-.49-1.25-.04-1,.19.53.49,1.25.04,1-.19Z"/>
  <path class="c" d="M190,123.48c-.35-.61-1.47.02-1.12.64.35.61,1.47-.02,1.12-.64Z"/>
  <path class="c" d="M187.4,126.08c-.36.97-.2,2.08.38,2.94.38-.47.11-3.31-.38-2.94Z"/>
  <path class="c" d="M155.66,98.39c.53.49,1.25.04,1-.19-.53-.49-1.25-.04-1,.19Z"/>
  <path class="c" d="M177.07,117.08c-.1-.23-.1-.35-.32-.56.05.28-.01.41.32.56Z"/>
  <path class="c" d="M135.8,129.33c.19-.21,2.58-.37.32-1.21-1.01,1.97-4.94,4.29-5.47,6.08.54-.16,1.93-.33,2.01-.4.36-.29,2.44-3.71,3.15-4.48Z"/>
  <path class="c" d="M123.3,140.25c-.1.07-1.15,1.62-1.27,2.01.59-.24,1.8-1.36,1.7-1.89-.15-.02-.36-.16-.43-.12Z"/>
  <path class="c" d="M124.67,133.51c-.18-.45-1.83,1.31-1.71,1.89.9-.39,1.6-.82,1.71-1.89Z"/>
  <path class="c" d="M162.48,143.42c1.12-.48,1.21-1.61,1.39-2.64,1.03-5.84-2.88-19.31-6.78-23.49.46,3.49,2.27,5.4,3.54,8.59,2.27,5.71,3.31,11.45,1.85,17.55Z"/>
  <path class="c" d="M138.92,126.52c-.52-.98-1.47.69-1.59,1.45.49-.22,1.87-.92,1.59-1.45Z"/>
  <path class="c" d="M144.07,129.35l-.12.44c.33-.07.37-.22.12-.44Z"/>
  <path class="c" d="M148.39,143.81c.15-1.7.63-3.42.81-5.11.04-.41.18-1.38-.43-1.42-.58,1.7-.94,3.42-.97,5.22-.02.79-.8,1.17.6,1.32Z"/>
  <path class="c" d="M138.78,118.41c.19-.11.37-.2.56-.32-.18.1-.33.11-.56.32Z"/>
  <path class="c" d="M143.42,118.74c.49-.53.04-1.25-.19-1-.49.53-.04,1.25.19,1Z"/>
  <path class="c" d="M182.5,92.96c3.98,1.41,9.57-.47,13.53-1.75.26-.08,1.82.08,1.17-.85-.53-.76-13.52,4.51-15.56,1.42-.51,1.19-.01.88.85,1.18Z"/>
  <path class="c" d="M124.8,133.07c1.81-.59,2.51-2.89,3.69-4.3.89-1.06,5.92-5.9,5.55-6.91-.33-.08-.63.16-1,.2-2.02,2.67-3.87,4.6-5.82,7.09-.86,1.09-1.81,2.66-2.41,3.93Z"/>
  <path class="c" d="M146.28,115.26c-.56-1.01-1.85,1-1.92,1.84.16.4,2.19-1.37,1.92-1.84Z"/>
  <path class="c" d="M139.34,118.09c.32-.19.09.19,1.12-.64-1.06-.55-.99.56-1.12.64Z"/>
  <path class="c" d="M160.21,145.64l-2.33,5.05c1.92-.52,1.62-3.53,2.33-5.05Z"/>
  <path class="c" d="M180.33,123.46c-.05-.12-.11-.24-.18-.32,0,.09.1.21.18.32Z"/>
  <path class="c" d="M157.63,130.94l1.76,7.36c-.18-1.62.1-5.42-.68-6.67-.07-.11-.84-.9-1.08-.69Z"/>
  <path class="c" d="M180.14,123.14c-.02-.32.47-1.01.31-1.29-.17-.3-1.06-.22-1.27-.4-.41,1.28.28.95.96,1.69Z"/>
  <path class="c" d="M157.19,151.45c-1.98-.95-1.2.43-1.68.96.11-.08.7.3.88.24.04-.04.1-.07.16-.1.11-.07.25-.16.4-.22.12-.23.14-.6.24-.88Z"/>
  <path class="c" d="M151.64,123.37l4.65,19.3c.76-2.31-.1-5.25-.67-7.61-.95-3.93-2.58-7.89-3.98-11.68Z"/>
  <path class="c" d="M179.19,121.45c.16-.51.89-1.01.82-1.58-.02-.13-1.23-2.14-1.33-2.22-.59-.46-1.12-.36-1.6-.58.57,1.32.63,3.12,2.12,4.38Z"/>
  <path class="c" d="M151.24,121.37l-.36,1.32.88.24c.3-.57.08-1.24-.51-1.56Z"/>
  <path class="c" d="M156.95,129.09c.92.72.63-1.17.57-1.26-.64-.9-1.62.44-.57,1.26Z"/>
  <path class="c" d="M157.7,129.78l-.12.44c.33-.07.37-.22.12-.44Z"/>
  <path class="c" d="M156.24,125.58c.49-.53.04-1.25-.19-1-.49.53-.04,1.25.19,1Z"/>
  <path class="c" d="M151.21,118.04c-.29.81-.66,1.9.27,2.44.39-.55.14-2.92-.27-2.44Z"/>
  <path class="c" d="M111.43,44.52c-.79.46-1.78,1.38-2.05,2.26.79-.46,1.78-1.38,2.05-2.26Z"/>
  <path class="c" d="M104.16,18.33c.49-.53.04-1.25-.19-1-.49.53-.04,1.25.19,1Z"/>
  <path class="c" d="M184.87,86.97c1.41.85,1.63-.55,2.46-.74,4.24-.99,8.51-1.7,12.23-4.64.28-.22,1.26-.48.87-1.25-.28-.56-1.44.3-1.78.46-3.49,1.56-6.83,4.53-10.76,4.62l-3.02,1.56Z"/>
  <path class="c" d="M94.26,14.86c.23-.47.71-1.34.93-1.83-.86.65-.74,1.28-.93,1.83Z"/>
  <path class="c" d="M109.74,17.02c.42-.23,1.81.18,1.93-1.84-1.02.03-1.5,1.07-1.93,1.84Z"/>
  <path class="c" d="M94.15,15.11c.05-.08.08-.16.11-.25-.05.11-.09.2-.11.25Z"/>
  <path class="c" d="M102.43,21.17l1.17-2.52c-.12-.73-1.54,1.8-1.6,2.4l.43.12Z"/>
  <path class="c" d="M111.5,17.5s-.06.09-.13.19c.05-.08.1-.15.13-.19Z"/>
  <path class="c" d="M112.11,43.75l-.12.44c.33-.07.37-.22.12-.44Z"/>
  <path class="c" d="M33.06,28.68c.34.15,1.8,1.27,1.96,1.49-.17-.52,0-1.07-.08-1.44-.69-.65-1.23-.97-1.96-1.49.08.27-.02.95.08,1.44Z"/>
  <path class="c" d="M122.63,25.3s.5.19.56-.32c-.48-.21-.53.32-.56.32Z"/>
  <path class="c" d="M110.7,18.71c.27-.33.53-.76.68-1.01-.23.35-.64.97-.68,1.01Z"/>
  <path class="c" d="M112.55,39.61c-.49.53-.04,1.25.19,1,.49-.53.04-1.25-.19-1Z"/>
  <path class="c" d="M110.7,18.71c-.11.13-.46.18-.56.32.14-.13.44-.18.56-.32Z"/>
  <path class="c" d="M28.59,15.59l-1.07-2.18-.26.15c.73.89.03,2.04,1.33,2.03Z"/>
  <path class="c" d="M24.43,17.78l2.07,1.98-1.28-2.24c-.16.1-1.27-.68-.79.26Z"/>
  <path class="c" d="M95.63,13.15c.19-.74.43-1.46.61-2.2-.72,1.01-.62,1.15-1.05,2.08.07-.05.39.18.44.12Z"/>
  <path class="c" d="M29.64,32.49l-.24.88,2.2.61c.07-.23-.58-1.09-.64-1.12-.33-.19-.92-.19-1.32-.36Z"/>
  <path class="c" d="M31.37,29.64c-.7,1.2.63,1.15,1.4,1.8-.13-.5,0-1.19-.08-1.44-.43-.05-.88-.29-1.32-.36Z"/>
  <path class="c" d="M35.02,30.17c.08.24.03.39.32.56-.11-.21-.18-.37-.32-.56Z"/>
  <path class="c" d="M33.21,12.59c.49-.53.04-1.25-.19-1-.49.53-.04,1.25.19,1Z"/>
  <path class="c" d="M27.3,18.56s.17-.39.12-.44c-.11-.1-.62-.15-.88-.24.05.63.7.55.76.68Z"/>
  <path class="c" d="M88.97,18.43c-.05-.19-.26-.38-.32-.56-.02.26-.02.51.32.56Z"/>
  <path class="c" d="M45.78,8.23c-.19.82.01,1.85.22,2.66.14-.55.45-1.26.48-1.76.03-.44-.55-1.61-.71-.9Z"/>
  <path class="c" d="M44.7,9.59l-.12.44c.33-.07.37-.22.12-.44Z"/>
  <path class="c" d="M27.3,18.56c.06.05.06.38.32.56-.03-.23-.24-.39-.32-.56Z"/>
  <path class="c" d="M108.82,47.13c-1.48,1.27-3.26,2.79-4.1,4.54,1.75-1.04,2.91-2.94,4.1-4.54Z"/>
  <path class="c" d="M161.36,72.46c-.49.53-.04,1.25.19,1,.49-.53.04-1.25-.19-1Z"/>
  <path class="c" d="M167.12,58.39c.06-.5.44-.96-.08-1.44-.04.62-.5.73.08,1.44Z"/>
  <path class="c" d="M172.21,77.81c-1-.58-.99.23-1.68.95l1.32.36.36-1.32Z"/>
  <path class="c" d="M159.5,75.74c.08-.05.4-1.33.93-1.64-2.09-1.36-2.1,2.31-.93,1.64Z"/>
  <path class="c" d="M104.16,52l-.12.44c.33-.07.37-.22.12-.44Z"/>
  <path class="c" d="M161.09,74.28l-.12.44c.33-.07.37-.22.12-.44Z"/>
  <path class="c" d="M184.32,62.16c-.25.12-3.53,3.25-4.14,3.83-1.31,1.24-4.33,4.3-5.35,5.64-.75.98-1.44,2.37-1.89,3.53l13.49-12.89c-.75-.28-1.32-.5-2.11-.11Z"/>
  <path class="c" d="M185.07,82.76c-.96.19-2.59.78-3.1.81-.65.05-1.17-.62-1.23-.58-.12.09-.09.92-.42,1.19-.64.53-2.24-.66-2.2,1.41.18.35,7.15-1.29,6.94-2.83Z"/>
  <path class="c" d="M174.81,80.41c1.95,1.3,2.78-1.35,4.03-2.38.83-.69,2.6-1.46,3.15-1.98.79-.73,4.54-5.48,4.26-6.25-2.09,1.31-3.74,4.2-5.71,5.98-.47.43-6.1,4.19-5.73,4.62Z"/>
  <path class="c" d="M187.04,82.63c.52-.64,8.04-5.18,7.71-5.75-.49-.82-4.02,2.46-4.82,2.96-1.37.86-4.11,1.64-4.85,2.92.38-.07,1.35.49,1.97-.13Z"/>
  <path class="c" d="M186.79,60.65l-.55.61c.27-.18.44-.39.55-.61Z"/>
  <path class="c" d="M170.37,80.15l-.65-.18-.49,1.76,1.32.36c.33-.78.38-1.29-.18-1.94Z"/>
  <path class="c" d="M160.27,76.43c-.49.53-.04,1.25.19,1,.49-.53.04-1.25-.19-1Z"/>
  <path class="c" d="M134.63,62.74c-.63-.62-1.81-7.18-2.95-6.49-.67.4,1.6,7.08,2.95,6.49Z"/>
  <path class="c" d="M116.69,40.04c.17-1.56-4.21,2.53-4.02,3.38,1.19-.61,1.72-1.7,2.94-2.33.3-.15.69.09.77.05.04-.36.24-.73.3-1.09Z"/>
  <path class="c" d="M115.13,47.43c.14-.1.36-.19.56-.32-.23.07-.38.17-.56.32Z"/>
  <path class="c" d="M114.15,51.9c.21-.18.42-.14.12-.43-1.18.4-.89,1.12-.12.43Z"/>
  <path class="c" d="M103.48,52.77c-1.18.4-.89,1.12-.12.43.21-.18.42-.14.12-.43Z"/>
  <path class="c" d="M113.42,54.55c-.6.44-1.74,1.08-1.93,1.82.67-.38,1.83-.98,1.93-1.82Z"/>
  <path class="c" d="M162.89,63.39c.44-1.2.72-3.29-.22-4.32-.29,1.15-.64,3.34.22,4.32Z"/>
  <path class="c" d="M135.15,49.61c-.36-.16-.48.78-.46.82.37.63,1.48.2.46-.82Z"/>
  <path class="c" d="M158.76,54.04c.72,2.26.67,1.49,1.26,2.7.83,1.72.13,9.96-.15,12.29-.18,1.53-1.78,3.93.24,4.51.24-.49.36-2.02.63-2.17.33-.18,1.33.79,1.41-.11-.58-.16-.9-.49-1.03-1.09-.62-2.83.75-7.05.52-9.97-.3-3.73-3.13-8.12-3.62-11.89-.59-.23-1.04-.47-1.02.4.01,1.04,1.36,4.06,1.76,5.33Z"/>
  <path class="c" d="M136.96,67.19c-.52.72.45,1.61.63,2.06.12.09.18.28.23.42.03.05.06.09.08.14.09.07.15.22.2.36.04.07.08.14.12.2.2.14.64.1.88.24-.46-1.85-.54-2.04-2.15-3.42Z"/>
  <path class="c" d="M136.09,52.23c.49-.53.04-1.25-.19-1-.49.53-.04,1.25.19,1Z"/>
  <path class="c" d="M136.66,66.61c.52-.17-.05-.64-.21-.99-.52.19.07.67.21.99Z"/>
</svg>