<?xml version="1.0" encoding="UTF-8"?>
<svg id="b" data-name="Layer 1" xmlns="http://www.w3.org/2000/svg" viewBox="0 0 61.17 114.39">
  <defs>
    <style>
      .c {
        fill: #1a1a1a;
      }
    </style>
  </defs>
  <path class="c" d="M1.13,73.24c1.25,2.46,3.41,5.03,4.64,7.26.56,1.05,1.17,2.22,1.82,3.44.32.58.63,1.16.94,1.71.2.36.4.72.63,1.06.88,1.34,2.14,2.44,3.11,3.75.95,1.29,1.48,2.94,2.53,4.2,1.53,1.77,2.91,2.66,5.05,3.85.36.18.72.36,1.14.56.13.17.11.39.06.51l-.03.1c0,.05.03.07.08.11.05.09.11.02.11.32,0,.78.08,1.56.17,2.33.09.92.17,1.16.17,2.87,0,2.82-.43,5.96-.44,8.95,1.44.07,3.09-.1,4.59-.2l.57-.05c.89-.01,1.77-.03,2.63-.04.2-.03.39-.05.58-.08.38-.04.76-.07,1.14-.07h.46s.23.03.23.03c.76,0,1.53.01,2.32.02.59.03,1.21.07,1.85.1,1.19.08,2.43.16,3.52.23.02-.71.04-1.33.06-1.94.07-2.86.15-5.85.21-8.53,0-.81.06-1.6.12-2.37.03-.39.05-.77.08-1.15.01-.2.02-.24.03-.24l-.06-.03c-.08-.03-.31-.32-.21-.27h0c.07.02.19.09.24.15,1.06-.35,1.84-.75,2.59-1.23.96-.62,1.73-1.34,2.41-2.06.21-.23.95-1.01,1.15-1.33.26-.33.5-.65.75-.96,1.02-1.24,1.46-2.94,2.42-4.24.95-1.28,1.86-2.6,2.76-3.95.87-1.33,2.18-2.41,3.01-3.82.81-1.39,1.23-3,1.97-4.43l.32-.59,3-5.63-6.58-.77-1.04-.12c-.13-.03-.12-.05-.19-.07-.09-.04-.17-.08-.26-.08-.2,0-.5.06-.74.07-.15,0,.05-.18.31-.34.17-.1.32-.19.45-.26,0,0-.67.1-.51-.12.06-.09.17-.17.27-.24l.13-.09s.02.03.32-.44c.88-1.34,2.22-2.42,3.05-3.83.82-1.4,1.24-3.02,1.98-4.46.08-.17.16-.33.24-.51l3.31-7.05-7.28-.05c-.36,0-.73.01-1.09.04-.07.05-.1.11-.17.17-.12.11-.3.21-.42.21-.28,0-.48-.07-.73-.06-.15,0-.14-.08-.1-.15.11-.1.3-.22.34-.27.14-.18.85-.45.85-.45l.4-.61c.89-1.36,1.59-2.83,2.4-4.23.81-1.4,1.83-2.69,2.57-4.14.06-.13.11-.26.18-.42l3.45-7.84-7.66.32c-1.32.06-3.59.88-3.51.89-.38,0-.57-.19-.85-.17-.34.02.26-.52.63-.74l.05-.05c.05-.07.01-.15.05-.28l.05-.1c-.02.1.24-.7.32-.99.22-.82.48-1.65.63-2.47.18-.79.37-1.6.57-2.44.07-.26.26-1.16.36-1.88.1-.77.2-1.5.3-2.24.35-3.07-.19-5.5-.13-8.03.03-1.31.24-2.8.44-4.38.1-.84.2-1.68.29-2.4l.03-.3c0-.09-.25.08-.36.1-.3.13-.59.25-.87.37-.64.29-1.21.54-1.8.79-2.45,1.13-4.95,2.54-7.1,3.8-.37.21-.38.24-.34.26v.1s-.05.2-.05.2c-.04.13-.11.23-.18.27-.34.19-.5.09-.73.21-.08.07-.02-.08-.03-.14.04-.28.1-.57.06-.7-.01-.05,0-.11.02-.18l.05-.09s-.09-.38-.13-.55c-.21-.87-.48-1.75-.91-2.57-.65-1.29-2.95-3.44-4.57-5.48-1.66-2.13-3.38-4.08-5.19-5.96l-.44-.46c-1.62,1.66-3.43,2.66-5.14,4.72-.92,1.12-1.69,2.46-2.41,3.74-.33.66-.67,1.32-.97,1.92-.18.4-.35.81-.56,1.19-.43.77-.71,1.65-.98,2.5-.13.45-.26.89-.38,1.31.07-.06.03.14.02.19-.07.27.07.89.1,1.4v.1c.05.31-.47-.41-.64-.68-.24-.37-.35-.67-.44-.71-.1-.05-.22.1-.44.19l-.17.06h-.05s-.36-.13-.36-.13c-.26-.1-.51-.2-.76-.29-1-.39-1.95-.79-2.9-1.24-.97-.45-1.95-.98-3.01-1.57-.5-.29-1.05-.6-1.63-.93-.23-.11-.67-.45-.74-.37l-.08.36c-.22.94-.44,1.97-.4,3.31.08,2.76.75,5.83,1.02,8.43.27,2.71,1.16,5.74,1.43,6.86.36,1.87.21,3.67.69,5.18.14.43.36.76.54,1.15-1.02-.02-2.05,0-3.1.12-2.16.28-3.2,1.41-5.32,1.81l.04.07c1.05,1.8,1.14,3.46,2.61,5.92,1.61,2.73,3.59,4.99,4.5,6.08,1.26,1.53,2.69,2.38,3.96,3.59.9.85,2,1.73,3.25,2.74-.45-.16-.89-.32-1.4-.49-.87-.29-1.8-.55-2.68-.67-2.48-.32-4.24.02-6.07-.09-1.51-.07-2.78.03-3.74.21.41.74.78,1.43,1.02,2.05.55,1.42-.22,2.67,1.05,5.27.44.9,1.21,1.87,1.99,2.84.41.52.83,1.04,1.19,1.49.35.43.55.7.8,1.11.29.49.61,1.02.95,1.57-1.53.22-3,.52-4.54.62-1.8.12-3.92.06-6.08.13.28.64.59,1.31.94,2.01Z"/>
</svg>