<?xml version="1.0" encoding="UTF-8"?>
<svg id="b" data-name="Layer 1" xmlns="http://www.w3.org/2000/svg" viewBox="0 0 937.66 616">
  <defs>
    <style>
      .c {
        fill: #1a1a1a;
      }
    </style>
  </defs>
  <g>
    <path class="c" d="M92.67,308.91c1.11.53,1.68,1.8,1.34,2.98-.41,1.45-.79,2.78-1.24,4.08-1.62,4.66-3.45,9.26-4.93,13.97-2.08,6.64-3.97,13.34-5.85,20.04-1.13,4.04.42,7.33,4.22,8.95,5.98,2.55,11.95,5.14,18.03,7.41,3.01,1.12,9.27,2.82,12.34,3.85,3.99,1.34,2.4,2.64,1.12,6.6-1.6,4.96-2.7,7.9-4.3,12.88-.55,1.69-2.06,3.37-3.79,3.02-2.59-.53-5.49-1.54-7.97-2.4-28.18-9.78-56.31-19.72-84.51-29.42-7.35-2.53-8.98-4.87-6.03-12.78,3.52-9.44,6.69-19.02,9.91-28.57.83-2.44,2.69-8.17,2.98-8.72,3.43-9.04,8.73-25.98,13.86-38.73.08-.19.14-.39.22-.57,1.48-3.64,2.94-4.89,6.43-4.04,4.35,1.06,8.6,2.62,12.73,4.36,2,.83,2.81,2.94,2.23,5.2-.41,1.59-1.01,3.13-1.56,4.68-5.48,15.52-11.01,31.02-16.38,46.58-.92,2.67-1.18,5.56-1.67,8.37-.4,2.23.54,4.03,2.1,5.49,3.27,3.07,7.26,4.33,11.68,4.46,2.54.07,4.22-1.39,5.65-3.19.62-.78.95-1.81,1.32-2.76,4.08-10.52,8.18-21.02,12.18-31.57,2.22-5.86,3.93-6.91,9.76-4.98.72.24,1.42.55,2.09.89,2.93,1.5,4.96,2.46,8.05,3.93h0Z"/>
    <path class="c" d="M144.98,298.62c-2.2-.08-5.83-2.85-7.17-3.77-12.65-8.75-25.27-17.53-37.8-26.46-6.25-4.46-12.06-9.53-18.66-13.48-6.6-3.95-12.42-8.78-18.82-12.97-1.18-.77-2.34-1.69-3.24-2.77-2.02-2.46-2.14-3.96-.31-6.66,3.34-4.94,6.84-9.76,10.2-14.53,4.55-.83,7.01,2.12,9.83,4.41,2.34,1.9,4.8,3.67,7.25,5.44.64.46,1.51.92,2.09,1.44,15.65,11.55,30.34,21.35,45.15,32.64,4.34,3.31,9.27,4,14.44-2.1,1.72-2.04,3.17-4.31,4.7-6.5,5.55-7.92,11.16-15.79,16.59-23.8,2.75-4.05,5.03-8.43,7.77-12.49,1.47-2.17,3.39-4.07,5.29-5.89,3.19-3.05,3.27-2.86,6.73-.87,4.25,2.44,6.87,6.36,9.59,10.15.65.91.53,2.73.14,3.94-.41,1.31-1.54,2.4-2.37,3.58-11.62,16.48-23.29,32.92-34.83,49.45-4.84,6.93-8.12,16.42-15.59,21.03-.27.17-.61.24-.99.22Z"/>
    <path class="c" d="M170.54,179.91c-10.48-10.94-20.95-21.88-31.42-32.83-1.13-1.18-2.3-2.33-3.33-3.61-2.01-2.51-2.13-4.83.08-7.1,3.71-3.83,7.59-7.52,11.55-11.09,2.06-1.86,3.22-1.71,5.35.17,1.23,1.08,2.31,2.32,3.44,3.5,17.69,18.49,35.32,37.03,53.1,55.43,4.23,4.38,9.06,8.19,13.42,12.47,3.98,3.92,3.83,5.63-.26,9.65-2.64,2.59-5.3,5.15-8.01,7.67-4.92,4.57-6.64,4.54-11.15-.16-10.91-11.37-21.8-22.76-32.7-34.15l-.06.06Z"/>
    <path class="c" d="M225.54,119.88c-.9.21-1.52,1.02-1.54,1.94-.05,4.28,2.06,7.79,3.94,11.16,3.07,5.5,6.92,10.56,10.24,15.93,5.07,8.19,10.02,16.44,14.9,24.74,1.81,3.07,1.5,4.29-1.4,6.09-4.53,2.83-9.14,5.54-13.8,8.16-2.82,1.59-4.22,1.39-6.46-.82-.77-.76-1.42-1.65-1.97-2.58-15.84-26.78-31.67-53.56-47.47-80.37-4.53-7.68-4.1-9.36,3.85-14.02,12.37-7.26,9.65-6.81,22.88-3.22,19.79,5.36,39.57,10.74,59.37,16.03,4.74,1.27,9.58,2.15,14.55,1.59,4.31-.48,5.39-1.9,4.25-6.05-.48-1.74-1.45-3.36-2.37-4.95-6.89-11.87-13.83-23.71-20.75-35.57-.62-1.06-1.28-2.1-1.85-3.19-2.62-4.97-1.98-7.9,2.65-10.94,3.09-2.03,6.29-3.9,9.55-5.65,3.23-1.73,7.27-.65,9.22,2.45,2.72,4.34,5.23,8.8,7.83,13.21,4.88,8.3,9.86,16.54,14.6,24.92,4.32,7.63,8.15,15.55,12.61,23.09,3.94,6.66,8.48,12.97,12.74,19.45.79,1.2,1.52,2.43,2.23,3.68,2.57,4.5,2.44,5.19-1.83,7.79-3.86,2.35-7.84,4.52-11.65,6.95-2.8,1.79-5.65,2.15-8.8,1.33-24.43-6.32-48.89-12.54-73.3-18.97-3.54-.93-6.86-2.65-10.65-2.45-.53.03-1.05.14-1.59.26h0Z"/>
    <path class="c" d="M371.56,78.41c-2.28-10.87-4.56-21.75-6.86-32.63-.29-1.38-.55-2.78-.96-4.13-1.23-4.06-2.94-5.19-7.2-4.71-1.63.18-3.24.56-4.85.89-8.05,1.65-16.09,3.37-24.17,4.93-1.96.38-4.08.53-6.02.21-1.17-.2-2.83-1.38-3.05-2.38-1.04-4.7-2.03-9.47-2.32-14.26-.26-4.35.28-4.64,4.68-5.61,7.02-1.56,14.07-3.02,21.11-4.49,24.14-5.02,48.29-10.02,72.44-15.03,1.01-.21,2.03-.34,3.02-.62,5.82-1.65,8.83.21,9.86,6.37.5,2.98,1.34,5.91,1.86,8.9.56,3.21-.06,4.46-2.98,5.83-1.46.68-3.11.99-4.7,1.34-8.03,1.76-16.07,3.47-24.11,5.21-1.4.31-2.86.53-4.17,1.06-3.96,1.6-5.61,4.49-4.84,8.64.74,3.97,1.84,7.87,2.52,11.85.81,4.75,1.16,9.58,2.06,14.3.64,3.33,2.08,6.5,2.81,9.81,2.63,11.83,5.11,23.7,7.64,35.55.13.59.26,1.19.3,1.79.25,3.19-.86,4.89-4.12,5.68-3.99.97-8.02,1.82-12.06,2.55-5.07.92-7.16-.39-8.28-5.49-2.6-11.84-5.02-23.72-7.51-35.58-.03,0-.06,0-.09.02h0Z"/>
    <path class="c" d="M535.26,3.95c7.56-.9,13.65,2.07,19.99,3.55.97.22,2.23,1.99,2.24,3.04.04,2.93-.19,5.93-.89,8.77-2.56,10.37-5.36,20.68-8.06,31.01-.3,1.15-.65,2.29-.87,3.45-.63,3.33-.18,4,3.35,5.17.19.06.39.11.59.16,12.52,3.29,25.03,6.67,37.58,9.85,6,1.52,8.37.33,11.14-5.13.88-1.74,1.63-3.58,2.14-5.46,2.43-8.97,4.71-17.99,7.15-26.96,1.53-5.64,4.68-8.22,10.75-6.96,2.81.58,5.61,1.37,8.37,2.18,4.21,1.23,5.68,4.59,5.49,8.84-.12,2.54-.38,5.12-1,7.57-2.65,10.43-5.35,20.85-8.08,31.26-2.44,9.33-5.37,18.83-7.66,28.32-1.13,4.67-1.85,9.46-3.21,14.05-1.42,4.82-2.77,9.72-3.79,14.64-.74,3.58-1.9,4.07-5.74,3.16-4.8-1.15-9.57-2.4-14.33-3.72-4.12-1.14-5.27-2.84-4.61-7.01.37-2.33,1.14-4.6,1.72-6.91,1.4-5.56,2.87-11.11,4.16-16.7.77-3.33.96-6.74-1.64-9.56-2.14-2.32-5.48-3.11-8.36-4.12-3.71-1.31-7.47-2.5-11.26-3.56-4.52-1.27-9.1-2.36-13.71-3.27-3.7-.73-8.84-2.53-12.6-1.74-3.64.86-5.2,4.38-5.83,7.76-1.37,7.36-2.98,14.67-4.49,22-.2.97-.42,1.94-.69,2.88-1.2,4.25-1.93,4.69-6.54,3.57-4.59-1.12-9.17-2.3-13.73-3.56-4.18-1.16-5.25-2.83-4.69-6.98.11-.78.38-1.54.58-2.3,7.66-29.48,15.3-58.98,23.05-88.44.79-3,2.27-5.82,3.48-8.83h0Z"/>
    <path class="c" d="M644.23,95.11c6.88-13.49,13.76-26.99,20.64-40.48.74-1.46,1.44-2.95,2.31-4.33,1.71-2.73,3.86-3.6,6.73-2.26,4.84,2.25,9.59,4.69,14.27,7.25,2.44,1.33,2.67,2.48,1.6,5.11-.61,1.51-1.43,2.94-2.17,4.4-11.63,22.79-23.33,45.54-34.85,68.38-2.74,5.44-4.75,11.26-7.36,16.77-2.39,5.05-4.05,5.47-9.19,2.94-3.31-1.64-6.61-3.31-9.88-5.04-5.93-3.14-6.47-4.77-3.52-10.58,7.14-14.05,14.31-28.08,21.47-42.12l-.07-.04Z"/>
    <path class="c" d="M656.39,158.88c.19-2.19,3.14-5.68,4.14-6.96,9.39-12.18,18.81-24.33,28.38-36.37,4.77-6.01,10.14-11.55,14.42-17.94,4.29-6.38,9.41-11.95,13.92-18.12.83-1.14,1.81-2.25,2.93-3.09,2.56-1.89,4.06-1.93,6.67.03,4.76,3.59,9.39,7.33,13.98,10.93.59,4.58-2.48,6.89-4.91,9.59-2.02,2.24-3.91,4.61-5.8,6.96-.5.62-.99,1.46-1.54,2.01-12.35,15.03-22.88,29.19-34.92,43.39-3.53,4.17-4.48,9.05,1.35,14.53,1.94,1.82,4.14,3.38,6.25,5.03,7.62,5.95,15.19,11.96,22.9,17.8,3.91,2.95,8.16,5.45,12.07,8.41,2.09,1.58,3.89,3.59,5.61,5.59,2.88,3.34,2.69,3.41.52,6.76-2.65,4.11-6.7,6.53-10.63,9.05-.94.6-2.75.38-3.94-.06-1.29-.48-2.32-1.66-3.45-2.55-15.85-12.45-31.67-24.95-47.58-37.33-6.67-5.19-15.98-8.96-20.2-16.66-.15-.28-.2-.62-.17-1Z"/>
    <path class="c" d="M734.86,222.91c.78-2.05,4.57-4.6,5.88-5.57,12.35-9.16,24.72-18.29,37.21-27.28,6.23-4.48,12.9-8.36,18.76-13.34,5.86-4.98,12.31-8.93,18.33-13.65,1.11-.87,2.35-1.68,3.67-2.17,2.98-1.13,4.44-.75,6.41,1.85,3.6,4.75,7.05,9.61,10.48,14.32-.68,4.57-4.26,5.96-7.34,7.89-2.55,1.61-5.01,3.37-7.48,5.12-.64.46-1.35,1.13-2.03,1.51-15.97,11.11-29.96,21.87-45.41,32.26-4.53,3.05-6.77,7.49-2.65,14.35,1.37,2.29,3.06,4.38,4.64,6.54,5.71,7.8,11.37,15.65,17.2,23.36,2.95,3.91,6.37,7.47,9.33,11.38,1.58,2.09,2.76,4.52,3.88,6.91,1.86,4,1.66,4.02-1.34,6.65-3.67,3.24-8.23,4.46-12.7,5.81-1.07.32-2.75-.38-3.77-1.13-1.11-.81-1.78-2.23-2.63-3.39-11.87-16.3-23.69-32.63-35.63-48.87-5-6.81-12.94-12.97-14.9-21.53-.07-.31-.03-.65.11-1.01Z"/>
    <path class="c" d="M819.27,300.67c1.01.65,1.56,1.83,1.53,3.03-.19,7.66-.33,14.59-.56,21.52-.34,10.49,2.75,20.29,7.16,29.56,2.79,5.87,6.77,11.23,12.85,14.22,6.82,3.35,14.03-.4,15.32-7.88.81-4.67.5-9.38-1.19-13.97-1.25-3.4-2.55-6.79-3.47-10.3-1.44-5.47-2.67-10.99-3.89-16.51-.84-3.78-1.86-7.58-2.14-11.4-.64-8.88.25-17.31,5.38-24.92,7.15-10.59,21.5-11.79,31.08-8.08,13.4,5.18,21.13,15.57,26.84,28.28,1.84,4.09,3.95,8.12,5.32,12.37,4.12,12.72,6,25.81,6.24,39.08.12,6.91-2.61,8.48-10.76,8.29-.77-.02-1.55-.1-2.3-.28-6.1-1.4-6.91-3.46-6.91-8.13,0-6.67-.37-13.45-1.43-20.05-1.91-11.95-6.8-22.73-14.94-31.72-2.91-3.22-6.47-5.8-11.07-3.81-4.64,2.01-6.8,5.97-6.81,11-.01,7.16,1.65,14.14,3.73,20.99,1.19,3.93,2.85,7.72,4.07,11.65,2.71,8.73,3.6,17.62,2.09,26.56-1.94,11.43-10.75,20.12-21.25,22.31-4.72.98-9.64,2.14-14.43-.27-2.66-1.34-5.2-2.94-7.73-4.53-1.18-.74-2.08-2.14-3.31-2.59-6.1-2.25-9.22-7.6-12.78-12.57-4.06-5.67-7.07-12.01-9.08-18.69-2.06-6.84-5.38-13.26-6.14-20.54-1.08-10.36-2.21-20.69-.5-31,.26-1.59.39-3.34,1.16-4.64.6-1,2.12-2.05,3.19-1.98,5.35.35,10.28,2.12,14.73,5.02h0Z"/>
  </g>
  <g>
    <g>
      <g>
        <path class="c" d="M.29,454.68c.11-.91.79-1.64,1.68-1.84.44-.1.86-.18,1.28-.18,8.34-.02,16.67-.04,25.01.06,2.01.02,4.04.36,6.01.78,5.21,1.13,8.82,4.5,11.73,8.71,2.77,4,4.1,8.47,3.93,13.35-.18,5.05-1.15,9.89-4.07,14.14-.85,1.24-1.9,2.44-3.11,3.31-1.98,1.42-4.1,2.71-6.31,3.77-2.52,1.21-4.92,1.65-7.83,1.65-2.39,0-4.49-.24-6.94-.14-.86.04-2.37,0-3.24.03-4.19.12-8.29.12-12.58-.07-4.75-.21-5.53-.33-5.5-3.01.07-9.32.05-18.65,0-27.98-.02-3.04-.32-6.07-.34-9.1-.01-1.13.14-2.26.29-3.46h0ZM21.09,489.94c4.56.02,7.84-.59,10.74-1.68,1.91-.71,3.79-1.5,5.17-3.11,2.25-2.64,3.19-5.85,3.09-9.14-.11-3.63-1.17-7.14-3.43-10.16-1.63-2.19-3.64-3.75-6.45-4.06-1.85-.2-3.7-.36-5.55-.54-1.34-.13-2.69-.37-4.03-.36-1.51.02-3.03.23-4.54.44-1.08.15-2.18.33-3.22.66-1.28.4-2.24,1.19-2.4,2.66-.08.75-.27,1.49-.28,2.24-.04,5.51-.04,11.03-.05,16.54,0,.68-.03,1.36.02,2.03.15,2.31,1.53,3.69,3.84,3.88,2.36.19,4.72.4,7.08.61h0Z"/>
        <path class="c" d="M85.65,472c.77,2.6.64,5.05.07,7.62-.06.27-.3.48-.59.49-.8.04-1.49.08-2.19.1-4.74.15-9.48.27-14.23.44-1.57.06-2.91,1.14-3.33,2.65-.98,3.54.81,5.93,4.48,6,.68.01,1.36.02,2.04.01,6.38-.02,12.75-.05,19.13-.07,1.1,0,2.21-.01,3.31.08,1.15.1,1.45.44,1.54,1.6.17,2.05-.22,4-.93,5.95-.35.96-.93,1.35-1.79,1.51-.49.09-1.02.03-1.53.03-10.88,0-21.76.02-32.65.02-.85,0-1.74.11-2.6-.32-.59-.29-.94-.92-.94-1.58,0-1.24.03-2.6-.02-3.96-.15-4.22-.31-8.39-.28-12.61.03-3.98.1-7.96.19-11.95.09-3.85-.28-7.68-.28-11.52-.02-.66.11-1.34.29-1.98.34-1.17,1.12-1.86,2.42-1.84.68,0,1.36-.03,2.04-.03,10.71,0,21.43,0,32.14,0,.42,0,.85-.02,1.27.01,1.24.1,1.98.66,2.05,1.81.1,1.94.11,3.9.05,5.84-.04,1.07-.48,1.39-1.67,1.48-.68.05-1.36.01-2.04.01-6.89,0-13.77-.03-20.66,0-1.08,0-2.16.3-3.24.47-.25.04-.5.11-.73.21-1.3.56-2.11,3.22-1.66,5.51.4,2.06,1.44,2.77,3.52,3,4.65.52,9.32.4,13.98.41.67,0,1.33,0,2.07,0,.35,0,.66.22.76.56h0Z"/>
        <path class="c" d="M155.47,498.41c-2.57,0-5.21.03-7.84-.01-1.57-.03-1.92-.37-1.94-1.93-.04-4.17-.02-8.34-.03-12.51,0-.9.09-1.81-.03-2.69-.1-.72-.33-1.5-.75-2.08-1.02-1.42-2.64-1.17-3.4.4-1.34,2.75-2.58,5.55-3.82,8.35-1.16,2.61-2.25,5.26-3.39,7.88-.65,1.48-2.05,2.17-3.76,1.91-1.29-.2-2.58-.3-3.89-.29-1.25,0-2.21-.37-2.9-1.32-.54-.73-1.09-1.46-1.5-2.25-1.9-3.73-3.74-7.49-5.63-11.22-.4-.8-.88-1.58-1.44-2.29-1.12-1.43-2.9-1.26-3.54.4-.37.96-.5,2.06-.48,3.1.03,1.94.28,3.89.36,5.83.08,2.2.09,4.41.08,6.62,0,1.83-.28,2.08-2.24,2.11-2.04.03-4.08.05-6.13,0-1.63-.04-2.24-.68-2.36-2.25-.02-.33-.01-.65-.01-.98,0-12.59-.02-25.17,0-37.76,0-1,.15-1.99.28-2.95.07-.55.42-1.03.93-1.24,1-.41,1.97-.5,2.98-.48,1.53.02,3.06-.03,4.59.02,2.01.06,3.51.8,4.39,2.71,3.52,7.67,7.14,15.29,10.75,22.92.21.45.71,1.2.96,1.63.1.17.16.36.27.52,1.49,2.15,3.44,2.19,4.77-.07,1.37-2.34,2.48-4.81,3.7-7.24.11-.22.12-.48.23-.7,2.59-5.48,5.28-10.92,7.72-16.47.82-1.87,2.14-3.23,4.01-3.34,2.12-.13,4.25-.06,6.37,0,1.67.05,2.38,1.15,2.82,2.76.23.85.32,1.76.33,2.64.04,10.79.04,21.58.08,32.37,0,1.37.29,2.74.36,4.12.06,1.21.32,2.47-.89,3.79h0Z"/>
        <path class="c" d="M174.61,497.03c-1.5-.46-2.8-1.15-3.88-2.34-.57-.62-1.3-1.09-1.93-1.65-.58-.51-1.19-1-1.67-1.59-2.59-3.19-4.6-6.89-5.43-10.94-.42-2.03-.53-4.11-.37-6.18.17-2.18.37-4.63.96-6.74.43-1.55,1.26-2.95,2.21-4.23,2.26-3.03,4.56-5.8,7.99-7.56,2.29-1.17,4.73-2.32,7.27-2.81,6.29-1.2,13.76-1.14,19.78,1.25,2.24.89,4.08,2.43,6.08,3.71,1.54.99,2.77,2.37,3.66,3.96.73,1.29,1.14,2.73,1.82,4.05.7,1.36,1.46,2.55,1.87,4.06,1.14,4.23.94,9.26-1,13.19-.9,1.81-1.55,3.86-2.57,5.57-1.08,1.8-2.42,3.35-4.01,4.73-4.77,4.13-10.24,5.4-16.24,5.35-.6,0-1.19,0-1.79,0-4.39.44-8.57-.56-12.73-1.83ZM187.43,461.47c-2.28.24-4.42.14-6.58,1.09-1.91.84-3.32,2.37-4.72,3.86-1.47,1.55-2.67,2.79-3.32,4.9-1.25,4.07-1.14,8.14,1.05,11.7,3.06,4.99,7.76,7.45,13.61,7.57,2.1.04,3.97-.81,5.91-1.34,2.83-.77,4.94-2.64,6.22-5.32.67-1.41,1.14-2.9,1.79-4.32.77-1.69,1.34-3.54,1.09-5.42-.24-1.82-1.1-3.57-1.96-5.17-.85-1.58-2.06-2.97-3.44-4.11-2.62-2.19-6.15-3.81-9.63-3.44h0Z"/>
        <path class="c" d="M254.42,465.76c-.78-.56-1.49-1.08-2.24-1.55-3.86-2.39-7.91-3.37-12.55-2.85-6.45.71-9.95,4.79-11.83,10.3-1.81,5.33.08,13.05,6.32,16.49,2.19,1.21,4.78,2.24,7.34,2.02,3.87-.33,8.93-.79,11.86-3.6.49-.47,1.08-.83,1.64-1.22.94-.65,2.11-.73,2.89-.13,1.52,1.17,3.46,1.98,4.18,4.22-1.54,3.75-4.5,6.05-8.17,7.48-1.72.67-3.49,1.26-5.33,1.54-5.19.78-10.61.69-15.72-.53-2.84-.68-5.53-1.48-7.49-3.71-1.26-1.43-2.82-2.52-4.04-3.96-1.28-1.5-2.13-3.29-2.85-5.11-1.94-4.93-2-10.02-1.33-15.28.41-3.26,1.69-5.98,3.43-8.51,1.04-1.51,2.76-2.51,4.11-3.82,2.27-2.21,5.16-3.23,7.91-4.52.3-.14.64-.28.96-.3,3.72-.2,7.46-.64,11.16-.47,3.08.14,6.28.3,9.08,1.99,2.25,1.36,4.55,2.66,6.65,4.24,1.74,1.32,1.62,3.1-.04,4.62-.75.69-1.57,1.32-2.43,1.88-.54.35-1.12.62-1.76.93-.56.27-1.24.22-1.75-.15Z"/>
        <path class="c" d="M316.57,497.58c-.15.5-.42.89-.65.9-3.13.18-6.18-.12-9.32-.05-2.52.06-4.45-.71-6.19-2.33-2.79-2.61-5.65-5.14-8.34-7.84-2.11-2.12-4.54-3.13-7.5-3.03-1.36.04-2.72-.06-4.08-.02-2.33.06-3.44,1.13-3.54,3.41-.05,1.18,0,2.39-.01,3.5-.01,1.68.1,3.04-.04,4.52-.11,1.16-.84,1.72-2.1,1.76-1.95.07-3.91.1-5.87.06-1.28-.03-1.62-.37-1.73-1.69-.18-2.18-.4-4.37-.41-6.56-.04-11.03,0-22.05-.05-33.08-.01-3.16.43-4.43,4.51-4.46,6.72-.04,13.45-.06,20.17.01,2.71.03,5.43.14,8.11.55,2.42.37,4.69,1.31,6.74,2.77,4.63,3.3,7.23,7.6,6.97,13.42-.03.6-.04,1.21-.01,1.82.15,3.35-1.17,6.09-3.49,8.46-1.06,1.08-2,2.29-2.94,3.49-.88,1.12-.89,2.69,0,3.81,1.37,1.74,2.84,3.43,4.43,4.98,1.57,1.53,3.37,2.82,5.02,4.27.31.28.29.73.34,1.31ZM277.41,463.83c.01,2.63.08,5.13-.03,7.63-.11,2.52,1.31,4.26,4.23,4.11,2.04-.11,4.11-.19,6.12.08,2.81.37,5.55-.16,8.32-.23,1.57-.04,3.15-.59,4.66-1.09,1.78-.59,2.74-1.93,2.8-3.83.02-.59,0-1.19.03-1.78.15-3.13-1.76-5.84-5.25-6.42-1.91-.32-3.9-.21-5.79-.62-3.91-.84-7.77-.02-11.64.18-.87.04-1.72.42-2.63.77-.5.19-.83.67-.82,1.2Z"/>
        <path class="c" d="M369.27,498.34c-2.22.14-4.5.15-6.61.04-.52-.03-1.04.02-1.56.05-1.45.1-2.09-1.41-2.62-2.65-.29-.69-.66-1.34-.93-2.03-.65-1.63-1.91-2.54-3.63-2.7-2.52-.24-5.06-.47-7.6-.45-3.81.02-7.62.24-11.43.41-2.33.11-4.21,1.1-4.82,3.35-1.06,3.87-4.1,4.28-7.78,4.01-.77-.06-1.54-.02-2.3.04-1.31.1-2.39-.22-3.31-1.22.2-.51.35-.98.57-1.41,1.64-3.16,3.23-6.34,4.97-9.46,3.43-6.16,6.06-12.69,9-19.07,1.98-4.28,3.96-8.56,5.89-12.87.48-1.08,1.37-1.5,2.39-1.53,2.89-.11,5.78-.1,8.67-.1,1.51,0,2.23,1.06,2.79,2.2,1.17,2.38,2.32,4.77,3.42,7.18,1.47,3.24,2.8,6.54,4.32,9.76,3.49,7.42,7.04,14.82,10.6,22.21.39.81.82,2.24.8,3.38,0,.46-.37.84-.83.87ZM348.37,485.01c2.87-.3,4-2.42,2.8-4.93-1.5-3.14-2.94-6.3-4.43-9.44-.25-.52-.57-1.02-.96-1.45-1.18-1.31-2.27-1.32-3.69-.06-.36.32-.56.82-.77,1.27-.9,1.95-1.78,3.92-2.66,5.88-.71,1.58-1.47,3.15-2.09,4.76-.51,1.33-.15,2.5,1.03,3.18.77.44,1.72.71,2.61.8,1.26.14,2.55.04,3.82.04,0,0,2.9.1,4.33-.05Z"/>
        <path class="c" d="M381.51,480.43c0-4.6,0-9.19,0-13.79,0-.59.01-1.17-.04-1.76-.15-1.75-.75-2.35-2.51-2.52-.67-.06-1.36-.05-2.04-.05-3.4-.02-6.8,0-10.2-.06-.83-.01-1.7-.13-2.46-.43-.46-.18-1.03-.8-1.03-1.22-.02-1.99-.02-4,.27-5.97.26-1.78.51-1.85,2.37-1.87,2.97-.03,5.95-.03,8.92-.02,10.2.02,20.4.05,30.6.07.42,0,.85.03,1.27,0,2.5-.17,3.56.83,3.45,3.42-.05,1.25.04,2.51,0,3.76-.05,1.35-.4,1.8-1.7,2.11-.65.15-1.34.14-2.02.14-3.4.03-6.8.04-10.2.06-.59,0-1.2-.03-1.78.07-1.74.31-2.65,1.34-2.69,3.09-.04,1.67.08,3.34.01,5.01-.07,1.99-.35,3.98-.38,5.97-.02,1.4.29,2.81.3,4.21.06,5.01.05,10.03.07,15.04,0,.25,0,.5-.03.75-.17,1.31-.77,1.91-2.15,1.95-1.7.05-3.4.05-5.1,0-2.13-.06-2.87-.77-2.89-2.93-.04-5.01-.01-10.03-.01-15.04-.01,0-.02,0-.04,0h0Z"/>
        <path class="c" d="M413.76,475.65c0-6.26,0-12.53,0-18.79,0-.68-.02-1.36.04-2.03.12-1.33.75-2.05,2.05-2.1,2.2-.08,4.42-.07,6.62,0,1.15.03,1.45.41,1.55,1.58.06.67.03,1.35.03,2.03,0,10.58-.04,21.17,0,31.75.01,2.52.37,5.04.44,7.56.07,2.31-.46,2.78-2.83,2.81-1.53.02-3.06.02-4.59,0-2.78-.04-3.28-.54-3.29-3.24,0-6.52,0-13.03,0-19.56h-.03Z"/>
        <path class="c" d="M467.25,465.76c-.78-.56-1.49-1.08-2.24-1.55-3.86-2.39-7.91-3.37-12.55-2.85-6.45.71-9.95,4.79-11.83,10.3-1.81,5.33.08,13.05,6.32,16.49,2.19,1.21,4.78,2.24,7.34,2.02,3.87-.33,8.93-.79,11.86-3.6.49-.47,1.08-.83,1.64-1.22.94-.65,2.11-.73,2.89-.13,1.52,1.17,3.46,1.98,4.18,4.22-1.54,3.75-4.5,6.05-8.17,7.48-1.72.67-3.49,1.26-5.33,1.54-5.19.78-10.61.69-15.72-.53-2.84-.68-5.53-1.48-7.49-3.71-1.26-1.43-2.82-2.52-4.04-3.96-1.28-1.5-2.13-3.29-2.85-5.11-1.94-4.93-2-10.02-1.33-15.28.41-3.26,1.69-5.98,3.43-8.51,1.04-1.51,2.76-2.51,4.11-3.82,2.27-2.21,5.16-3.23,7.91-4.52.3-.14.64-.28.96-.3,3.72-.2,7.46-.64,11.16-.47,3.08.14,6.28.3,9.08,1.99,2.25,1.36,4.55,2.66,6.65,4.24,1.74,1.32,1.62,3.1-.04,4.62-.75.69-1.57,1.32-2.43,1.88-.54.35-1.12.62-1.76.93-.56.27-1.24.22-1.75-.15Z"/>
      </g>
      <g>
        <path class="c" d="M520.19,486.57c2.96,1.13,5.64,2.14,8.31,3.19,4.04,1.58,8.29,1.73,12.51,1.29,2.67-.28,5.32-1.09,7.32-3.05,2.25-2.2,1.78-5.52-.96-7.06-1.71-.96-3.59-1.49-5.61-1.46-1.5.02-3,.06-4.49-.07-2.33-.19-4.65-.48-6.97-.76-1.59-.19-3.21-.32-4.74-.74-3.55-.98-6.71-2.49-8.97-5.54-3.14-4.25-1.63-10.01,1.14-13.24,3.87-4.51,8.99-6.09,14.73-6.56,1.85-.15,3.71-.42,5.56-.37,5.53.15,10.89,1.22,16.1,2.96,2.71.9,2.95,2.19,1.75,5.34-.11.3-.26.59-.43.86-1.39,2.18-2.3,2.22-4.12,1.57-2.6-.92-5.29-1.71-8.01-2.21-4.92-.9-9.8-.49-14.43,1.45-1.65.69-3.15,1.72-3.01,3.79.14,2.09,1.39,3.48,3.35,4.17,2.79.99,5.74,1.31,8.7,1.44,1.7.08,3.41-.05,5.1.02,3.78.15,7.37,1.03,10.64,2.85,4.19,2.33,6.36,6.97,5.76,11.36-.27,1.98-.5,4.05-2.1,5.59-.89.85-1.87,1.62-2.83,2.39-.45.36-1.12.51-1.47.93-1.72,2.07-4.23,2.54-6.66,3.25-2.77.8-5.66,1.1-8.54.96-2.95-.14-5.91.27-8.86-.44-4.19-1.01-8.37-2-12.15-4.08-.58-.32-1.25-.61-1.65-1.09-.31-.37-.51-1.11-.33-1.52.88-2.04,2.24-3.71,3.99-5.05.39-.3.93-.36,1.39-.18Z"/>
        <path class="c" d="M575.84,497.03c-1.5-.46-2.8-1.15-3.88-2.34-.57-.62-1.3-1.09-1.93-1.65-.58-.51-1.19-1-1.67-1.59-2.59-3.19-4.59-6.89-5.43-10.94-.42-2.03-.53-4.11-.37-6.18.17-2.18.37-4.63.95-6.74.43-1.55,1.26-2.95,2.21-4.23,2.26-3.03,4.55-5.8,7.99-7.56,2.29-1.17,4.73-2.32,7.27-2.81,6.29-1.2,13.76-1.14,19.78,1.25,2.24.89,4.08,2.43,6.08,3.71,1.54.99,2.77,2.37,3.66,3.96.72,1.29,1.14,2.73,1.81,4.05.7,1.36,1.46,2.55,1.87,4.06,1.14,4.23.94,9.26-1,13.19-.9,1.81-1.55,3.86-2.57,5.57-1.08,1.8-2.42,3.35-4.02,4.73-4.77,4.13-10.24,5.4-16.24,5.35-.6,0-1.19,0-1.79,0-4.39.44-8.57-.56-12.73-1.83ZM582.08,462.56c-1.91.84-3.32,2.37-4.72,3.86-1.47,1.55-2.67,2.79-3.32,4.9-1.25,4.07-1.14,8.14,1.04,11.7,3.06,4.99,7.76,7.45,13.61,7.57,2.1.04,3.97-.81,5.91-1.34,2.83-.77,4.94-2.64,6.21-5.32.68-1.41,1.14-2.9,1.79-4.32.77-1.69,1.33-3.54,1.09-5.42-.24-1.82-1.1-3.57-1.96-5.17-.85-1.58-2.06-2.97-3.44-4.11-2.62-2.19-6.15-3.81-9.63-3.44-2.28.24-4.42.14-6.58,1.09Z"/>
        <path class="c" d="M657.41,465.91c-.57.27-1.25.22-1.75-.15-.78-.56-1.49-1.08-2.24-1.55-3.86-2.39-7.91-3.37-12.55-2.85-6.44.71-9.95,4.79-11.82,10.3-1.82,5.33.08,13.05,6.32,16.49,2.19,1.21,4.79,2.24,7.34,2.02,3.86-.33,8.93-.79,11.86-3.6.49-.47,1.09-.83,1.64-1.22.94-.65,2.11-.73,2.89-.13,1.52,1.17,3.46,1.98,4.18,4.22-1.54,3.75-4.5,6.05-8.17,7.48-1.72.67-3.49,1.26-5.33,1.54-5.19.78-10.61.69-15.72-.53-2.84-.68-5.53-1.48-7.49-3.71-1.26-1.43-2.82-2.52-4.04-3.96-1.28-1.5-2.13-3.29-2.85-5.11-1.94-4.93-2-10.02-1.33-15.28.41-3.26,1.7-5.98,3.43-8.51,1.03-1.51,2.76-2.51,4.1-3.82,2.27-2.21,5.16-3.23,7.92-4.52.3-.14.63-.28.96-.3,3.72-.2,7.46-.64,11.17-.47,3.08.14,6.28.3,9.08,1.99,2.25,1.36,4.55,2.66,6.65,4.24,1.74,1.32,1.62,3.1-.04,4.62-.75.69-1.57,1.32-2.43,1.88-.54.35-1.12.62-1.76.93h0Z"/>
        <path class="c" d="M668.04,475.65c0-6.26,0-12.53,0-18.79,0-.68-.02-1.36.04-2.03.12-1.33.74-2.05,2.05-2.1,2.2-.08,4.42-.07,6.62,0,1.15.03,1.45.41,1.55,1.58.06.67.03,1.35.03,2.03,0,10.58-.04,21.17,0,31.75,0,2.52.37,5.04.44,7.56.07,2.31-.47,2.78-2.84,2.81-1.53.02-3.06.02-4.59,0-2.78-.04-3.28-.54-3.29-3.24,0-6.52,0-13.03,0-19.56h-.04Z"/>
        <path class="c" d="M734.27,498.34c-2.21.14-4.5.15-6.61.04-.52-.03-1.03.02-1.55.05-1.45.1-2.1-1.41-2.62-2.65-.29-.69-.66-1.34-.93-2.03-.65-1.63-1.91-2.54-3.63-2.7-2.53-.24-5.06-.47-7.6-.45-3.81.02-7.62.24-11.43.41-2.33.11-4.21,1.1-4.82,3.35-1.06,3.87-4.1,4.28-7.78,4.01-.77-.06-1.54-.02-2.3.04-1.31.1-2.39-.22-3.3-1.22.2-.51.35-.98.57-1.41,1.64-3.16,3.23-6.34,4.97-9.46,3.43-6.16,6.06-12.69,9-19.07,1.98-4.28,3.96-8.56,5.89-12.87.48-1.08,1.37-1.5,2.39-1.53,2.89-.11,5.78-.1,8.67-.1,1.51,0,2.23,1.06,2.79,2.2,1.17,2.38,2.32,4.77,3.42,7.18,1.47,3.24,2.8,6.54,4.32,9.76,3.49,7.42,7.04,14.82,10.6,22.21.39.81.82,2.24.8,3.38,0,.46-.37.84-.83.87ZM713.37,485.01c2.87-.3,4-2.42,2.81-4.93-1.5-3.14-2.94-6.3-4.43-9.44-.25-.52-.57-1.02-.95-1.45-1.18-1.31-2.28-1.32-3.69-.06-.36.32-.56.82-.77,1.27-.9,1.95-1.78,3.92-2.66,5.88-.71,1.58-1.47,3.15-2.1,4.76-.51,1.33-.15,2.5,1.03,3.18.77.44,1.71.71,2.61.8,1.26.14,2.55.04,3.82.04,0,0,2.9.1,4.33-.05Z"/>
        <path class="c" d="M739.07,497.52c-.5-.76-.43-2.65-.43-3.32-.06-6.36-.09-12.72-.06-19.08.02-3.17.35-6.35.11-9.52-.24-3.17.01-6.29-.1-9.45-.02-.59.01-1.19.16-1.76.35-1.27.83-1.67,2.18-1.69,2.46-.05,4.93-.01,7.34-.01,1.36,1.34.95,2.88.85,4.37-.08,1.25-.1,2.5-.11,3.74,0,.33.05.73.01,1.05-.18,8.04.01,15.34-.28,23.04-.08,2.26.86,4.09,4.15,4.38,1.1.1,2.21.04,3.32.04,4-.01,8,0,12-.06,2.03-.04,4.05-.31,6.08-.35,1.08-.02,2.18.18,3.25.39,1.79.35,1.75.42,1.9,2.07.19,2.02-.51,3.84-1.15,5.66-.15.44-.8.83-1.3.99-.54.17-1.18.05-1.78.05-8.34,0-16.68-.03-25.02,0-3.49.01-7.49,1.17-10.82-.26-.12-.05-.22-.15-.31-.28Z"/>
        <path class="c" d="M783.09,475.65c0-6.26,0-12.53,0-18.79,0-.68-.02-1.36.04-2.03.12-1.33.74-2.05,2.05-2.1,2.2-.08,4.42-.07,6.62,0,1.15.03,1.45.41,1.55,1.58.06.67.03,1.35.03,2.03,0,10.58-.04,21.17,0,31.75,0,2.52.37,5.04.44,7.56.07,2.31-.47,2.78-2.84,2.81-1.53.02-3.06.02-4.59,0-2.78-.04-3.28-.54-3.29-3.24,0-6.52,0-13.03,0-19.56h-.04Z"/>
        <path class="c" d="M804.46,486.57c2.96,1.13,5.64,2.14,8.31,3.19,4.04,1.58,8.29,1.73,12.51,1.29,2.67-.28,5.32-1.09,7.32-3.05,2.25-2.2,1.78-5.52-.96-7.06-1.71-.96-3.59-1.49-5.61-1.46-1.5.02-3,.06-4.49-.07-2.33-.19-4.65-.48-6.97-.76-1.59-.19-3.21-.32-4.74-.74-3.55-.98-6.71-2.49-8.97-5.54-3.14-4.25-1.63-10.01,1.14-13.24,3.87-4.51,8.99-6.09,14.73-6.56,1.85-.15,3.71-.42,5.56-.37,5.53.15,10.89,1.22,16.1,2.96,2.71.9,2.95,2.19,1.75,5.34-.11.3-.26.59-.43.86-1.39,2.18-2.3,2.22-4.12,1.57-2.6-.92-5.29-1.71-8.01-2.21-4.92-.9-9.8-.49-14.43,1.45-1.65.69-3.15,1.72-3.01,3.79.14,2.09,1.39,3.48,3.35,4.17,2.79.99,5.74,1.31,8.7,1.44,1.7.08,3.41-.05,5.1.02,3.78.15,7.37,1.03,10.64,2.85,4.19,2.33,6.36,6.97,5.76,11.36-.27,1.98-.5,4.05-2.1,5.59-.89.85-1.87,1.62-2.83,2.39-.45.36-1.12.51-1.47.93-1.72,2.07-4.23,2.54-6.66,3.25-2.77.8-5.66,1.1-8.54.96-2.95-.14-5.91.27-8.86-.44-4.19-1.01-8.37-2-12.15-4.08-.58-.32-1.25-.61-1.65-1.09-.31-.37-.51-1.11-.33-1.52.88-2.04,2.24-3.71,3.99-5.05.39-.3.93-.36,1.39-.18Z"/>
        <path class="c" d="M862.53,480.43c0-4.6,0-9.19,0-13.79,0-.59.01-1.17-.04-1.76-.15-1.75-.75-2.35-2.51-2.52-.67-.06-1.36-.05-2.04-.05-3.4-.02-6.8,0-10.2-.06-.83-.01-1.7-.13-2.46-.43-.45-.18-1.03-.8-1.03-1.22-.02-1.99-.02-4,.27-5.97.26-1.78.51-1.85,2.37-1.87,2.97-.03,5.95-.03,8.92-.02,10.2.02,20.4.05,30.6.07.42,0,.85.03,1.28,0,2.5-.17,3.56.83,3.45,3.42-.05,1.25.04,2.51,0,3.76-.05,1.35-.4,1.8-1.7,2.11-.65.15-1.35.14-2.02.14-3.4.03-6.8.04-10.2.06-.59,0-1.2-.03-1.78.07-1.74.31-2.65,1.34-2.69,3.09-.04,1.67.08,3.34.01,5.01-.07,1.99-.35,3.98-.38,5.97-.02,1.4.29,2.81.3,4.21.06,5.01.05,10.03.07,15.04,0,.25,0,.5-.03.75-.17,1.31-.76,1.91-2.15,1.95-1.7.05-3.4.05-5.1,0-2.13-.06-2.86-.77-2.89-2.93-.05-5.01-.01-10.03-.01-15.04-.02,0-.03,0-.04,0h0Z"/>
        <path class="c" d="M898.35,486.57c2.96,1.13,5.64,2.14,8.31,3.19,4.04,1.58,8.29,1.73,12.51,1.29,2.67-.28,5.32-1.09,7.32-3.05,2.25-2.2,1.78-5.52-.96-7.06-1.71-.96-3.59-1.49-5.61-1.46-1.5.02-3,.06-4.49-.07-2.33-.19-4.65-.48-6.97-.76-1.59-.19-3.21-.32-4.74-.74-3.55-.98-6.71-2.49-8.97-5.54-3.14-4.25-1.63-10.01,1.14-13.24,3.87-4.51,8.99-6.09,14.73-6.56,1.85-.15,3.71-.42,5.56-.37,5.53.15,10.89,1.22,16.1,2.96,2.71.9,2.95,2.19,1.75,5.34-.11.3-.26.59-.43.86-1.39,2.18-2.3,2.22-4.12,1.57-2.6-.92-5.29-1.71-8.01-2.21-4.92-.9-9.8-.49-14.43,1.45-1.65.69-3.15,1.72-3.01,3.79.14,2.09,1.39,3.48,3.35,4.17,2.79.99,5.74,1.31,8.7,1.44,1.7.08,3.41-.05,5.1.02,3.78.15,7.37,1.03,10.64,2.85,4.19,2.33,6.36,6.97,5.76,11.36-.27,1.98-.49,4.05-2.1,5.59-.89.85-1.87,1.62-2.83,2.39-.45.36-1.12.51-1.47.93-1.72,2.07-4.23,2.54-6.66,3.25-2.77.8-5.66,1.1-8.54.96-2.95-.14-5.91.27-8.86-.44-4.19-1.01-8.37-2-12.15-4.08-.58-.32-1.25-.61-1.65-1.09-.31-.37-.51-1.11-.33-1.52.88-2.04,2.24-3.71,3.99-5.05.39-.3.93-.36,1.39-.18Z"/>
      </g>
    </g>
    <g>
      <path class="c" d="M54.04,615.78c-9.1.92-17.76-1.17-26.38-3.79-3.12-.95-5.81-2.39-8.03-4.84-1.17-1.29-2.69-2.26-4-3.42-1.19-1.06-2.47-2.06-3.46-3.3-5.37-6.61-9.52-14.28-11.24-22.67-.86-4.21-1.11-8.53-.78-12.81.35-4.52.77-9.6,1.98-13.97.89-3.21,2.61-6.11,4.58-8.76,4.68-6.28,9.44-12.01,16.56-15.65,4.75-2.43,9.8-4.81,15.07-5.81,13.03-2.49,28.51-2.36,40.99,2.59,4.65,1.85,8.45,5.03,12.59,7.7,3.19,2.05,5.73,4.9,7.58,8.2,1.5,2.68,2.36,5.66,3.76,8.39,1.45,2.82,3.03,5.29,3.86,8.41,2.37,8.76,1.96,19.19-2.07,27.33-1.86,3.75-3.21,8-5.33,11.54-2.25,3.74-5.02,6.94-8.32,9.79-9.89,8.56-21.22,11.2-33.65,11.08-1.24-.02-2.47,0-3.71,0h0ZM54.23,538.31c-4.73.5-9.17.29-13.64,2.26-3.95,1.74-6.87,4.92-9.78,8-3.04,3.21-5.53,5.79-6.88,10.15-2.6,8.43-2.37,16.86,2.16,24.25,6.34,10.35,16.07,15.43,28.2,15.69,4.35.09,8.22-1.69,12.24-2.78,5.87-1.6,10.23-5.48,12.88-11.02,1.4-2.93,2.37-6,3.71-8.94,1.6-3.51,2.77-7.34,2.26-11.23-.49-3.77-2.28-7.39-4.06-10.71-1.76-3.28-4.27-6.15-7.12-8.53-5.43-4.53-12.75-7.89-19.96-7.13h0Z"/>
      <path class="c" d="M181.56,575.22c-.11,1.05-.97,1.87-2.03,1.93-1.29.08-2.47.15-3.66.15-4.23.02-8.47-.17-12.69-.03-5.96.2-11.92.58-17.87.96-3.59.23-5.8,2.42-6.04,5.95-.36,5.56-.77,11.12-.88,16.69-.05,2.75.35,8.3.39,11.07.05,3.61-1.45,2.69-5.02,2.78-4.46.12-7.16.06-11.64.18-1.52.04-3.31-.7-3.51-2.21-.31-2.25-.31-4.88-.32-7.13-.09-25.57-.03-51.13-.19-76.7-.04-6.66,1.39-8.64,8.62-8.51,8.63.16,17.28.01,25.92-.09,2.21-.03,7.37-.14,7.9-.06,8.29.21,23.49-.31,35.26.22.18,0,.35,0,.53.01,3.36.16,4.79.99,5.09,4.05.38,3.82.32,7.7.09,11.54-.11,1.85-1.58,3.1-3.58,3.28-1.4.12-2.82.07-4.23.07-14.11-.02-28.21-.1-42.31-.03-2.42.01-4.83.63-7.24,1.02-1.92.31-3.1,1.58-3.84,3.26-1.55,3.52-1.44,7.1-.3,10.71.66,2.07,2.32,3.02,4.18,3.66.81.28,1.73.26,2.61.29,9.66.31,19.32.65,28.98.9,5.37.13,6.7,1.21,6.8,6.48.01.65-.04,1.3-.13,1.94-.38,2.79-.58,4.71-.89,7.62h0Z"/>
      <path class="c" d="M359.64,614.69c-4.59.3-9.33.32-13.7.09-1.08-.06-2.14.04-3.22.11-3,.2-4.34-2.92-5.43-5.49-.6-1.42-1.36-2.77-1.93-4.2-1.34-3.37-3.95-5.26-7.52-5.6-5.23-.5-10.49-.97-15.74-.94-7.89.05-15.79.5-23.68.86-4.83.22-8.72,2.29-10,6.94-2.21,8.02-8.49,8.87-16.12,8.31-1.59-.12-3.18-.05-4.77.07-2.72.21-4.96-.47-6.85-2.53.42-1.05.72-2.02,1.18-2.92,3.4-6.55,6.7-13.14,10.29-19.6,7.12-12.78,12.56-26.29,18.66-39.52,4.1-8.88,8.21-17.75,12.2-26.67,1-2.25,2.84-3.1,4.95-3.18,5.99-.22,11.98-.21,17.97-.21,3.14,0,4.62,2.19,5.79,4.56,2.42,4.93,4.82,9.88,7.08,14.88,3.04,6.71,5.81,13.54,8.95,20.21,7.23,15.38,14.59,30.7,21.96,46.02.81,1.67,1.7,4.65,1.66,7.01-.02.96-.77,1.74-1.72,1.81ZM307.35,587.19s6.01.2,8.97-.11c5.94-.62,8.3-5.01,5.81-10.21-3.1-6.5-6.09-13.05-9.17-19.55-.51-1.07-1.18-2.12-1.98-3-2.45-2.71-4.72-2.73-7.65-.13-.74.66-1.16,1.7-1.59,2.63-1.86,4.05-3.68,8.11-5.51,12.18-1.47,3.28-3.05,6.52-4.34,9.86-1.06,2.76-.32,5.19,2.14,6.6,1.59.92,3.55,1.46,5.4,1.66,2.61.28,5.28.07,7.92.07h0Z"/>
      <path class="c" d="M481.09,614.84c-5.33,0-10.79.07-16.24-.03-3.25-.06-3.98-.77-4.01-4.01-.09-8.64-.05-17.27-.05-25.91,0-1.87.19-3.75-.06-5.58-.2-1.49-.69-3.1-1.56-4.31-2.11-2.93-5.47-2.42-7.05.83-2.78,5.71-5.35,11.51-7.92,17.3-2.4,5.42-4.65,10.9-7.03,16.33-1.34,3.07-4.24,4.49-7.78,3.95-2.67-.41-5.35-.62-8.06-.6-2.59.02-4.57-.78-6.02-2.73-1.11-1.5-2.26-3.02-3.1-4.67-3.94-7.73-7.75-15.52-11.68-23.25-.84-1.66-1.83-3.28-2.99-4.75-2.32-2.96-6.02-2.61-7.34.83-.77,1.99-1.03,4.27-1,6.42.05,4.03.58,8.06.74,12.09.17,4.57.19,9.15.17,13.72,0,3.78-.58,4.32-4.64,4.38-4.23.06-8.46.09-12.69-.01-3.37-.08-4.66-1.4-4.9-4.66-.05-.68-.02-1.35-.02-2.03,0-26.08-.03-52.17.02-78.25,0-2.07.32-4.13.58-6.12.15-1.13.87-2.13,1.93-2.56,2.07-.84,4.09-1.03,6.17-1,3.17.05,6.35-.06,9.52.04,4.16.13,7.28,1.66,9.09,5.62,7.29,15.89,14.79,31.69,22.27,47.49.44.93,1.46,2.49,2,3.37.21.34.33.75.56,1.08,3.09,4.45,7.12,4.54,9.87-.14,2.85-4.84,5.15-9.98,7.67-14.99.22-.45.26-.99.47-1.44,5.37-11.36,10.95-22.63,16-34.12,1.71-3.88,4.44-6.69,8.31-6.92,4.39-.26,8.79-.13,13.19,0,3.47.1,4.93,2.39,5.84,5.71.48,1.76.67,3.64.67,5.47.08,22.36.08,44.71.17,67.07.01,2.85.6,5.68.74,8.53.12,2.5.66,5.11-1.85,7.85h0Z"/>
      <path class="c" d="M559.65,560.13c1.59,5.38,1.32,10.46.14,15.79-.13.57-.63.99-1.22,1.02-1.65.08-3.09.17-4.53.21-9.83.31-19.65.56-29.48.92-3.25.12-6.04,2.36-6.91,5.49-2.04,7.34,1.68,12.3,9.27,12.44,1.41.03,2.82.03,4.23.03,13.21-.05,26.42-.11,39.64-.14,2.29,0,4.59-.02,6.86.17,2.38.21,3,.92,3.2,3.32.36,4.26-.45,8.3-1.93,12.33-.73,2-1.92,2.8-3.7,3.13-1.03.19-2.11.07-3.16.07-22.55.02-45.1.04-67.65.04-1.77,0-3.61.23-5.39-.65-1.23-.61-1.96-1.91-1.95-3.28.02-2.56.07-5.38-.03-8.2-.31-8.74-.64-17.38-.57-26.14.07-8.25.2-16.51.39-24.76.19-7.97-.58-15.91-.58-23.88-.04-1.36.22-2.78.6-4.1.71-2.43,2.33-3.85,5.01-3.82,1.41.02,2.82-.05,4.23-.05,22.2,0,44.4.01,66.59.02.88,0,1.77-.05,2.64.03,2.56.22,4.1,1.38,4.23,3.76.22,4.03.23,8.08.1,12.11-.07,2.23-.99,2.89-3.45,3.06-1.4.1-2.82.02-4.23.02-14.27-.01-28.54-.07-42.81.01-2.24.01-4.48.61-6.71.97-.51.08-1.03.23-1.51.43-2.68,1.16-4.37,6.67-3.44,11.41.84,4.28,3,5.74,7.29,6.22,9.64,1.08,19.3.82,28.96.86,1.38,0,2.76,0,4.29,0,.72,0,1.38.47,1.58,1.15h0Z"/>
      <path class="c" d="M693.36,613.12c-.31,1.03-.86,1.85-1.34,1.87-6.48.36-12.81-.26-19.31-.1-5.23.13-9.22-1.46-12.83-4.83-5.78-5.39-11.7-10.65-17.28-16.24-4.37-4.39-9.4-6.48-15.54-6.29-2.82.09-5.64-.13-8.46-.05-4.83.14-7.13,2.34-7.33,7.08-.1,2.45,0,4.96-.03,7.26-.02,3.48.21,6.3-.09,9.36-.23,2.4-1.75,3.56-4.35,3.65-4.05.15-8.11.2-12.16.12-2.66-.05-3.36-.78-3.58-3.5-.37-4.53-.83-9.06-.85-13.6-.09-22.85,0-45.69-.1-68.54-.03-6.55.88-9.18,9.34-9.23,13.93-.09,27.86-.12,41.79.03,5.61.06,11.26.3,16.79,1.14,5.02.76,9.72,2.72,13.97,5.75,9.59,6.84,14.98,15.75,14.45,27.81-.06,1.25-.09,2.52-.03,3.77.3,6.94-2.43,12.61-7.24,17.54-2.2,2.25-4.14,4.75-6.09,7.23-1.82,2.32-1.83,5.58-.01,7.89,2.84,3.61,5.9,7.1,9.19,10.31,3.25,3.17,6.99,5.84,10.4,8.85.65.58.6,1.52.7,2.71ZM613.95,540.72c-1.03.39-1.71,1.38-1.71,2.48.03,5.44.16,10.63-.07,15.8-.23,5.22,2.71,8.83,8.77,8.52,4.22-.22,8.52-.39,12.68.16,5.82.78,11.51-.33,17.25-.48,3.24-.09,6.53-1.21,9.66-2.25,3.69-1.22,5.67-3.99,5.8-7.94.04-1.23,0-2.46.06-3.69.31-6.49-3.65-12.11-10.88-13.31-3.96-.66-8.09-.44-11.99-1.28-8.11-1.75-16.09-.05-24.12.38-1.8.09-3.56.87-5.45,1.6h0Z"/>
      <path class="c" d="M700.71,567.69c0-12.98,0-25.96,0-38.94,0-1.4-.04-2.81.08-4.21.24-2.75,1.54-4.25,4.26-4.35,4.57-.17,9.15-.15,13.72-.02,2.38.07,3,.85,3.21,3.28.12,1.4.06,2.8.06,4.21,0,21.93-.08,43.86.02,65.78.02,5.22.76,10.44.91,15.67.14,4.79-.96,5.76-5.88,5.82-3.17.04-6.34.05-9.5,0-5.75-.09-6.8-1.12-6.81-6.71-.02-13.51,0-27.01,0-40.52h-.07Z"/>
      <path class="c" d="M814.37,547.5c-1.17.57-2.58.45-3.63-.31-1.61-1.17-3.09-2.25-4.64-3.21-8.01-4.96-16.38-6.98-26-5.91-13.35,1.48-20.61,9.92-24.5,21.34-3.76,11.04.17,27.04,13.1,34.17,4.53,2.5,9.91,4.63,15.2,4.18,8.01-.7,18.51-1.64,24.58-7.46,1.01-.97,2.25-1.72,3.41-2.52,1.94-1.35,4.37-1.51,5.99-.27,3.16,2.42,7.16,4.11,8.66,8.75-3.18,7.76-9.32,12.55-16.94,15.5-3.57,1.38-7.24,2.61-11.05,3.18-10.75,1.63-21.99,1.43-32.58-1.09-5.89-1.4-11.46-3.07-15.53-7.7-2.61-2.97-5.83-5.23-8.37-8.2-2.65-3.1-4.42-6.83-5.9-10.58-4.02-10.22-4.14-20.77-2.75-31.67.86-6.76,3.51-12.4,7.1-17.63,2.14-3.13,5.72-5.21,8.5-7.92,4.7-4.57,10.69-6.69,16.4-9.38.63-.29,1.32-.58,1.99-.62,7.71-.41,15.45-1.32,23.13-.97,6.38.29,13.02.63,18.81,4.13,4.66,2.81,9.44,5.51,13.78,8.79,3.61,2.73,3.35,6.43-.09,9.57-1.56,1.43-3.26,2.75-5.03,3.89-1.11.72-2.32,1.29-3.65,1.94h0Z"/>
      <path class="c" d="M935.94,614.69c-4.59.3-9.33.32-13.7.09-1.08-.06-2.14.04-3.22.11-3,.2-4.34-2.92-5.43-5.49-.6-1.42-1.36-2.77-1.93-4.2-1.35-3.37-3.95-5.26-7.52-5.6-5.23-.5-10.5-.97-15.74-.94-7.89.05-15.78.5-23.67.86-4.83.22-8.72,2.29-10,6.94-2.2,8.02-8.49,8.87-16.12,8.31-1.59-.12-3.18-.05-4.77.07-2.72.21-4.96-.47-6.85-2.53.42-1.05.72-2.02,1.18-2.92,3.4-6.55,6.7-13.14,10.29-19.6,7.11-12.78,12.56-26.29,18.66-39.52,4.1-8.88,8.21-17.75,12.2-26.67,1-2.25,2.84-3.1,4.95-3.18,5.99-.22,11.98-.21,17.97-.21,3.13,0,4.62,2.19,5.79,4.56,2.42,4.93,4.82,9.88,7.08,14.88,3.04,6.71,5.81,13.54,8.95,20.21,7.23,15.38,14.59,30.7,21.96,46.02.81,1.67,1.7,4.65,1.66,7.01-.02.96-.77,1.74-1.72,1.81ZM883.65,587.19s6.01.2,8.97-.11c5.94-.62,8.3-5.01,5.81-10.21-3.1-6.5-6.09-13.05-9.17-19.55-.51-1.07-1.18-2.12-1.98-3-2.45-2.71-4.72-2.73-7.65-.13-.74.66-1.16,1.7-1.59,2.63-1.86,4.05-3.68,8.11-5.51,12.18-1.47,3.28-3.05,6.52-4.34,9.86-1.06,2.76-.32,5.19,2.14,6.6,1.59.92,3.55,1.46,5.4,1.66,2.61.28,5.28.07,7.92.07h0Z"/>
    </g>
  </g>
  <g>
    <path class="c" d="M450.93,361.77c4.4,4.21,9.92,11.07,7.05,21.78l-.74,2.77-7.24,2.74c-4.99,1.9-10.03,3.82-15.12,5.56-.73.26-1.43.35-2.1.35-2.1,0-3.86-1.02-4.92-1.66l1.02-3.43-2.42,2.74-6.77-5.03c-7.4-5.48-14.8-10.99-22.12-16.58-1.56-1.17-2.53-2.68-3.25-3.92l-2.52-1.98,1.82.81-.31-.53c-.39-.57-.79-1.32-1.17-2.05-.06-.1-.11-.18-.14-.24-4.23-1.62-6.81-4.77-8.73-7.15-1.05-1.26-2.05-2.49-2.95-3.07-3.85-2.46-6.48-5.56-8.8-8.29-.83-.97-1.66-1.96-2.56-2.9-4.23-4.54-8.8-8.76-13.51-13.12l-3.68-3.43-1.06.4.08,2.21c.25,5.83.48,11.4.78,16.95.19,3.23-.06,6.42-.3,9.62-.25,3.15-.48,6.12-.25,9.06.5,6.18-1.14,12.01-2.85,18.19-.71,2.48-1.42,5.05-2,7.69l-1.06,4.88-31.35-3.14-1.45-2.45c-4.28-7.32-3.74-15.33-3.24-22.37.24-3.43.44-6.68.18-9.77-.55-6.17-.49-12.34-.42-18.31.05-3.88.1-7.75-.05-11.61-.14-4.27-.55-8.51-.96-12.75-.25-2.49-.49-4.98-.69-7.49-.15-1.94-.23-4.03.38-6.16,2.14-7.31,1.91-14.86,1.68-22.86-.1-3.03-.17-6.07-.14-9.09.19-15.64.95-32.03,2.32-50.08.33-4.21,2.44-7.74,4.29-10.86.54-.9,1.07-1.79,1.55-2.68,1.61-3.03,5.54-4.92,8.76-4.28l2.56.5c4.18.79,8.51,1.62,12.7,3.23,8.58,3.29,8.72,11.25,8.82,16.02l.03,1.39c.15,6.25.85,12.38,1.57,18.89.32,2.97.66,5.91.93,8.88.07.7.17,1.45.3,2.19.46,2.86,1.05,6.42-.49,9.78-1.41,3.13-.68,4.46,3.19,8.89.74.85,1.48,1.7,2.19,2.57.46.6.79.83.95.9-.11-.08.33-.37.94-1.08,2.3-2.84,4.5-5.77,6.68-8.7,2.92-3.93,5.85-7.83,9.05-11.52,2.09-2.43,3.97-5.01,5.87-7.59,3.77-5.14,7.69-10.48,13.21-14.93,3.08-2.44,5.94-6.68,8.5-12.58,4.41-10.08,11.44-14.87,22.15-15.11l1.99-.05,3.41,2.64c1.94,1.47,4.25,3.24,6.46,5.15,5.23,4.54,6.22,11.17,2.52,16.87l-1.06,1.62c-5.22,8-10.62,16.26-16.42,24.15l-1.24,1.65c-10.27,13.89-20.91,28.26-29.64,43.41-2.88,4.99-1.85,7.64-.27,9.74,2.12,2.86,4.98,5.46,7.2,7.41l6.58,5.65c9.18,7.89,18.69,16.05,27.44,25.08,2.92,3.03,6.29,5.8,9.87,8.76,3.05,2.46,6.12,5,8.95,7.76Z"/>
    <path class="c" d="M622.7,316.79c5.05,11.59,5.72,24.95,2.08,39.68-2.01,8.08-8.09,14.98-13.6,20.8l-2.16,2.32c-5.18,5.7-11.6,12.72-22.16,13.02-9.8,5.3-19.9,5.23-29.7,5.12h-5.38c-2.71.01-5.45.02-8.18.02-9.98,0-20.14-.32-30.26-2.18-2.18-.4-4.39-.64-6.61-.86-7.19-.79-15.25-1.66-22.13-7.38-6.42-.66-10.99-4.37-14.74-7.41-1.31-1.07-2.61-2.12-3.99-3.04-.75-.51-1.37-1.08-1.95-1.68l-.99-1-.87-1.84c-2.32-8.05-.46-15.66,5.36-22.04,4.67-5.07,11.13-6.4,18.24-3.75,2.14.79,4.36,1.3,6.59,1.83,1.72.41,3.44.83,5.13,1.31,3.18.95,6.54,1.99,9.74,3.51,6.77,3.22,12.29,4.49,17.62,4.2,1.3-.07,3.57-.2,5.78.81,9.49,4.23,19.11,1.74,29.29-.89,3.66-.94,7.27-1.86,10.89-2.52,6.43-1.16,9.58-5.27,11.09-8.54,2.61-5.62,2.21-12.91-1.06-18.54-2.47-4.3-6.28-7.54-10.32-10.97-2.52-2.15-5.05-4.3-7.31-6.7-.35-.06-.73-.08-1.07-.12l-1.15-.13c-2.09-.26-4.24-.39-6.39-.5-5.39-.28-10.99-.61-16.11-3.07-3.94-1.91-8.12-2.94-12.54-4.03-2.16-.55-4.32-1.07-6.47-1.71-1.4-.43-2.85-.77-4.28-1.12-5.47-1.34-11.63-2.85-16.99-7.75.06.15-1.44.08-2.57.01-1.43-.07-2.97-.18-4.53-.42l-2.73-.43-1.32-2.43c-.42-.75-.76-1.58-1.12-2.42-.21-.5-.51-1.25-.68-1.48-15.03-10.38-14.42-25.98-12.63-36.79,2.76-16.62,11.74-29.02,26.68-36.88,1.7-.9,4.07-2.17,6.8-2.51,5.25-.66,10.35-2.32,15.71-4.09,2.08-.7,4.2-1.37,6.28-2.01,5.88-1.76,11.92-1.88,17.74-2l4.47-.12c3.04-.13,5.1.86,6.99,1.64l1.24.5c.98.37,1.98.92,2.94,1.46.43.25.83.51,1.23.66,5.54-.95,11.13,1.23,16.06,3.11,2.68,1.03,5.19,2.01,7.69,2.42,9.11,1.51,19.73,13.02,23.55,22.41l1.24,3.04-10.87,13.6-6.52-1.66c-2.42-.57-4.72-1.13-6.94-1.97-8.94-3.41-19.69-6.76-30.69-6.39-2.63.08-5.48-.35-8.29-1.3-2.9-.98-4.04-.01-4.57.48-5.48,4.78-11.72,4.99-15.82,4.76-3.44,0-10.07,5.29-10.52,7.76-.98,5.81,3.3,12.34,8.83,13.45,4.28.86,8.61,1.59,12.92,2.3,8.87,1.48,18.04,3,26.87,5.71l3.5,1.02c7.38,2.11,15.75,4.52,22.62,11.49,1.39,1.43,3.81,2.6,6.38,3.82,2.57,1.23,5.46,2.63,8.1,4.64,8.63,6.54,12.92,15.31,16.55,23.77Z"/>
  </g>
</svg>